{
DisplayStrings = (
/star
);
customParameters = (
{
name = description;
value = "Font generated by IcoMoon.";
},
{
name = vendorID;
value = "";
}
);
date = "2015-09-28 21:07:09 +0000";
familyName = "icomoon";
fontMaster = (
{
ascender = 960;
capHeight = 0;
customParameters = (
{
name = typoAscender;
value = 960;
},
{
name = typoDescender;
value = "-64";
},
{
name = typoLineGap;
value = 64;
}
);
descender = -64;
id = "177FC93B-1B38-4AFC-964F-9D8881365EE5";
userData = {
GSCornerRadius = 30;
GSOffsetHorizontal = 15;
GSOffsetMakeStroke = 1;
GSOffsetVertical = 10;
};
weightValue = 400;
widthValue = 5;
xHeight = 0;
}
);
glyphs = (
{
glyphname = space;
layers = (
{
layerId = "177FC93B-1B38-4AFC-964F-9D8881365EE5";
name = Regular;
paths = (
{
closed = 1;
nodes = (
"0 0 LINE",
"0 0 LINE"
);
}
);
width = 512;
}
);
unicode = 0020;
},
{
glyphname = uni0000;
layers = (
{
layerId = "177FC93B-1B38-4AFC-964F-9D8881365EE5";
name = Regular;
paths = (
{
closed = 1;
nodes = (
"0 0 LINE",
"0 0 LINE"
);
}
);
width = 0;
}
);
unicode = 0000;
},
{
glyphname = uni0001;
layers = (
{
layerId = "177FC93B-1B38-4AFC-964F-9D8881365EE5";
name = Regular;
paths = (
{
closed = 1;
nodes = (
"0 0 LINE",
"0 0 LINE"
);
}
);
width = 0;
}
);
unicode = 0001;
},
{
glyphname = bookshelf;
lastChange = "2015-10-30 14:11:57 +0000";
layers = (
{
layerId = "177FC93B-1B38-4AFC-964F-9D8881365EE5";
name = Regular;
paths = (
{
closed = 1;
nodes = (
"438 958 LINE SMOOTH",
"418 958 OFFCURVE",
"399 950 OFFCURVE",
"386 937 CURVE SMOOTH",
"372 924 OFFCURVE",
"363 905 OFFCURVE",
"363 886 CURVE SMOOTH",
"363 858 LINE",
"362 858 OFFCURVE",
"360 859 OFFCURVE",
"358 860 CURVE",
"356 860 OFFCURVE",
"354 861 OFFCURVE",
"352 861 CURVE SMOOTH",
"348 862 OFFCURVE",
"343 862 OFFCURVE",
"339 862 CURVE SMOOTH",
"89 862 LINE SMOOTH",
"68 862 OFFCURVE",
"50 854 OFFCURVE",
"36 841 CURVE SMOOTH",
"23 829 OFFCURVE",
"14 810 OFFCURVE",
"14 790 CURVE SMOOTH",
"14 72 LINE SMOOTH",
"14 52 OFFCURVE",
"23 33 OFFCURVE",
"36 21 CURVE SMOOTH",
"50 8 OFFCURVE",
"68 0 OFFCURVE",
"89 0 CURVE SMOOTH",
"339 0 LINE SMOOTH",
"348 0 OFFCURVE",
"358 2 OFFCURVE",
"365 4 CURVE SMOOTH",
"374 8 OFFCURVE",
"382 13 OFFCURVE",
"389 18 CURVE",
"394 13 OFFCURVE",
"403 8 OFFCURVE",
"411 4 CURVE SMOOTH",
"420 2 OFFCURVE",
"428 0 OFFCURVE",
"438 0 CURVE SMOOTH",
"539 0 LINE SMOOTH",
"559 0 OFFCURVE",
"577 8 OFFCURVE",
"591 21 CURVE SMOOTH",
"605 33 OFFCURVE",
"613 52 OFFCURVE",
"613 72 CURVE SMOOTH",
"613 886 LINE SMOOTH",
"613 905 OFFCURVE",
"605 924 OFFCURVE",
"591 937 CURVE SMOOTH",
"577 950 OFFCURVE",
"559 958 OFFCURVE",
"539 958 CURVE SMOOTH"
);
},
{
closed = 1;
nodes = (
"89 48 LINE SMOOTH",
"82 48 OFFCURVE",
"75 51 OFFCURVE",
"71 55 CURVE SMOOTH",
"66 59 OFFCURVE",
"63 66 OFFCURVE",
"63 72 CURVE SMOOTH",
"63 790 LINE SMOOTH",
"63 797 OFFCURVE",
"66 803 OFFCURVE",
"71 806 CURVE SMOOTH",
"75 811 OFFCURVE",
"82 815 OFFCURVE",
"89 815 CURVE SMOOTH",
"339 815 LINE SMOOTH",
"345 815 OFFCURVE",
"352 811 OFFCURVE",
"357 806 CURVE SMOOTH",
"361 803 OFFCURVE",
"363 797 OFFCURVE",
"363 790 CURVE SMOOTH",
"363 72 LINE SMOOTH",
"363 66 OFFCURVE",
"361 59 OFFCURVE",
"357 55 CURVE SMOOTH",
"352 51 OFFCURVE",
"345 48 OFFCURVE",
"339 48 CURVE SMOOTH"
);
},
{
closed = 1;
nodes = (
"563 66 OFFCURVE",
"560 59 OFFCURVE",
"556 55 CURVE SMOOTH",
"551 51 OFFCURVE",
"545 48 OFFCURVE",
"539 48 CURVE SMOOTH",
"438 48 LINE SMOOTH",
"431 48 OFFCURVE",
"424 51 OFFCURVE",
"421 55 CURVE SMOOTH",
"416 59 OFFCURVE",
"413 66 OFFCURVE",
"413 72 CURVE SMOOTH",
"413 886 LINE SMOOTH",
"413 892 OFFCURVE",
"416 898 OFFCURVE",
"421 902 CURVE SMOOTH",
"424 906 OFFCURVE",
"431 909 OFFCURVE",
"438 909 CURVE SMOOTH",
"539 909 LINE SMOOTH",
"545 909 OFFCURVE",
"551 906 OFFCURVE",
"556 902 CURVE SMOOTH",
"560 898 OFFCURVE",
"563 892 OFFCURVE",
"563 886 CURVE SMOOTH",
"563 72 LINE SMOOTH"
);
},
{
closed = 1;
nodes = (
"146 670 LINE SMOOTH",
"140 670 OFFCURVE",
"133 673 OFFCURVE",
"128 677 CURVE SMOOTH",
"124 681 OFFCURVE",
"121 688 OFFCURVE",
"121 693 CURVE SMOOTH",
"121 701 OFFCURVE",
"124 706 OFFCURVE",
"128 711 CURVE SMOOTH",
"133 715 OFFCURVE",
"140 719 OFFCURVE",
"146 719 CURVE SMOOTH",
"289 719 LINE SMOOTH",
"297 719 OFFCURVE",
"303 715 OFFCURVE",
"306 711 CURVE SMOOTH",
"311 706 OFFCURVE",
"314 701 OFFCURVE",
"314 693 CURVE SMOOTH",
"314 688 OFFCURVE",
"311 681 OFFCURVE",
"306 677 CURVE SMOOTH",
"303 673 OFFCURVE",
"297 670 OFFCURVE",
"289 670 CURVE SMOOTH"
);
},
{
closed = 1;
nodes = (
"943 17 LINE",
"794 1 LINE SMOOTH",
"774 -2 OFFCURVE",
"755 4 OFFCURVE",
"739 15 CURVE SMOOTH",
"724 26 OFFCURVE",
"713 43 OFFCURVE",
"711 63 CURVE SMOOTH",
"613 824 LINE SMOOTH",
"611 842 OFFCURVE",
"617 863 OFFCURVE",
"629 877 CURVE SMOOTH",
"641 890 OFFCURVE",
"659 901 OFFCURVE",
"679 902 CURVE SMOOTH",
"828 921 LINE SMOOTH",
"849 923 OFFCURVE",
"868 918 OFFCURVE",
"883 906 CURVE SMOOTH",
"898 894 OFFCURVE",
"909 878 OFFCURVE",
"911 858 CURVE SMOOTH",
"1008 98 LINE SMOOTH",
"1011 78 OFFCURVE",
"1005 60 OFFCURVE",
"994 44 CURVE SMOOTH",
"981 29 OFFCURVE",
"963 20 OFFCURVE",
"943 17 CURVE"
);
},
{
closed = 1;
nodes = (
"679 854 OFFCURVE",
"672 853 OFFCURVE",
"668 847 CURVE",
"665 841 OFFCURVE",
"663 837 OFFCURVE",
"664 829 CURVE",
"760 69 LINE",
"762 62 OFFCURVE",
"765 57 OFFCURVE",
"770 54 CURVE",
"775 49 OFFCURVE",
"782 48 OFFCURVE",
"788 48 CURVE",
"937 66 LINE",
"944 66 OFFCURVE",
"949 70 OFFCURVE",
"953 75 CURVE SMOOTH",
"957 79 OFFCURVE",
"959 86 OFFCURVE",
"959 91 CURVE",
"862 853 LINE",
"861 859 OFFCURVE",
"858 865 OFFCURVE",
"852 868 CURVE",
"848 872 OFFCURVE",
"842 875 OFFCURVE",
"834 873 CURVE",
"685 856 LINE"
);
},
{
closed = 1;
nodes = (
"753 720 LINE",
"746 719 OFFCURVE",
"739 721 OFFCURVE",
"734 725 CURVE",
"729 728 OFFCURVE",
"726 734 OFFCURVE",
"725 740 CURVE SMOOTH",
"725 747 OFFCURVE",
"727 753 OFFCURVE",
"730 758 CURVE",
"734 763 OFFCURVE",
"739 766 OFFCURVE",
"747 767 CURVE",
"796 772 LINE",
"803 774 OFFCURVE",
"809 771 OFFCURVE",
"816 767 CURVE",
"820 764 OFFCURVE",
"824 758 OFFCURVE",
"824 752 CURVE",
"826 745 OFFCURVE",
"823 740 OFFCURVE",
"819 734 CURVE SMOOTH",
"816 730 OFFCURVE",
"809 727 OFFCURVE",
"802 725 CURVE"
);
}
);
width = 1024;
}
);
unicode = E006;
},
{
glyphname = brain;
lastChange = "2015-10-30 14:34:40 +0000";
layers = (
{
layerId = "177FC93B-1B38-4AFC-964F-9D8881365EE5";
name = Regular;
paths = (
{
closed = 1;
nodes = (
"641 623 OFFCURVE",
"631 634 OFFCURVE",
"631 646 CURVE SMOOTH",
"631 660 OFFCURVE",
"641 670 OFFCURVE",
"655 670 CURVE SMOOTH",
"667 670 OFFCURVE",
"678 681 OFFCURVE",
"678 694 CURVE SMOOTH",
"678 708 OFFCURVE",
"689 719 OFFCURVE",
"702 719 CURVE SMOOTH",
"716 719 OFFCURVE",
"727 708 OFFCURVE",
"727 694 CURVE SMOOTH",
"727 655 OFFCURVE",
"694 623 OFFCURVE",
"655 623 CURVE SMOOTH"
);
},
{
closed = 1;
nodes = (
"648 237 OFFCURVE",
"640 243 OFFCURVE",
"635 253 CURVE",
"632 263 OFFCURVE",
"631 274 OFFCURVE",
"631 285 CURVE SMOOTH",
"631 312 OFFCURVE",
"641 336 OFFCURVE",
"658 354 CURVE SMOOTH",
"676 371 OFFCURVE",
"700 381 OFFCURVE",
"727 381 CURVE SMOOTH",
"738 381 OFFCURVE",
"748 380 OFFCURVE",
"758 376 CURVE SMOOTH",
"772 372 OFFCURVE",
"777 358 OFFCURVE",
"774 346 CURVE SMOOTH",
"769 332 OFFCURVE",
"756 327 OFFCURVE",
"742 330 CURVE",
"738 332 OFFCURVE",
"732 333 OFFCURVE",
"727 333 CURVE SMOOTH",
"700 333 OFFCURVE",
"678 312 OFFCURVE",
"678 285 CURVE SMOOTH",
"678 279 OFFCURVE",
"679 274 OFFCURVE",
"682 269 CURVE SMOOTH",
"685 256 OFFCURVE",
"679 243 OFFCURVE",
"666 238 CURVE",
"665 237 OFFCURVE",
"661 237 OFFCURVE",
"658 237 CURVE SMOOTH"
);
},
{
closed = 1;
nodes = (
"968 513 OFFCURVE",
"959 571 OFFCURVE",
"940 626 CURVE SMOOTH",
"922 681 OFFCURVE",
"896 733 OFFCURVE",
"861 780 CURVE",
"852 807 OFFCURVE",
"837 831 OFFCURVE",
"818 852 CURVE SMOOTH",
"800 872 OFFCURVE",
"775 889 OFFCURVE",
"749 898 CURVE",
"722 935 OFFCURVE",
"679 960 OFFCURVE",
"631 960 CURVE SMOOTH",
"580 960 OFFCURVE",
"536 934 OFFCURVE",
"510 895 CURVE",
"484 934 OFFCURVE",
"440 960 OFFCURVE",
"389 960 CURVE SMOOTH",
"341 960 OFFCURVE",
"298 935 OFFCURVE",
"271 898 CURVE",
"244 889 OFFCURVE",
"220 872 OFFCURVE",
"201 852 CURVE SMOOTH",
"183 831 OFFCURVE",
"167 807 OFFCURVE",
"158 780 CURVE",
"124 733 OFFCURVE",
"98 681 OFFCURVE",
"80 626 CURVE SMOOTH",
"62 571 OFFCURVE",
"52 513 OFFCURVE",
"52 454 CURVE SMOOTH",
"52 422 OFFCURVE",
"55 391 OFFCURVE",
"60 359 CURVE",
"55 336 OFFCURVE",
"52 311 OFFCURVE",
"52 285 CURVE SMOOTH",
"52 247 OFFCURVE",
"58 210 OFFCURVE",
"70 176 CURVE SMOOTH",
"82 141 OFFCURVE",
"99 110 OFFCURVE",
"121 82 CURVE SMOOTH",
"144 54 OFFCURVE",
"171 33 OFFCURVE",
"200 18 CURVE SMOOTH",
"229 4 OFFCURVE",
"260 -4 OFFCURVE",
"293 -4 CURVE SMOOTH",
"306 -4 OFFCURVE",
"319 -3 OFFCURVE",
"331 0 CURVE",
"342 -3 OFFCURVE",
"353 -4 OFFCURVE",
"365 -4 CURVE SMOOTH",
"395 -4 OFFCURVE",
"425 5 OFFCURVE",
"450 18 CURVE SMOOTH",
"474 33 OFFCURVE",
"495 53 OFFCURVE",
"510 78 CURVE",
"524 53 OFFCURVE",
"546 33 OFFCURVE",
"571 18 CURVE SMOOTH",
"595 5 OFFCURVE",
"623 -4 OFFCURVE",
"655 -4 CURVE SMOOTH",
"666 -4 OFFCURVE",
"677 -3 OFFCURVE",
"689 0 CURVE",
"701 -3 OFFCURVE",
"714 -4 OFFCURVE",
"727 -4 CURVE SMOOTH",
"759 -4 OFFCURVE",
"792 4 OFFCURVE",
"820 18 CURVE SMOOTH",
"849 33 OFFCURVE",
"876 54 OFFCURVE",
"899 82 CURVE SMOOTH",
"920 110 OFFCURVE",
"938 141 OFFCURVE",
"950 176 CURVE SMOOTH",
"962 210 OFFCURVE",
"968 247 OFFCURVE",
"968 285 CURVE SMOOTH",
"968 311 OFFCURVE",
"965 336 OFFCURVE",
"960 359 CURVE",
"965 391 OFFCURVE",
"968 422 OFFCURVE",
"968 454 CURVE SMOOTH"
);
},
{
closed = 1;
nodes = (
"332 44 OFFCURVE",
"302 58 OFFCURVE",
"280 79 CURVE SMOOTH",
"259 102 OFFCURVE",
"245 131 OFFCURVE",
"245 165 CURVE SMOOTH",
"245 178 OFFCURVE",
"234 188 OFFCURVE",
"220 188 CURVE SMOOTH",
"208 188 OFFCURVE",
"197 178 OFFCURVE",
"197 165 CURVE SMOOTH",
"197 123 OFFCURVE",
"212 85 OFFCURVE",
"238 54 CURVE",
"199 69 OFFCURVE",
"164 100 OFFCURVE",
"139 140 CURVE SMOOTH",
"115 180 OFFCURVE",
"100 230 OFFCURVE",
"100 285 CURVE SMOOTH",
"100 313 OFFCURVE",
"104 340 OFFCURVE",
"112 366 CURVE SMOOTH",
"119 392 OFFCURVE",
"131 416 OFFCURVE",
"144 439 CURVE",
"152 449 OFFCURVE",
"149 465 OFFCURVE",
"138 472 CURVE SMOOTH",
"126 479 OFFCURVE",
"112 476 OFFCURVE",
"104 465 CURVE",
"104 464 OFFCURVE",
"103 463 OFFCURVE",
"102 462 CURVE",
"102 461 OFFCURVE",
"101 459 OFFCURVE",
"100 458 CURVE",
"100 498 OFFCURVE",
"105 535 OFFCURVE",
"114 572 CURVE SMOOTH",
"123 609 OFFCURVE",
"136 644 OFFCURVE",
"153 678 CURVE",
"160 643 OFFCURVE",
"177 610 OFFCURVE",
"203 584 CURVE",
"208 579 OFFCURVE",
"215 577 OFFCURVE",
"220 577 CURVE SMOOTH",
"226 577 OFFCURVE",
"234 579 OFFCURVE",
"237 584 CURVE SMOOTH",
"247 592 OFFCURVE",
"247 608 OFFCURVE",
"238 618 CURVE SMOOTH",
"211 644 OFFCURVE",
"197 681 OFFCURVE",
"197 719 CURVE SMOOTH",
"197 761 OFFCURVE",
"215 800 OFFCURVE",
"245 827 CURVE",
"245 825 OFFCURVE",
"245 823 OFFCURVE",
"245 821 CURVE SMOOTH",
"245 820 OFFCURVE",
"245 817 OFFCURVE",
"245 815 CURVE SMOOTH",
"245 805 OFFCURVE",
"246 796 OFFCURVE",
"248 787 CURVE SMOOTH",
"250 775 OFFCURVE",
"260 767 OFFCURVE",
"271 767 CURVE SMOOTH",
"272 767 OFFCURVE",
"273 767 OFFCURVE",
"274 767 CURVE SMOOTH",
"275 767 OFFCURVE",
"276 767 OFFCURVE",
"276 768 CURVE",
"289 770 OFFCURVE",
"297 783 OFFCURVE",
"295 796 CURVE",
"293 802 OFFCURVE",
"293 809 OFFCURVE",
"293 815 CURVE SMOOTH",
"293 842 OFFCURVE",
"304 866 OFFCURVE",
"321 883 CURVE SMOOTH",
"338 901 OFFCURVE",
"362 912 OFFCURVE",
"389 912 CURVE SMOOTH",
"416 912 OFFCURVE",
"440 901 OFFCURVE",
"458 883 CURVE SMOOTH",
"475 866 OFFCURVE",
"486 842 OFFCURVE",
"486 815 CURVE SMOOTH",
"486 490 LINE",
"460 512 OFFCURVE",
"427 526 OFFCURVE",
"389 526 CURVE SMOOTH",
"379 526 OFFCURVE",
"369 525 OFFCURVE",
"361 524 CURVE SMOOTH",
"347 521 OFFCURVE",
"339 508 OFFCURVE",
"342 494 CURVE SMOOTH",
"344 482 OFFCURVE",
"357 474 OFFCURVE",
"369 475 CURVE",
"377 477 OFFCURVE",
"382 478 OFFCURVE",
"389 478 CURVE SMOOTH",
"416 478 OFFCURVE",
"440 466 OFFCURVE",
"458 449 CURVE SMOOTH",
"475 432 OFFCURVE",
"486 408 OFFCURVE",
"486 381 CURVE SMOOTH",
"486 165 LINE SMOOTH",
"486 131 OFFCURVE",
"472 102 OFFCURVE",
"451 79 CURVE SMOOTH",
"428 58 OFFCURVE",
"399 44 OFFCURVE",
"365 44 CURVE SMOOTH"
);
},
{
closed = 1;
nodes = (
"808 85 OFFCURVE",
"823 123 OFFCURVE",
"823 165 CURVE SMOOTH",
"823 178 OFFCURVE",
"812 188 OFFCURVE",
"799 188 CURVE SMOOTH",
"785 188 OFFCURVE",
"775 178 OFFCURVE",
"775 165 CURVE SMOOTH",
"775 131 OFFCURVE",
"762 102 OFFCURVE",
"740 79 CURVE SMOOTH",
"717 58 OFFCURVE",
"688 44 OFFCURVE",
"655 44 CURVE SMOOTH",
"621 44 OFFCURVE",
"591 58 OFFCURVE",
"569 79 CURVE SMOOTH",
"547 102 OFFCURVE",
"534 131 OFFCURVE",
"534 165 CURVE SMOOTH",
"534 381 LINE SMOOTH",
"534 408 OFFCURVE",
"545 432 OFFCURVE",
"562 449 CURVE SMOOTH",
"580 466 OFFCURVE",
"604 478 OFFCURVE",
"631 478 CURVE SMOOTH",
"637 478 OFFCURVE",
"643 477 OFFCURVE",
"649 475 CURVE",
"663 474 OFFCURVE",
"675 482 OFFCURVE",
"678 494 CURVE",
"681 508 OFFCURVE",
"673 521 OFFCURVE",
"659 524 CURVE SMOOTH",
"649 525 OFFCURVE",
"640 526 OFFCURVE",
"631 526 CURVE SMOOTH",
"593 526 OFFCURVE",
"560 512 OFFCURVE",
"534 490 CURVE",
"534 815 LINE SMOOTH",
"534 842 OFFCURVE",
"545 866 OFFCURVE",
"562 883 CURVE SMOOTH",
"580 901 OFFCURVE",
"604 912 OFFCURVE",
"631 912 CURVE SMOOTH",
"657 912 OFFCURVE",
"682 901 OFFCURVE",
"699 883 CURVE SMOOTH",
"716 866 OFFCURVE",
"727 842 OFFCURVE",
"727 815 CURVE SMOOTH",
"727 809 OFFCURVE",
"726 802 OFFCURVE",
"725 796 CURVE SMOOTH",
"722 783 OFFCURVE",
"731 770 OFFCURVE",
"743 768 CURVE",
"744 768 OFFCURVE",
"745 768 OFFCURVE",
"746 768 CURVE",
"747 767 OFFCURVE",
"748 767 OFFCURVE",
"749 767 CURVE SMOOTH",
"759 767 OFFCURVE",
"769 775 OFFCURVE",
"772 787 CURVE SMOOTH",
"774 796 OFFCURVE",
"775 805 OFFCURVE",
"775 815 CURVE SMOOTH",
"775 817 OFFCURVE",
"775 820 OFFCURVE",
"775 821 CURVE",
"775 823 OFFCURVE",
"775 825 OFFCURVE",
"775 827 CURVE",
"804 800 OFFCURVE",
"823 761 OFFCURVE",
"823 719 CURVE SMOOTH",
"823 681 OFFCURVE",
"809 644 OFFCURVE",
"782 618 CURVE",
"777 612 OFFCURVE",
"775 607 OFFCURVE",
"775 601 CURVE SMOOTH",
"775 593 OFFCURVE",
"777 588 OFFCURVE",
"782 584 CURVE",
"787 579 OFFCURVE",
"793 577 OFFCURVE",
"799 577 CURVE SMOOTH",
"805 577 OFFCURVE",
"811 579 OFFCURVE",
"817 584 CURVE SMOOTH",
"843 610 OFFCURVE",
"860 643 OFFCURVE",
"867 678 CURVE",
"884 644 OFFCURVE",
"897 609 OFFCURVE",
"906 572 CURVE SMOOTH",
"915 535 OFFCURVE",
"919 498 OFFCURVE",
"919 458 CURVE",
"919 459 OFFCURVE",
"918 461 OFFCURVE",
"918 462 CURVE",
"917 463 OFFCURVE",
"916 464 OFFCURVE",
"916 465 CURVE",
"908 476 OFFCURVE",
"893 479 OFFCURVE",
"882 472 CURVE SMOOTH",
"871 465 OFFCURVE",
"868 449 OFFCURVE",
"875 439 CURVE SMOOTH",
"890 416 OFFCURVE",
"901 392 OFFCURVE",
"908 366 CURVE SMOOTH",
"916 340 OFFCURVE",
"919 313 OFFCURVE",
"919 285 CURVE SMOOTH",
"919 230 OFFCURVE",
"904 180 OFFCURVE",
"880 140 CURVE SMOOTH",
"856 100 OFFCURVE",
"821 69 OFFCURVE",
"782 54 CURVE"
);
},
{
closed = 1;
nodes = (
"326 623 OFFCURVE",
"293 655 OFFCURVE",
"293 694 CURVE SMOOTH",
"293 708 OFFCURVE",
"304 719 OFFCURVE",
"317 719 CURVE SMOOTH",
"330 719 OFFCURVE",
"341 708 OFFCURVE",
"341 694 CURVE SMOOTH",
"341 681 OFFCURVE",
"352 670 OFFCURVE",
"365 670 CURVE SMOOTH",
"378 670 OFFCURVE",
"389 660 OFFCURVE",
"389 646 CURVE SMOOTH",
"389 634 OFFCURVE",
"378 623 OFFCURVE",
"365 623 CURVE SMOOTH"
);
},
{
closed = 1;
nodes = (
"359 237 OFFCURVE",
"355 237 OFFCURVE",
"353 238 CURVE",
"341 243 OFFCURVE",
"335 256 OFFCURVE",
"338 269 CURVE",
"340 274 OFFCURVE",
"341 279 OFFCURVE",
"341 285 CURVE SMOOTH",
"341 312 OFFCURVE",
"319 333 OFFCURVE",
"293 333 CURVE SMOOTH",
"287 333 OFFCURVE",
"282 332 OFFCURVE",
"277 330 CURVE",
"264 327 OFFCURVE",
"251 332 OFFCURVE",
"246 346 CURVE",
"242 358 OFFCURVE",
"248 372 OFFCURVE",
"261 376 CURVE",
"271 380 OFFCURVE",
"282 381 OFFCURVE",
"293 381 CURVE SMOOTH",
"319 381 OFFCURVE",
"344 371 OFFCURVE",
"361 354 CURVE SMOOTH",
"378 336 OFFCURVE",
"389 312 OFFCURVE",
"389 285 CURVE SMOOTH",
"389 274 OFFCURVE",
"387 263 OFFCURVE",
"384 253 CURVE",
"380 243 OFFCURVE",
"371 237 OFFCURVE",
"361 237 CURVE SMOOTH"
);
}
);
width = 1024;
}
);
unicode = E007;
},
{
glyphname = cake;
lastChange = "2015-10-30 17:45:24 +0000";
layers = (
{
layerId = "177FC93B-1B38-4AFC-964F-9D8881365EE5";
name = Regular;
paths = (
{
closed = 1;
nodes = (
"927 536 OFFCURVE",
"909 566 OFFCURVE",
"889 591 CURVE SMOOTH",
"869 616 OFFCURVE",
"849 635 OFFCURVE",
"829 648 CURVE",
"821 654 OFFCURVE",
"813 655 OFFCURVE",
"805 650 CURVE SMOOTH",
"739 619 LINE",
"739 703 LINE SMOOTH",
"739 713 OFFCURVE",
"733 723 OFFCURVE",
"724 727 CURVE SMOOTH",
"673 752 LINE",
"670 754 OFFCURVE",
"666 755 OFFCURVE",
"661 755 CURVE SMOOTH",
"657 755 OFFCURVE",
"654 754 OFFCURVE",
"650 752 CURVE",
"599 727 LINE SMOOTH",
"590 723 OFFCURVE",
"585 713 OFFCURVE",
"585 703 CURVE SMOOTH",
"585 548 LINE",
"37 292 LINE",
"35 290 OFFCURVE",
"32 290 OFFCURVE",
"30 288 CURVE SMOOTH",
"29 288 OFFCURVE",
"29 288 OFFCURVE",
"28 287 CURVE SMOOTH",
"28 287 OFFCURVE",
"27 285 OFFCURVE",
"27 285 CURVE",
"27 285 OFFCURVE",
"27 285 OFFCURVE",
"27 285 CURVE SMOOTH",
"27 285 OFFCURVE",
"27 285 OFFCURVE",
"27 285 CURVE SMOOTH",
"27 285 OFFCURVE",
"27 285 OFFCURVE",
"27 285 CURVE SMOOTH",
"27 285 OFFCURVE",
"27 285 OFFCURVE",
"27 285 CURVE",
"24 281 OFFCURVE",
"22 274 OFFCURVE",
"22 268 CURVE SMOOTH",
"22 -38 LINE SMOOTH",
"22 -46 OFFCURVE",
"25 -52 OFFCURVE",
"29 -56 CURVE",
"33 -61 OFFCURVE",
"41 -64 OFFCURVE",
"47 -64 CURVE SMOOTH",
"47 -64 OFFCURVE",
"47 -64 OFFCURVE",
"49 -64 CURVE",
"49 -64 OFFCURVE",
"49 -64 OFFCURVE",
"49 -64 CURVE",
"970 -12 LINE SMOOTH",
"984 -12 OFFCURVE",
"995 -1 OFFCURVE",
"995 13 CURVE SMOOTH",
"995 320 LINE SMOOTH",
"995 346 OFFCURVE",
"989 376 OFFCURVE",
"981 408 CURVE SMOOTH",
"972 440 OFFCURVE",
"959 472 OFFCURVE",
"943 505 CURVE SMOOTH"
);
},
{
closed = 1;
nodes = (
"661 701 LINE",
"686 688 LINE",
"686 453 LINE",
"679 450 OFFCURVE",
"670 449 OFFCURVE",
"661 449 CURVE SMOOTH",
"654 449 OFFCURVE",
"644 450 OFFCURVE",
"637 453 CURVE",
"637 688 LINE"
);
},
{
closed = 1;
nodes = (
"585 435 LINE SMOOTH",
"585 425 OFFCURVE",
"590 417 OFFCURVE",
"599 412 CURVE",
"600 412 OFFCURVE",
"608 409 OFFCURVE",
"620 404 CURVE",
"632 399 OFFCURVE",
"646 397 OFFCURVE",
"661 397 CURVE SMOOTH",
"678 397 OFFCURVE",
"692 399 OFFCURVE",
"704 404 CURVE SMOOTH",
"728 414 OFFCURVE",
"729 414 OFFCURVE",
"734 422 CURVE",
"737 425 OFFCURVE",
"739 430 OFFCURVE",
"739 435 CURVE SMOOTH",
"739 563 LINE",
"813 597 LINE",
"842 574 OFFCURVE",
"873 531 OFFCURVE",
"898 481 CURVE SMOOTH",
"922 435 OFFCURVE",
"937 385 OFFCURVE",
"941 345 CURVE",
"178 302 LINE",
"585 491 LINE"
);
},
{
closed = 1;
nodes = (
"943 139 LINE",
"73 91 LINE",
"73 245 LINE",
"943 292 LINE"
);
},
{
closed = 1;
nodes = (
"73 40 LINE",
"943 88 LINE",
"943 36 LINE",
"73 -12 LINE"
);
},
{
closed = 1;
nodes = (
"622 755 OFFCURVE",
"585 792 OFFCURVE",
"585 832 CURVE SMOOTH",
"585 854 OFFCURVE",
"597 875 OFFCURVE",
"612 900 CURVE SMOOTH",
"620 911 OFFCURVE",
"629 928 OFFCURVE",
"638 946 CURVE SMOOTH",
"643 955 OFFCURVE",
"652 960 OFFCURVE",
"661 960 CURVE SMOOTH",
"671 960 OFFCURVE",
"680 955 OFFCURVE",
"685 946 CURVE SMOOTH",
"694 928 OFFCURVE",
"702 911 OFFCURVE",
"711 900 CURVE SMOOTH",
"726 875 OFFCURVE",
"739 854 OFFCURVE",
"739 832 CURVE SMOOTH",
"739 792 OFFCURVE",
"701 755 OFFCURVE",
"661 755 CURVE SMOOTH"
);
},
{
closed = 1;
nodes = (
"659 878 OFFCURVE",
"657 875 OFFCURVE",
"655 872 CURVE",
"644 854 OFFCURVE",
"637 840 OFFCURVE",
"637 832 CURVE SMOOTH",
"637 820 OFFCURVE",
"650 807 OFFCURVE",
"661 807 CURVE SMOOTH",
"673 807 OFFCURVE",
"686 820 OFFCURVE",
"686 832 CURVE SMOOTH",
"686 840 OFFCURVE",
"679 854 OFFCURVE",
"668 872 CURVE",
"666 875 OFFCURVE",
"664 878 OFFCURVE",
"661 882 CURVE"
);
}
);
width = 1024;
}
);
unicode = E015;
},
{
glyphname = codereview;
lastChange = "2015-10-30 16:21:21 +0000";
layers = (
{
layerId = "177FC93B-1B38-4AFC-964F-9D8881365EE5";
name = Regular;
paths = (
{
closed = 1;
nodes = (
"249 340 OFFCURVE",
"244 342 OFFCURVE",
"240 346 CURVE",
"82 503 LINE SMOOTH",
"78 507 OFFCURVE",
"77 512 OFFCURVE",
"77 518 CURVE SMOOTH",
"77 523 OFFCURVE",
"78 527 OFFCURVE",
"82 531 CURVE SMOOTH",
"240 688 LINE SMOOTH",
"244 692 OFFCURVE",
"249 695 OFFCURVE",
"254 695 CURVE SMOOTH",
"265 695 OFFCURVE",
"274 687 OFFCURVE",
"274 675 CURVE SMOOTH",
"274 670 OFFCURVE",
"272 665 OFFCURVE",
"268 661 CURVE SMOOTH",
"123 517 LINE",
"268 374 LINE SMOOTH",
"272 370 OFFCURVE",
"274 365 OFFCURVE",
"274 360 CURVE SMOOTH",
"274 355 OFFCURVE",
"272 349 OFFCURVE",
"268 346 CURVE",
"263 342 OFFCURVE",
"259 340 OFFCURVE",
"254 340 CURVE SMOOTH"
);
},
{
closed = 1;
nodes = (
"642 340 OFFCURVE",
"638 342 OFFCURVE",
"634 346 CURVE",
"630 349 OFFCURVE",
"628 355 OFFCURVE",
"628 360 CURVE SMOOTH",
"628 365 OFFCURVE",
"630 370 OFFCURVE",
"634 374 CURVE SMOOTH",
"778 517 LINE",
"634 661 LINE SMOOTH",
"630 665 OFFCURVE",
"628 670 OFFCURVE",
"628 675 CURVE SMOOTH",
"628 687 OFFCURVE",
"636 695 OFFCURVE",
"648 695 CURVE SMOOTH",
"654 695 OFFCURVE",
"658 692 OFFCURVE",
"662 688 CURVE SMOOTH",
"819 531 LINE SMOOTH",
"823 527 OFFCURVE",
"825 523 OFFCURVE",
"825 518 CURVE SMOOTH",
"825 512 OFFCURVE",
"823 507 OFFCURVE",
"819 503 CURVE SMOOTH",
"662 346 LINE",
"658 342 OFFCURVE",
"654 340 OFFCURVE",
"648 340 CURVE SMOOTH"
);
},
{
closed = 1;
nodes = (
"350 340 OFFCURVE",
"346 341 OFFCURVE",
"341 343 CURVE SMOOTH",
"332 348 OFFCURVE",
"330 360 OFFCURVE",
"336 370 CURVE SMOOTH",
"532 686 LINE SMOOTH",
"539 695 OFFCURVE",
"551 697 OFFCURVE",
"560 692 CURVE",
"569 686 OFFCURVE",
"572 674 OFFCURVE",
"566 664 CURVE SMOOTH",
"369 349 LINE SMOOTH",
"365 343 OFFCURVE",
"359 340 OFFCURVE",
"352 340 CURVE SMOOTH"
);
},
{
closed = 1;
nodes = (
"779 199 LINE",
"859 282 OFFCURVE",
"904 393 OFFCURVE",
"904 510 CURVE SMOOTH",
"904 632 OFFCURVE",
"857 743 OFFCURVE",
"772 828 CURVE SMOOTH",
"687 914 OFFCURVE",
"573 960 OFFCURVE",
"452 960 CURVE SMOOTH",
"333 960 OFFCURVE",
"219 914 OFFCURVE",
"133 828 CURVE SMOOTH",
"50 743 OFFCURVE",
"2 632 OFFCURVE",
"2 510 CURVE SMOOTH",
"2 389 OFFCURVE",
"50 276 OFFCURVE",
"133 191 CURVE SMOOTH",
"219 106 OFFCURVE",
"333 60 OFFCURVE",
"452 60 CURVE SMOOTH",
"556 60 OFFCURVE",
"655 94 OFFCURVE",
"735 159 CURVE",
"954 -39 LINE",
"959 -46 OFFCURVE",
"968 -49 OFFCURVE",
"977 -49 CURVE SMOOTH",
"986 -49 OFFCURVE",
"991 -47 OFFCURVE",
"996 -41 CURVE",
"1009 -31 OFFCURVE",
"1009 -11 OFFCURVE",
"998 2 CURVE"
);
},
{
closed = 1;
nodes = (
"61 618 OFFCURVE",
"107 714 OFFCURVE",
"177 785 CURVE SMOOTH",
"247 855 OFFCURVE",
"344 901 OFFCURVE",
"452 901 CURVE SMOOTH",
"561 901 OFFCURVE",
"658 855 OFFCURVE",
"728 785 CURVE SMOOTH",
"799 714 OFFCURVE",
"843 618 OFFCURVE",
"843 510 CURVE SMOOTH",
"843 403 OFFCURVE",
"799 305 OFFCURVE",
"728 235 CURVE SMOOTH",
"658 164 OFFCURVE",
"561 119 OFFCURVE",
"452 119 CURVE SMOOTH",
"344 119 OFFCURVE",
"247 164 OFFCURVE",
"177 235 CURVE SMOOTH",
"107 305 OFFCURVE",
"61 403 OFFCURVE",
"61 510 CURVE SMOOTH"
);
}
);
width = 1024;
}
);
unicode = E009;
},
{
glyphname = coins;
lastChange = "2015-10-07 17:17:38 +0000";
layers = (
{
layerId = "177FC93B-1B38-4AFC-964F-9D8881365EE5";
name = Regular;
paths = (
{
closed = 1;
nodes = (
"69 3 LINE SMOOTH",
"54 3 OFFCURVE",
"38 19 OFFCURVE",
"38 37 CURVE SMOOTH",
"38 82 LINE SMOOTH",
"38 99 OFFCURVE",
"53 114 OFFCURVE",
"69 114 CURVE SMOOTH",
"722 114 LINE",
"724 112 LINE SMOOTH",
"784 55 OFFCURVE",
"859 36 OFFCURVE",
"859 36 CURVE SMOOTH",
"877 29 LINE",
"864 15 LINE SMOOTH",
"859 10 OFFCURVE",
"851 3 OFFCURVE",
"840 3 CURVE SMOOTH"
);
},
{
closed = 1;
nodes = (
"64 94 OFFCURVE",
"60 87 OFFCURVE",
"60 82 CURVE SMOOTH",
"60 37 LINE SMOOTH",
"60 29 OFFCURVE",
"67 24 OFFCURVE",
"69 24 CURVE SMOOTH",
"824 24 LINE",
"795 36 OFFCURVE",
"752 58 OFFCURVE",
"711 94 CURVE",
"69 94 LINE SMOOTH"
);
},
{
closed = 1;
nodes = (
"74 126 LINE SMOOTH",
"59 126 OFFCURVE",
"44 142 OFFCURVE",
"44 159 CURVE SMOOTH",
"44 203 LINE SMOOTH",
"44 222 OFFCURVE",
"58 237 OFFCURVE",
"74 237 CURVE SMOOTH",
"643 237 LINE",
"646 231 LINE SMOOTH",
"663 183 OFFCURVE",
"695 144 OFFCURVE",
"695 142 CURVE SMOOTH",
"709 126 LINE"
);
},
{
closed = 1;
nodes = (
"70 215 OFFCURVE",
"65 210 OFFCURVE",
"65 203 CURVE SMOOTH",
"65 159 LINE SMOOTH",
"65 153 OFFCURVE",
"72 146 OFFCURVE",
"74 146 CURVE SMOOTH",
"666 146 LINE",
"655 163 OFFCURVE",
"640 187 OFFCURVE",
"627 215 CURVE",
"74 215 LINE SMOOTH"
);
},
{
closed = 1;
nodes = (
"95 245 LINE SMOOTH",
"77 245 OFFCURVE",
"64 259 OFFCURVE",
"64 278 CURVE SMOOTH",
"64 323 LINE SMOOTH",
"64 342 OFFCURVE",
"77 356 OFFCURVE",
"95 356 CURVE SMOOTH",
"625 356 LINE",
"625 345 LINE SMOOTH",
"623 297 OFFCURVE",
"637 259 OFFCURVE",
"637 259 CURVE SMOOTH",
"642 245 LINE"
);
},
{
closed = 1;
nodes = (
"88 336 OFFCURVE",
"85 331 OFFCURVE",
"85 323 CURVE SMOOTH",
"85 278 LINE SMOOTH",
"85 270 OFFCURVE",
"88 267 OFFCURVE",
"95 267 CURVE SMOOTH",
"611 267 LINE",
"609 281 OFFCURVE",
"604 306 OFFCURVE",
"604 336 CURVE",
"95 336 LINE SMOOTH"
);
},
{
closed = 1;
nodes = (
"55 364 LINE SMOOTH",
"38 364 OFFCURVE",
"24 379 OFFCURVE",
"24 399 CURVE SMOOTH",
"24 442 LINE SMOOTH",
"24 463 OFFCURVE",
"40 477 OFFCURVE",
"55 477 CURVE SMOOTH",
"649 477 LINE",
"645 461 LINE SMOOTH",
"643 461 OFFCURVE",
"628 414 OFFCURVE",
"625 374 CURVE SMOOTH",
"625 364 LINE"
);
},
{
closed = 1;
nodes = (
"51 455 OFFCURVE",
"45 450 OFFCURVE",
"45 442 CURVE SMOOTH",
"45 399 LINE SMOOTH",
"45 392 OFFCURVE",
"50 387 OFFCURVE",
"55 387 CURVE SMOOTH",
"606 387 LINE",
"609 411 OFFCURVE",
"615 438 OFFCURVE",
"619 455 CURVE",
"55 455 LINE SMOOTH"
);
},
{
closed = 1;
nodes = (
"92 487 LINE SMOOTH",
"79 487 OFFCURVE",
"42 487 OFFCURVE",
"42 519 CURVE SMOOTH",
"42 565 LINE SMOOTH",
"42 582 OFFCURVE",
"58 599 OFFCURVE",
"72 599 CURVE SMOOTH",
"733 599 LINE",
"713 581 LINE SMOOTH",
"713 579 OFFCURVE",
"675 543 OFFCURVE",
"656 493 CURVE SMOOTH",
"654 487 LINE"
);
},
{
closed = 1;
nodes = (
"72 577 LINE SMOOTH",
"69 577 OFFCURVE",
"63 572 OFFCURVE",
"63 565 CURVE SMOOTH",
"63 519 LINE SMOOTH",
"63 517 OFFCURVE",
"63 508 OFFCURVE",
"92 508 CURVE SMOOTH",
"640 508 LINE",
"651 537 OFFCURVE",
"669 563 OFFCURVE",
"681 577 CURVE"
);
},
{
closed = 1;
nodes = (
"55 606 LINE SMOOTH",
"37 606 OFFCURVE",
"24 620 OFFCURVE",
"24 640 CURVE SMOOTH",
"24 684 LINE SMOOTH",
"24 704 OFFCURVE",
"40 718 OFFCURVE",
"55 718 CURVE SMOOTH",
"825 718 LINE SMOOTH",
"842 718 OFFCURVE",
"856 704 OFFCURVE",
"856 684 CURVE SMOOTH",
"856 660 LINE",
"848 658 LINE SMOOTH",
"847 658 OFFCURVE",
"784 640 OFFCURVE",
"746 609 CURVE SMOOTH",
"743 606 LINE"
);
},
{
closed = 1;
nodes = (
"51 696 OFFCURVE",
"45 692 OFFCURVE",
"45 684 CURVE SMOOTH",
"45 640 LINE SMOOTH",
"45 632 OFFCURVE",
"49 627 OFFCURVE",
"55 627 CURVE SMOOTH",
"736 627 LINE",
"769 655 OFFCURVE",
"816 670 OFFCURVE",
"834 675 CURVE",
"834 684 LINE SMOOTH",
"834 692 OFFCURVE",
"831 696 OFFCURVE",
"825 696 CURVE SMOOTH",
"55 696 LINE SMOOTH"
);
},
{
closed = 1;
nodes = (
"32 725 LINE SMOOTH",
"15 725 OFFCURVE",
"0 741 OFFCURVE",
"0 760 CURVE SMOOTH",
"0 804 LINE SMOOTH",
"0 823 OFFCURVE",
"15 838 OFFCURVE",
"32 838 CURVE SMOOTH",
"801 838 LINE SMOOTH",
"820 838 OFFCURVE",
"833 823 OFFCURVE",
"833 804 CURVE SMOOTH",
"833 760 LINE SMOOTH",
"833 742 OFFCURVE",
"819 725 OFFCURVE",
"801 725 CURVE SMOOTH"
);
},
{
closed = 1;
nodes = (
"27 815 OFFCURVE",
"23 811 OFFCURVE",
"23 804 CURVE SMOOTH",
"23 760 LINE SMOOTH",
"23 752 OFFCURVE",
"27 747 OFFCURVE",
"32 747 CURVE SMOOTH",
"801 747 LINE SMOOTH",
"806 747 OFFCURVE",
"813 754 OFFCURVE",
"813 760 CURVE SMOOTH",
"813 804 LINE SMOOTH",
"813 811 OFFCURVE",
"809 815 OFFCURVE",
"801 815 CURVE SMOOTH",
"32 815 LINE SMOOTH"
);
},
{
closed = 1;
nodes = (
"53 848 LINE SMOOTH",
"35 848 OFFCURVE",
"22 863 OFFCURVE",
"22 881 CURVE SMOOTH",
"22 927 LINE SMOOTH",
"22 946 OFFCURVE",
"35 960 OFFCURVE",
"53 960 CURVE SMOOTH",
"823 960 LINE SMOOTH",
"841 960 OFFCURVE",
"854 946 OFFCURVE",
"854 927 CURVE SMOOTH",
"854 881 LINE SMOOTH",
"854 863 OFFCURVE",
"841 848 OFFCURVE",
"823 848 CURVE SMOOTH"
);
},
{
closed = 1;
nodes = (
"46 938 OFFCURVE",
"42 934 OFFCURVE",
"42 927 CURVE SMOOTH",
"42 881 LINE SMOOTH",
"42 874 OFFCURVE",
"46 869 OFFCURVE",
"53 869 CURVE SMOOTH",
"823 869 LINE SMOOTH",
"828 869 OFFCURVE",
"832 874 OFFCURVE",
"832 881 CURVE SMOOTH",
"832 927 LINE SMOOTH",
"832 934 OFFCURVE",
"828 938 OFFCURVE",
"823 938 CURVE SMOOTH",
"53 938 LINE SMOOTH"
);
},
{
closed = 1;
nodes = (
"855 0 OFFCURVE",
"766 38 OFFCURVE",
"701 104 CURVE SMOOTH",
"637 169 OFFCURVE",
"602 255 OFFCURVE",
"604 346 CURVE SMOOTH",
"605 451 OFFCURVE",
"641 540 OFFCURVE",
"705 602 CURVE SMOOTH",
"766 661 OFFCURVE",
"851 692 OFFCURVE",
"948 691 CURVE SMOOTH",
"1041 690 OFFCURVE",
"1128 654 OFFCURVE",
"1193 590 CURVE SMOOTH",
"1259 524 OFFCURVE",
"1295 437 OFFCURVE",
"1295 346 CURVE SMOOTH",
"1295 155 OFFCURVE",
"1139 0 OFFCURVE",
"948 0 CURVE SMOOTH"
);
},
{
closed = 1;
nodes = (
"854 670 OFFCURVE",
"777 641 OFFCURVE",
"720 587 CURVE SMOOTH",
"660 529 OFFCURVE",
"627 446 OFFCURVE",
"625 346 CURVE SMOOTH",
"623 261 OFFCURVE",
"656 181 OFFCURVE",
"715 120 CURVE SMOOTH",
"778 58 OFFCURVE",
"860 22 OFFCURVE",
"948 22 CURVE SMOOTH",
"1128 22 OFFCURVE",
"1273 168 OFFCURVE",
"1273 346 CURVE SMOOTH",
"1273 432 OFFCURVE",
"1238 513 OFFCURVE",
"1178 574 CURVE SMOOTH",
"1116 634 OFFCURVE",
"1036 669 OFFCURVE",
"948 670 CURVE SMOOTH",
"947 670 OFFCURVE",
"946 670 OFFCURVE",
"943 670 CURVE SMOOTH"
);
},
{
closed = 1;
nodes = (
"799 73 OFFCURVE",
"677 195 OFFCURVE",
"677 346 CURVE SMOOTH",
"677 496 OFFCURVE",
"799 618 OFFCURVE",
"948 618 CURVE SMOOTH",
"1100 618 OFFCURVE",
"1221 496 OFFCURVE",
"1221 346 CURVE SMOOTH",
"1221 195 OFFCURVE",
"1100 73 OFFCURVE",
"948 73 CURVE SMOOTH"
);
},
{
closed = 1;
nodes = (
"811 597 OFFCURVE",
"697 484 OFFCURVE",
"697 346 CURVE SMOOTH",
"697 206 OFFCURVE",
"811 95 OFFCURVE",
"948 95 CURVE SMOOTH",
"1088 95 OFFCURVE",
"1201 206 OFFCURVE",
"1201 346 CURVE SMOOTH",
"1201 484 OFFCURVE",
"1088 597 OFFCURVE",
"948 597 CURVE SMOOTH"
);
}
);
width = 1300;
}
);
unicode = E003;
},
{
glyphname = email;
lastChange = "2015-11-02 12:39:29 +0000";
layers = (
{
layerId = "177FC93B-1B38-4AFC-964F-9D8881365EE5";
name = Regular;
paths = (
{
closed = 1;
nodes = (
"826 858 OFFCURVE",
"770 896 OFFCURVE",
"708 921 CURVE SMOOTH",
"647 947 OFFCURVE",
"581 960 OFFCURVE",
"512 960 CURVE SMOOTH",
"444 960 OFFCURVE",
"378 947 OFFCURVE",
"316 921 CURVE SMOOTH",
"255 896 OFFCURVE",
"198 858 OFFCURVE",
"150 810 CURVE SMOOTH",
"102 762 OFFCURVE",
"65 706 OFFCURVE",
"39 644 CURVE SMOOTH",
"13 583 OFFCURVE",
"0 516 OFFCURVE",
"0 448 CURVE SMOOTH",
"0 380 OFFCURVE",
"13 314 OFFCURVE",
"39 252 CURVE SMOOTH",
"65 191 OFFCURVE",
"102 134 OFFCURVE",
"150 86 CURVE SMOOTH",
"198 38 OFFCURVE",
"255 0 OFFCURVE",
"316 -25 CURVE SMOOTH",
"378 -51 OFFCURVE",
"444 -64 OFFCURVE",
"512 -64 CURVE SMOOTH",
"552 -64 OFFCURVE",
"592 -59 OFFCURVE",
"630 -50 CURVE SMOOTH",
"668 -41 OFFCURVE",
"705 -28 OFFCURVE",
"741 -10 CURVE SMOOTH",
"775 7 OFFCURVE",
"807 28 OFFCURVE",
"837 52 CURVE SMOOTH",
"866 76 OFFCURVE",
"893 104 OFFCURVE",
"916 134 CURVE SMOOTH",
"925 145 OFFCURVE",
"923 161 OFFCURVE",
"912 170 CURVE",
"901 178 OFFCURVE",
"885 177 OFFCURVE",
"876 165 CURVE SMOOTH",
"832 109 OFFCURVE",
"777 64 OFFCURVE",
"715 34 CURVE SMOOTH",
"653 4 OFFCURVE",
"584 -13 OFFCURVE",
"512 -13 CURVE SMOOTH",
"385 -13 OFFCURVE",
"270 39 OFFCURVE",
"187 122 CURVE SMOOTH",
"103 206 OFFCURVE",
"51 321 OFFCURVE",
"51 448 CURVE SMOOTH",
"51 575 OFFCURVE",
"103 690 OFFCURVE",
"187 774 CURVE SMOOTH",
"270 857 OFFCURVE",
"385 909 OFFCURVE",
"512 909 CURVE SMOOTH",
"640 909 OFFCURVE",
"754 857 OFFCURVE",
"838 774 CURVE SMOOTH",
"922 690 OFFCURVE",
"973 575 OFFCURVE",
"973 448 CURVE SMOOTH",
"973 403 OFFCURVE",
"960 365 OFFCURVE",
"937 338 CURVE SMOOTH",
"915 311 OFFCURVE",
"883 294 OFFCURVE",
"845 294 CURVE SMOOTH",
"810 294 OFFCURVE",
"778 309 OFFCURVE",
"755 332 CURVE SMOOTH",
"732 355 OFFCURVE",
"717 387 OFFCURVE",
"717 422 CURVE SMOOTH",
"717 627 LINE SMOOTH",
"717 641 OFFCURVE",
"706 653 OFFCURVE",
"691 653 CURVE SMOOTH",
"677 653 OFFCURVE",
"666 641 OFFCURVE",
"666 627 CURVE SMOOTH",
"666 583 LINE",
"647 605 OFFCURVE",
"624 622 OFFCURVE",
"598 634 CURVE SMOOTH",
"572 646 OFFCURVE",
"543 653 OFFCURVE",
"512 653 CURVE SMOOTH",
"456 653 OFFCURVE",
"405 630 OFFCURVE",
"368 593 CURVE SMOOTH",
"331 555 OFFCURVE",
"307 504 OFFCURVE",
"307 448 CURVE SMOOTH",
"307 392 OFFCURVE",
"331 341 OFFCURVE",
"368 303 CURVE SMOOTH",
"405 266 OFFCURVE",
"456 243 OFFCURVE",
"512 243 CURVE SMOOTH",
"549 243 OFFCURVE",
"583 253 OFFCURVE",
"613 270 CURVE SMOOTH",
"643 286 OFFCURVE",
"668 311 OFFCURVE",
"686 340 CURVE",
"701 311 OFFCURVE",
"723 287 OFFCURVE",
"751 270 CURVE SMOOTH",
"778 253 OFFCURVE",
"811 243 OFFCURVE",
"845 243 CURVE SMOOTH",
"895 243 OFFCURVE",
"940 264 OFFCURVE",
"973 300 CURVE SMOOTH",
"1007 338 OFFCURVE",
"1024 389 OFFCURVE",
"1024 448 CURVE SMOOTH",
"1024 516 OFFCURVE",
"1011 583 OFFCURVE",
"986 644 CURVE SMOOTH",
"960 706 OFFCURVE",
"923 762 OFFCURVE",
"874 810 CURVE SMOOTH"
);
},
{
closed = 1;
nodes = (
"470 294 OFFCURVE",
"432 312 OFFCURVE",
"404 340 CURVE SMOOTH",
"376 367 OFFCURVE",
"359 406 OFFCURVE",
"359 448 CURVE SMOOTH",
"359 490 OFFCURVE",
"376 529 OFFCURVE",
"404 557 CURVE SMOOTH",
"432 584 OFFCURVE",
"470 602 OFFCURVE",
"512 602 CURVE SMOOTH",
"555 602 OFFCURVE",
"593 584 OFFCURVE",
"621 557 CURVE SMOOTH",
"649 529 OFFCURVE",
"666 490 OFFCURVE",
"666 448 CURVE SMOOTH",
"666 406 OFFCURVE",
"649 367 OFFCURVE",
"621 340 CURVE SMOOTH",
"593 312 OFFCURVE",
"555 294 OFFCURVE",
"512 294 CURVE SMOOTH"
);
}
);
width = 1024;
}
);
unicode = E017;
},
{
glyphname = flypaper;
lastChange = "2015-11-02 15:44:40 +0000";
layers = (
{
layerId = "177FC93B-1B38-4AFC-964F-9D8881365EE5";
name = Regular;
paths = (
{
closed = 1;
nodes = (
"1007 919 OFFCURVE",
"997 921 OFFCURVE",
"987 917 CURVE SMOOTH",
"16 509 LINE SMOOTH",
"6 505 OFFCURVE",
"0 495 OFFCURVE",
"0 484 CURVE SMOOTH",
"1 474 OFFCURVE",
"8 464 OFFCURVE",
"18 461 CURVE SMOOTH",
"307 364 LINE",
"307 77 LINE SMOOTH",
"307 65 OFFCURVE",
"314 56 OFFCURVE",
"324 52 CURVE",
"325 52 OFFCURVE",
"327 52 OFFCURVE",
"328 51 CURVE SMOOTH",
"330 51 OFFCURVE",
"331 51 OFFCURVE",
"333 51 CURVE SMOOTH",
"340 51 OFFCURVE",
"348 54 OFFCURVE",
"352 60 CURVE",
"494 234 LINE",
"724 7 LINE SMOOTH",
"728 3 OFFCURVE",
"735 0 OFFCURVE",
"742 0 CURVE SMOOTH",
"744 0 OFFCURVE",
"746 0 OFFCURVE",
"748 1 CURVE SMOOTH",
"757 3 OFFCURVE",
"764 10 OFFCURVE",
"766 18 CURVE SMOOTH",
"1022 887 LINE SMOOTH",
"1024 896 OFFCURVE",
"1022 906 OFFCURVE",
"1014 913 CURVE SMOOTH"
);
},
{
closed = 1;
nodes = (
"328 411 LINE",
"98 488 LINE",
"825 794 LINE"
);
},
{
closed = 1;
nodes = (
"839 740 LINE",
"472 288 LINE",
"472 288 OFFCURVE",
"472 288 OFFCURVE",
"472 288 CURVE SMOOTH",
"472 288 OFFCURVE",
"472 288 OFFCURVE",
"472 288 CURVE",
"358 148 LINE",
"358 370 LINE"
);
},
{
closed = 1;
nodes = (
"526 274 LINE",
"937 779 LINE",
"729 74 LINE"
);
}
);
width = 1024;
}
);
unicode = E020;
},
{
glyphname = friends;
lastChange = "2015-10-30 17:38:44 +0000";
layers = (
{
layerId = "177FC93B-1B38-4AFC-964F-9D8881365EE5";
name = Regular;
paths = (
{
closed = 1;
nodes = (
"283 671 OFFCURVE",
"254 684 OFFCURVE",
"231 706 CURVE SMOOTH",
"210 728 OFFCURVE",
"196 758 OFFCURVE",
"196 791 CURVE SMOOTH",
"196 825 OFFCURVE",
"210 854 OFFCURVE",
"231 877 CURVE SMOOTH",
"254 898 OFFCURVE",
"283 912 OFFCURVE",
"317 912 CURVE SMOOTH",
"349 912 OFFCURVE",
"379 898 OFFCURVE",
"401 877 CURVE SMOOTH",
"424 854 OFFCURVE",
"436 825 OFFCURVE",
"436 791 CURVE SMOOTH",
"436 758 OFFCURVE",
"424 728 OFFCURVE",
"401 706 CURVE SMOOTH",
"379 684 OFFCURVE",
"349 671 OFFCURVE",
"317 671 CURVE SMOOTH"
);
},
{
closed = 1;
nodes = (
"277 864 OFFCURVE",
"245 831 OFFCURVE",
"245 791 CURVE SMOOTH",
"245 752 OFFCURVE",
"277 719 OFFCURVE",
"317 719 CURVE SMOOTH",
"357 719 OFFCURVE",
"388 752 OFFCURVE",
"388 791 CURVE SMOOTH",
"388 831 OFFCURVE",
"357 864 OFFCURVE",
"317 864 CURVE SMOOTH"
);
},
{
closed = 1;
nodes = (
"172 430 LINE SMOOTH",
"151 430 OFFCURVE",
"134 439 OFFCURVE",
"123 454 CURVE SMOOTH",
"112 469 OFFCURVE",
"110 488 OFFCURVE",
"116 508 CURVE SMOOTH",
"117 509 OFFCURVE",
"120 516 OFFCURVE",
"126 528 CURVE SMOOTH",
"138 552 OFFCURVE",
"162 573 OFFCURVE",
"182 587 CURVE SMOOTH",
"202 599 OFFCURVE",
"227 611 OFFCURVE",
"261 618 CURVE SMOOTH",
"277 621 OFFCURVE",
"296 623 OFFCURVE",
"317 623 CURVE SMOOTH",
"335 623 OFFCURVE",
"352 622 OFFCURVE",
"369 619 CURVE",
"382 616 OFFCURVE",
"391 603 OFFCURVE",
"388 591 CURVE SMOOTH",
"386 578 OFFCURVE",
"373 569 OFFCURVE",
"361 571 CURVE",
"347 573 OFFCURVE",
"332 575 OFFCURVE",
"317 575 CURVE SMOOTH",
"254 575 OFFCURVE",
"215 555 OFFCURVE",
"192 534 CURVE SMOOTH",
"181 524 OFFCURVE",
"173 515 OFFCURVE",
"169 506 CURVE SMOOTH",
"165 497 OFFCURVE",
"162 493 OFFCURVE",
"162 492 CURVE",
"162 490 OFFCURVE",
"161 488 OFFCURVE",
"161 486 CURVE SMOOTH",
"161 483 OFFCURVE",
"162 480 OFFCURVE",
"166 480 CURVE",
"167 480 OFFCURVE",
"170 479 OFFCURVE",
"172 479 CURVE SMOOTH",
"365 479 LINE SMOOTH",
"378 479 OFFCURVE",
"388 468 OFFCURVE",
"388 454 CURVE SMOOTH",
"388 441 OFFCURVE",
"378 430 OFFCURVE",
"365 430 CURVE SMOOTH"
);
},
{
closed = 1;
nodes = (
"124 623 LINE SMOOTH",
"111 623 OFFCURVE",
"99 634 OFFCURVE",
"99 647 CURVE SMOOTH",
"99 936 LINE SMOOTH",
"99 949 OFFCURVE",
"111 960 OFFCURVE",
"124 960 CURVE SMOOTH",
"172 960 LINE SMOOTH",
"186 960 OFFCURVE",
"196 949 OFFCURVE",
"196 936 CURVE SMOOTH",
"196 922 OFFCURVE",
"186 912 OFFCURVE",
"172 912 CURVE SMOOTH",
"148 912 LINE",
"148 671 LINE",
"172 671 LINE SMOOTH",
"186 671 OFFCURVE",
"196 660 OFFCURVE",
"196 647 CURVE SMOOTH",
"196 634 OFFCURVE",
"186 623 OFFCURVE",
"172 623 CURVE SMOOTH"
);
},
{
closed = 1;
nodes = (
"460 623 LINE SMOOTH",
"448 623 OFFCURVE",
"436 634 OFFCURVE",
"436 647 CURVE SMOOTH",
"436 660 OFFCURVE",
"448 671 OFFCURVE",
"460 671 CURVE SMOOTH",
"485 671 LINE",
"485 912 LINE",
"460 912 LINE SMOOTH",
"448 912 OFFCURVE",
"436 922 OFFCURVE",
"436 936 CURVE SMOOTH",
"436 949 OFFCURVE",
"448 960 OFFCURVE",
"460 960 CURVE SMOOTH",
"509 960 LINE SMOOTH",
"522 960 OFFCURVE",
"533 949 OFFCURVE",
"533 936 CURVE SMOOTH",
"533 647 LINE SMOOTH",
"533 634 OFFCURVE",
"522 623 OFFCURVE",
"509 623 CURVE SMOOTH"
);
},
{
closed = 1;
nodes = (
"638 238 OFFCURVE",
"602 254 OFFCURVE",
"575 281 CURVE SMOOTH",
"549 306 OFFCURVE",
"533 342 OFFCURVE",
"533 382 CURVE SMOOTH",
"533 422 OFFCURVE",
"549 458 OFFCURVE",
"575 484 CURVE SMOOTH",
"602 511 OFFCURVE",
"638 527 OFFCURVE",
"677 527 CURVE SMOOTH",
"717 527 OFFCURVE",
"753 511 OFFCURVE",
"780 484 CURVE SMOOTH",
"805 458 OFFCURVE",
"821 422 OFFCURVE",
"821 382 CURVE SMOOTH",
"821 342 OFFCURVE",
"805 306 OFFCURVE",
"780 281 CURVE SMOOTH",
"753 254 OFFCURVE",
"717 238 OFFCURVE",
"677 238 CURVE SMOOTH"
);
},
{
closed = 1;
nodes = (
"650 479 OFFCURVE",
"626 468 OFFCURVE",
"610 451 CURVE SMOOTH",
"592 433 OFFCURVE",
"581 409 OFFCURVE",
"581 382 CURVE SMOOTH",
"581 356 OFFCURVE",
"592 332 OFFCURVE",
"610 314 CURVE SMOOTH",
"626 297 OFFCURVE",
"650 286 OFFCURVE",
"677 286 CURVE SMOOTH",
"704 286 OFFCURVE",
"728 297 OFFCURVE",
"745 314 CURVE SMOOTH",
"762 332 OFFCURVE",
"773 356 OFFCURVE",
"773 382 CURVE SMOOTH",
"773 409 OFFCURVE",
"762 433 OFFCURVE",
"745 451 CURVE SMOOTH",
"728 468 OFFCURVE",
"704 479 OFFCURVE",
"677 479 CURVE SMOOTH"
);
},
{
closed = 1;
nodes = (
"846 190 LINE SMOOTH",
"832 190 OFFCURVE",
"821 201 OFFCURVE",
"821 214 CURVE SMOOTH",
"821 227 OFFCURVE",
"832 238 OFFCURVE",
"846 238 CURVE SMOOTH",
"870 238 LINE",
"870 527 LINE",
"846 527 LINE SMOOTH",
"832 527 OFFCURVE",
"821 538 OFFCURVE",
"821 551 CURVE SMOOTH",
"821 563 OFFCURVE",
"832 575 OFFCURVE",
"846 575 CURVE SMOOTH",
"894 575 LINE SMOOTH",
"907 575 OFFCURVE",
"918 563 OFFCURVE",
"918 551 CURVE SMOOTH",
"918 214 LINE SMOOTH",
"918 201 OFFCURVE",
"907 190 OFFCURVE",
"894 190 CURVE SMOOTH"
);
},
{
closed = 1;
nodes = (
"460 190 LINE SMOOTH",
"448 190 OFFCURVE",
"436 201 OFFCURVE",
"436 214 CURVE SMOOTH",
"436 551 LINE SMOOTH",
"436 563 OFFCURVE",
"448 575 OFFCURVE",
"460 575 CURVE SMOOTH",
"509 575 LINE SMOOTH",
"522 575 OFFCURVE",
"533 563 OFFCURVE",
"533 551 CURVE SMOOTH",
"533 538 OFFCURVE",
"522 527 OFFCURVE",
"509 527 CURVE SMOOTH",
"485 527 LINE",
"485 238 LINE",
"509 238 LINE SMOOTH",
"522 238 OFFCURVE",
"533 227 OFFCURVE",
"533 214 CURVE SMOOTH",
"533 201 OFFCURVE",
"522 190 OFFCURVE",
"509 190 CURVE SMOOTH"
);
},
{
closed = 1;
nodes = (
"509 -2 LINE SMOOTH",
"488 -2 OFFCURVE",
"471 6 OFFCURVE",
"460 21 CURVE",
"449 36 OFFCURVE",
"447 56 OFFCURVE",
"453 75 CURVE SMOOTH",
"453 76 OFFCURVE",
"457 83 OFFCURVE",
"463 95 CURVE SMOOTH",
"476 119 OFFCURVE",
"507 150 OFFCURVE",
"565 173 CURVE SMOOTH",
"594 184 OFFCURVE",
"631 190 OFFCURVE",
"677 190 CURVE SMOOTH",
"769 190 OFFCURVE",
"825 163 OFFCURVE",
"857 134 CURVE SMOOTH",
"874 120 OFFCURVE",
"885 107 OFFCURVE",
"892 95 CURVE SMOOTH",
"904 71 OFFCURVE",
"907 65 OFFCURVE",
"904 46 CURVE SMOOTH",
"902 28 OFFCURVE",
"891 12 OFFCURVE",
"874 4 CURVE SMOOTH",
"865 0 OFFCURVE",
"856 -2 OFFCURVE",
"846 -2 CURVE SMOOTH"
);
},
{
closed = 1;
nodes = (
"498 57 OFFCURVE",
"498 55 OFFCURVE",
"498 54 CURVE SMOOTH",
"498 50 OFFCURVE",
"499 48 OFFCURVE",
"503 47 CURVE",
"504 46 OFFCURVE",
"507 46 OFFCURVE",
"509 46 CURVE SMOOTH",
"846 46 LINE SMOOTH",
"850 46 OFFCURVE",
"854 47 OFFCURVE",
"856 49 CURVE",
"856 51 OFFCURVE",
"857 52 OFFCURVE",
"857 54 CURVE SMOOTH",
"857 55 OFFCURVE",
"856 57 OFFCURVE",
"856 59 CURVE",
"855 60 OFFCURVE",
"853 65 OFFCURVE",
"848 73 CURVE SMOOTH",
"839 90 OFFCURVE",
"816 108 OFFCURVE",
"795 119 CURVE SMOOTH",
"774 129 OFFCURVE",
"749 135 OFFCURVE",
"722 139 CURVE SMOOTH",
"707 141 OFFCURVE",
"693 142 OFFCURVE",
"677 142 CURVE SMOOTH",
"646 142 OFFCURVE",
"618 139 OFFCURVE",
"594 131 CURVE SMOOTH",
"570 124 OFFCURVE",
"548 114 OFFCURVE",
"531 100 CURVE SMOOTH",
"519 91 OFFCURVE",
"511 81 OFFCURVE",
"506 73 CURVE SMOOTH",
"501 65 OFFCURVE",
"499 60 OFFCURVE",
"499 59 CURVE"
);
}
);
width = 1024;
}
);
unicode = E013;
},
{
glyphname = github;
lastChange = "2015-11-02 12:52:30 +0000";
layers = (
{
layerId = "177FC93B-1B38-4AFC-964F-9D8881365EE5";
name = Regular;
paths = (
{
closed = 1;
nodes = (
"376 942 OFFCURVE",
"244 889 OFFCURVE",
"150 795 CURVE SMOOTH",
"53 698 OFFCURVE",
"0 570 OFFCURVE",
"0 435 CURVE SMOOTH",
"0 328 OFFCURVE",
"34 225 OFFCURVE",
"99 136 CURVE SMOOTH",
"160 52 OFFCURVE",
"249 -12 OFFCURVE",
"349 -45 CURVE",
"377 -52 OFFCURVE",
"403 -37 OFFCURVE",
"403 -13 CURVE SMOOTH",
"403 -7 OFFCURVE",
"403 5 OFFCURVE",
"403 22 CURVE SMOOTH",
"403 43 OFFCURVE",
"403 67 OFFCURVE",
"401 93 CURVE",
"325 75 OFFCURVE",
"285 78 OFFCURVE",
"264 104 CURVE SMOOTH",
"238 137 OFFCURVE",
"227 152 OFFCURVE",
"234 142 CURVE",
"222 172 OFFCURVE",
"209 192 OFFCURVE",
"194 205 CURVE",
"193 205 LINE",
"183 213 OFFCURVE",
"174 220 OFFCURVE",
"174 220 CURVE",
"156 232 OFFCURVE",
"152 232 OFFCURVE",
"168 232 CURVE",
"190 230 OFFCURVE",
"203 223 OFFCURVE",
"214 209 CURVE SMOOTH",
"225 194 OFFCURVE",
"234 184 OFFCURVE",
"234 183 CURVE",
"268 125 OFFCURVE",
"335 110 OFFCURVE",
"403 145 CURVE",
"409 183 OFFCURVE",
"428 216 OFFCURVE",
"447 219 CURVE",
"365 230 OFFCURVE",
"315 247 OFFCURVE",
"276 280 CURVE SMOOTH",
"232 316 OFFCURVE",
"209 379 OFFCURVE",
"209 462 CURVE SMOOTH",
"209 520 OFFCURVE",
"232 571 OFFCURVE",
"275 606 CURVE",
"260 603 LINE",
"260 592 OFFCURVE",
"256 608 OFFCURVE",
"250 642 CURVE SMOOTH",
"247 662 OFFCURVE",
"251 688 OFFCURVE",
"262 717 CURVE",
"267 717 OFFCURVE",
"274 716 OFFCURVE",
"283 716 CURVE SMOOTH",
"301 715 OFFCURVE",
"336 698 OFFCURVE",
"384 665 CURVE",
"425 677 OFFCURVE",
"468 683 OFFCURVE",
"512 683 CURVE SMOOTH",
"556 683 OFFCURVE",
"599 677 OFFCURVE",
"640 665 CURVE",
"689 698 OFFCURVE",
"723 715 OFFCURVE",
"742 716 CURVE SMOOTH",
"750 716 OFFCURVE",
"757 717 OFFCURVE",
"762 717 CURVE",
"773 688 OFFCURVE",
"777 662 OFFCURVE",
"774 642 CURVE SMOOTH",
"769 615 OFFCURVE",
"766 599 OFFCURVE",
"764 597 CURVE",
"797 560 OFFCURVE",
"815 513 OFFCURVE",
"815 462 CURVE SMOOTH",
"815 378 OFFCURVE",
"793 317 OFFCURVE",
"748 280 CURVE SMOOTH",
"712 250 OFFCURVE",
"668 234 OFFCURVE",
"601 225 CURVE",
"593 208 LINE",
"610 195 OFFCURVE",
"622 161 OFFCURVE",
"622 124 CURVE SMOOTH",
"622 90 OFFCURVE",
"622 62 OFFCURVE",
"622 37 CURVE",
"621 13 OFFCURVE",
"621 -4 OFFCURVE",
"621 -13 CURVE SMOOTH",
"621 -37 OFFCURVE",
"647 -52 OFFCURVE",
"675 -45 CURVE",
"775 -12 OFFCURVE",
"865 53 OFFCURVE",
"926 137 CURVE SMOOTH",
"990 224 OFFCURVE",
"1024 327 OFFCURVE",
"1024 435 CURVE SMOOTH",
"1024 570 OFFCURVE",
"971 698 OFFCURVE",
"875 795 CURVE SMOOTH",
"780 889 OFFCURVE",
"648 942 OFFCURVE",
"512 942 CURVE SMOOTH"
);
},
{
closed = 1;
nodes = (
"640 923 OFFCURVE",
"762 873 OFFCURVE",
"854 781 CURVE SMOOTH",
"944 691 OFFCURVE",
"995 565 OFFCURVE",
"995 435 CURVE SMOOTH",
"995 331 OFFCURVE",
"962 229 OFFCURVE",
"902 149 CURVE SMOOTH",
"842 66 OFFCURVE",
"758 4 OFFCURVE",
"665 -27 CURVE",
"655 -28 OFFCURVE",
"650 -24 OFFCURVE",
"650 -13 CURVE SMOOTH",
"650 -4 OFFCURVE",
"650 13 OFFCURVE",
"651 37 CURVE",
"651 61 OFFCURVE",
"651 90 OFFCURVE",
"651 124 CURVE SMOOTH",
"651 159 OFFCURVE",
"642 188 OFFCURVE",
"626 209 CURVE",
"676 217 OFFCURVE",
"728 232 OFFCURVE",
"767 265 CURVE SMOOTH",
"820 309 OFFCURVE",
"844 372 OFFCURVE",
"844 462 CURVE SMOOTH",
"844 513 OFFCURVE",
"827 558 OFFCURVE",
"794 597 CURVE",
"796 605 OFFCURVE",
"799 617 OFFCURVE",
"802 639 CURVE SMOOTH",
"808 672 OFFCURVE",
"798 711 OFFCURVE",
"772 764 CURVE",
"773 736 LINE",
"774 736 OFFCURVE",
"763 737 OFFCURVE",
"741 735 CURVE SMOOTH",
"715 734 OFFCURVE",
"679 718 OFFCURVE",
"633 688 CURVE",
"595 697 OFFCURVE",
"553 702 OFFCURVE",
"512 702 CURVE SMOOTH",
"471 702 OFFCURVE",
"429 697 OFFCURVE",
"391 688 CURVE",
"345 718 OFFCURVE",
"309 734 OFFCURVE",
"284 735 CURVE SMOOTH",
"261 737 OFFCURVE",
"250 736 OFFCURVE",
"251 736 CURVE",
"252 764 LINE",
"226 711 OFFCURVE",
"216 672 OFFCURVE",
"222 639 CURVE SMOOTH",
"225 617 OFFCURVE",
"228 605 OFFCURVE",
"230 597 CURVE",
"197 558 OFFCURVE",
"180 513 OFFCURVE",
"180 462 CURVE SMOOTH",
"180 373 OFFCURVE",
"205 308 OFFCURVE",
"257 265 CURVE SMOOTH",
"295 232 OFFCURVE",
"348 217 OFFCURVE",
"399 209 CURVE",
"387 194 OFFCURVE",
"380 176 OFFCURVE",
"376 155 CURVE",
"324 135 OFFCURVE",
"285 147 OFFCURVE",
"257 195 CURVE",
"256 196 OFFCURVE",
"245 210 OFFCURVE",
"237 221 CURVE SMOOTH",
"224 238 OFFCURVE",
"199 249 OFFCURVE",
"170 252 CURVE",
"125 252 OFFCURVE",
"118 230 OFFCURVE",
"157 204 CURVE",
"157 204 OFFCURVE",
"161 201 OFFCURVE",
"176 190 CURVE",
"175 190 LINE",
"184 182 OFFCURVE",
"195 163 OFFCURVE",
"208 134 CURVE",
"209 133 OFFCURVE",
"220 119 OFFCURVE",
"241 92 CURVE SMOOTH",
"263 65 OFFCURVE",
"309 56 OFFCURVE",
"374 67 CURVE",
"374 51 OFFCURVE",
"374 36 OFFCURVE",
"374 22 CURVE SMOOTH",
"374 5 OFFCURVE",
"374 -7 OFFCURVE",
"374 -13 CURVE SMOOTH",
"374 -24 OFFCURVE",
"369 -28 OFFCURVE",
"359 -27 CURVE",
"266 4 OFFCURVE",
"183 65 OFFCURVE",
"123 148 CURVE SMOOTH",
"62 230 OFFCURVE",
"29 332 OFFCURVE",
"29 435 CURVE SMOOTH",
"29 566 OFFCURVE",
"80 691 OFFCURVE",
"171 781 CURVE SMOOTH",
"262 873 OFFCURVE",
"383 923 OFFCURVE",
"512 923 CURVE SMOOTH"
);
}
);
width = 1024;
}
);
unicode = E902;
},
{
glyphname = hangouts;
lastChange = "2015-11-02 12:59:09 +0000";
layers = (
{
layerId = "177FC93B-1B38-4AFC-964F-9D8881365EE5";
name = Regular;
paths = (
{
closed = 1;
nodes = (
"395 959 OFFCURVE",
"280 913 OFFCURVE",
"199 832 CURVE SMOOTH",
"115 749 OFFCURVE",
"70 642 OFFCURVE",
"70 527 CURVE SMOOTH",
"70 411 OFFCURVE",
"115 303 OFFCURVE",
"199 220 CURVE SMOOTH",
"277 143 OFFCURVE",
"385 97 OFFCURVE",
"497 93 CURVE",
"497 -65 LINE",
"588 -22 OFFCURVE",
"707 48 OFFCURVE",
"800 150 CURVE SMOOTH",
"902 262 OFFCURVE",
"954 388 OFFCURVE",
"954 527 CURVE SMOOTH",
"954 641 OFFCURVE",
"909 749 OFFCURVE",
"826 832 CURVE SMOOTH",
"744 913 OFFCURVE",
"629 959 OFFCURVE",
"512 959 CURVE SMOOTH"
);
},
{
closed = 1;
nodes = (
"622 940 OFFCURVE",
"725 897 OFFCURVE",
"805 818 CURVE SMOOTH",
"882 741 OFFCURVE",
"925 636 OFFCURVE",
"925 527 CURVE SMOOTH",
"925 393 OFFCURVE",
"875 268 OFFCURVE",
"778 163 CURVE SMOOTH",
"699 76 OFFCURVE",
"605 14 OFFCURVE",
"527 -26 CURVE",
"527 113 LINE",
"411 109 OFFCURVE",
"302 152 OFFCURVE",
"220 234 CURVE SMOOTH",
"142 311 OFFCURVE",
"99 416 OFFCURVE",
"99 527 CURVE SMOOTH",
"99 637 OFFCURVE",
"142 742 OFFCURVE",
"220 818 CURVE SMOOTH",
"298 897 OFFCURVE",
"402 940 OFFCURVE",
"512 940 CURVE SMOOTH"
);
},
{
closed = 1;
nodes = (
"462 398 OFFCURVE",
"412 345 OFFCURVE",
"347 338 CURVE",
"340 338 OFFCURVE",
"335 342 OFFCURVE",
"335 349 CURVE SMOOTH",
"335 392 LINE SMOOTH",
"335 396 OFFCURVE",
"340 401 OFFCURVE",
"345 401 CURVE",
"371 405 OFFCURVE",
"391 426 OFFCURVE",
"396 452 CURVE",
"299 452 LINE SMOOTH",
"280 452 OFFCURVE",
"263 468 OFFCURVE",
"263 488 CURVE SMOOTH",
"263 614 LINE SMOOTH",
"263 635 OFFCURVE",
"280 651 OFFCURVE",
"299 651 CURVE SMOOTH",
"425 651 LINE SMOOTH",
"446 651 OFFCURVE",
"462 635 OFFCURVE",
"462 614 CURVE SMOOTH",
"462 465 LINE SMOOTH"
);
},
{
closed = 1;
nodes = (
"761 398 OFFCURVE",
"710 345 OFFCURVE",
"645 338 CURVE",
"638 338 OFFCURVE",
"634 342 OFFCURVE",
"634 349 CURVE SMOOTH",
"634 392 LINE SMOOTH",
"634 396 OFFCURVE",
"638 401 OFFCURVE",
"643 401 CURVE",
"669 405 OFFCURVE",
"689 426 OFFCURVE",
"696 452 CURVE",
"599 452 LINE SMOOTH",
"578 452 OFFCURVE",
"562 468 OFFCURVE",
"562 488 CURVE SMOOTH",
"562 614 LINE SMOOTH",
"562 635 OFFCURVE",
"578 651 OFFCURVE",
"599 651 CURVE SMOOTH",
"725 651 LINE SMOOTH",
"744 651 OFFCURVE",
"761 635 OFFCURVE",
"761 614 CURVE SMOOTH",
"761 465 LINE SMOOTH"
);
}
);
width = 1024;
}
);
unicode = E903;
},
{
glyphname = homecode;
lastChange = "2015-10-30 16:25:23 +0000";
layers = (
{
layerId = "177FC93B-1B38-4AFC-964F-9D8881365EE5";
name = Regular;
paths = (
{
closed = 1;
nodes = (
"717 717 LINE",
"717 794 LINE SMOOTH",
"717 835 OFFCURVE",
"683 870 OFFCURVE",
"640 870 CURVE SMOOTH",
"384 870 LINE SMOOTH",
"341 870 OFFCURVE",
"307 835 OFFCURVE",
"307 794 CURVE SMOOTH",
"307 717 LINE",
"77 717 LINE SMOOTH",
"34 717 OFFCURVE",
"0 683 OFFCURVE",
"0 640 CURVE SMOOTH",
"0 77 LINE SMOOTH",
"0 34 OFFCURVE",
"34 0 OFFCURVE",
"77 0 CURVE SMOOTH",
"947 0 LINE SMOOTH",
"990 0 OFFCURVE",
"1024 34 OFFCURVE",
"1024 77 CURVE SMOOTH",
"1024 640 LINE SMOOTH",
"1024 683 OFFCURVE",
"990 717 OFFCURVE",
"947 717 CURVE SMOOTH"
);
},
{
closed = 1;
nodes = (
"358 807 OFFCURVE",
"369 819 OFFCURVE",
"384 819 CURVE SMOOTH",
"640 819 LINE SMOOTH",
"655 819 OFFCURVE",
"666 807 OFFCURVE",
"666 794 CURVE SMOOTH",
"666 717 LINE",
"358 717 LINE",
"358 794 LINE SMOOTH"
);
},
{
closed = 1;
nodes = (
"973 205 LINE",
"973 77 LINE SMOOTH",
"973 62 OFFCURVE",
"962 51 OFFCURVE",
"947 51 CURVE SMOOTH",
"77 51 LINE SMOOTH",
"62 51 OFFCURVE",
"51 62 OFFCURVE",
"51 77 CURVE SMOOTH",
"51 205 LINE",
"51 256 LINE",
"51 640 LINE SMOOTH",
"51 655 OFFCURVE",
"62 666 OFFCURVE",
"77 666 CURVE SMOOTH",
"947 666 LINE SMOOTH",
"962 666 OFFCURVE",
"973 655 OFFCURVE",
"973 640 CURVE SMOOTH",
"973 256 LINE"
);
},
{
closed = 1;
nodes = (
"287 154 OFFCURVE",
"282 157 OFFCURVE",
"278 160 CURVE",
"101 337 LINE SMOOTH",
"96 342 OFFCURVE",
"94 347 OFFCURVE",
"94 354 CURVE SMOOTH",
"94 359 OFFCURVE",
"96 364 OFFCURVE",
"101 369 CURVE SMOOTH",
"278 545 LINE SMOOTH",
"282 550 OFFCURVE",
"287 552 OFFCURVE",
"293 552 CURVE SMOOTH",
"306 552 OFFCURVE",
"315 543 OFFCURVE",
"315 530 CURVE SMOOTH",
"315 524 OFFCURVE",
"313 519 OFFCURVE",
"309 514 CURVE SMOOTH",
"147 353 LINE",
"309 192 LINE SMOOTH",
"313 188 OFFCURVE",
"315 183 OFFCURVE",
"315 176 CURVE SMOOTH",
"315 171 OFFCURVE",
"313 164 OFFCURVE",
"309 160 CURVE",
"304 157 OFFCURVE",
"299 154 OFFCURVE",
"293 154 CURVE SMOOTH"
);
},
{
closed = 1;
nodes = (
"730 154 OFFCURVE",
"724 157 OFFCURVE",
"719 160 CURVE",
"716 164 OFFCURVE",
"713 171 OFFCURVE",
"713 176 CURVE SMOOTH",
"713 183 OFFCURVE",
"716 188 OFFCURVE",
"719 192 CURVE SMOOTH",
"882 353 LINE",
"719 514 LINE SMOOTH",
"716 519 OFFCURVE",
"713 524 OFFCURVE",
"713 530 CURVE SMOOTH",
"713 543 OFFCURVE",
"722 552 OFFCURVE",
"735 552 CURVE SMOOTH",
"742 552 OFFCURVE",
"746 550 OFFCURVE",
"751 545 CURVE SMOOTH",
"928 369 LINE SMOOTH",
"932 364 OFFCURVE",
"934 359 OFFCURVE",
"934 354 CURVE SMOOTH",
"934 347 OFFCURVE",
"932 342 OFFCURVE",
"928 337 CURVE SMOOTH",
"751 160 LINE",
"746 157 OFFCURVE",
"742 154 OFFCURVE",
"735 154 CURVE SMOOTH"
);
},
{
closed = 1;
nodes = (
"400 154 OFFCURVE",
"396 155 OFFCURVE",
"392 158 CURVE SMOOTH",
"382 163 OFFCURVE",
"379 177 OFFCURVE",
"384 188 CURVE SMOOTH",
"606 542 LINE SMOOTH",
"613 552 OFFCURVE",
"626 554 OFFCURVE",
"637 549 CURVE",
"648 542 OFFCURVE",
"649 528 OFFCURVE",
"644 518 CURVE SMOOTH",
"423 164 LINE SMOOTH",
"418 158 OFFCURVE",
"411 154 OFFCURVE",
"404 154 CURVE SMOOTH"
);
}
);
width = 1024;
}
);
unicode = E010;
},
{
glyphname = iphone;
lastChange = "2015-11-02 13:08:33 +0000";
layers = (
{
layerId = "177FC93B-1B38-4AFC-964F-9D8881365EE5";
name = Regular;
paths = (
{
closed = 1;
nodes = (
"306 -64 LINE SMOOTH",
"264 -64 OFFCURVE",
"230 -29 OFFCURVE",
"230 13 CURVE SMOOTH",
"230 883 LINE SMOOTH",
"230 926 OFFCURVE",
"264 960 OFFCURVE",
"306 960 CURVE SMOOTH",
"716 960 LINE SMOOTH",
"758 960 OFFCURVE",
"793 926 OFFCURVE",
"793 883 CURVE SMOOTH",
"793 13 LINE SMOOTH",
"793 -29 OFFCURVE",
"758 -64 OFFCURVE",
"716 -64 CURVE SMOOTH"
);
},
{
closed = 1;
nodes = (
"292 909 OFFCURVE",
"281 897 OFFCURVE",
"281 883 CURVE SMOOTH",
"281 13 LINE SMOOTH",
"281 -1 OFFCURVE",
"292 -13 OFFCURVE",
"306 -13 CURVE SMOOTH",
"716 -13 LINE SMOOTH",
"730 -13 OFFCURVE",
"742 -1 OFFCURVE",
"742 13 CURVE SMOOTH",
"742 883 LINE SMOOTH",
"742 897 OFFCURVE",
"730 909 OFFCURVE",
"716 909 CURVE SMOOTH",
"306 909 LINE SMOOTH"
);
},
{
closed = 1;
nodes = (
"460 806 LINE SMOOTH",
"446 806 OFFCURVE",
"434 818 OFFCURVE",
"434 832 CURVE SMOOTH",
"434 846 OFFCURVE",
"446 858 OFFCURVE",
"460 858 CURVE SMOOTH",
"562 858 LINE SMOOTH",
"576 858 OFFCURVE",
"588 846 OFFCURVE",
"588 832 CURVE SMOOTH",
"588 818 OFFCURVE",
"576 806 OFFCURVE",
"562 806 CURVE SMOOTH"
);
},
{
closed = 1;
nodes = (
"383 818 OFFCURVE",
"372 806 OFFCURVE",
"358 806 CURVE SMOOTH",
"343 806 OFFCURVE",
"332 818 OFFCURVE",
"332 832 CURVE SMOOTH",
"332 846 OFFCURVE",
"343 858 OFFCURVE",
"358 858 CURVE SMOOTH",
"372 858 OFFCURVE",
"383 846 OFFCURVE",
"383 832 CURVE SMOOTH"
);
},
{
closed = 1;
nodes = (
"469 38 OFFCURVE",
"434 73 OFFCURVE",
"434 115 CURVE SMOOTH",
"434 158 OFFCURVE",
"469 192 OFFCURVE",
"511 192 CURVE SMOOTH",
"553 192 OFFCURVE",
"588 158 OFFCURVE",
"588 115 CURVE SMOOTH",
"588 73 OFFCURVE",
"553 38 OFFCURVE",
"511 38 CURVE SMOOTH"
);
},
{
closed = 1;
nodes = (
"497 141 OFFCURVE",
"486 129 OFFCURVE",
"486 115 CURVE SMOOTH",
"486 101 OFFCURVE",
"497 90 OFFCURVE",
"511 90 CURVE SMOOTH",
"525 90 OFFCURVE",
"537 101 OFFCURVE",
"537 115 CURVE SMOOTH",
"537 129 OFFCURVE",
"525 141 OFFCURVE",
"511 141 CURVE SMOOTH"
);
}
);
width = 1024;
}
);
unicode = E019;
},
{
glyphname = place;
lastChange = "2015-11-02 13:05:04 +0000";
layers = (
{
layerId = "177FC93B-1B38-4AFC-964F-9D8881365EE5";
name = Regular;
paths = (
{
closed = 1;
nodes = (
"515 -64 OFFCURVE",
"508 -60 OFFCURVE",
"503 -54 CURVE",
"503 -53 OFFCURVE",
"498 -47 OFFCURVE",
"490 -36 CURVE SMOOTH",
"473 -14 OFFCURVE",
"445 26 OFFCURVE",
"412 80 CURVE SMOOTH",
"378 134 OFFCURVE",
"349 190 OFFCURVE",
"330 228 CURVE SMOOTH",
"312 266 OFFCURVE",
"295 305 OFFCURVE",
"281 342 CURVE SMOOTH",
"267 379 OFFCURVE",
"253 420 OFFCURVE",
"242 464 CURVE SMOOTH",
"230 508 OFFCURVE",
"223 552 OFFCURVE",
"219 593 CURVE SMOOTH",
"217 613 OFFCURVE",
"216 633 OFFCURVE",
"216 653 CURVE SMOOTH",
"216 737 OFFCURVE",
"250 814 OFFCURVE",
"306 870 CURVE SMOOTH",
"362 926 OFFCURVE",
"439 960 OFFCURVE",
"523 960 CURVE SMOOTH",
"608 960 OFFCURVE",
"685 926 OFFCURVE",
"741 870 CURVE SMOOTH",
"796 814 OFFCURVE",
"830 737 OFFCURVE",
"830 653 CURVE SMOOTH",
"830 613 OFFCURVE",
"827 573 OFFCURVE",
"819 530 CURVE SMOOTH",
"811 487 OFFCURVE",
"800 442 OFFCURVE",
"785 396 CURVE SMOOTH",
"773 360 OFFCURVE",
"759 323 OFFCURVE",
"743 285 CURVE SMOOTH",
"726 247 OFFCURVE",
"707 209 OFFCURVE",
"687 170 CURVE SMOOTH",
"651 104 OFFCURVE",
"616 50 OFFCURVE",
"590 10 CURVE SMOOTH",
"576 -9 OFFCURVE",
"566 -25 OFFCURVE",
"557 -36 CURVE SMOOTH",
"549 -47 OFFCURVE",
"544 -53 OFFCURVE",
"543 -54 CURVE",
"539 -60 OFFCURVE",
"531 -64 OFFCURVE",
"523 -64 CURVE SMOOTH"
);
},
{
closed = 1;
nodes = (
"453 909 OFFCURVE",
"389 880 OFFCURVE",
"343 834 CURVE SMOOTH",
"296 788 OFFCURVE",
"267 723 OFFCURVE",
"267 653 CURVE SMOOTH",
"267 569 OFFCURVE",
"286 484 OFFCURVE",
"313 405 CURVE SMOOTH",
"339 326 OFFCURVE",
"373 253 OFFCURVE",
"405 195 CURVE SMOOTH",
"428 151 OFFCURVE",
"451 113 OFFCURVE",
"472 81 CURVE SMOOTH",
"492 48 OFFCURVE",
"511 22 OFFCURVE",
"523 5 CURVE",
"536 23 OFFCURVE",
"554 49 OFFCURVE",
"575 81 CURVE SMOOTH",
"595 113 OFFCURVE",
"619 153 OFFCURVE",
"642 195 CURVE SMOOTH",
"673 254 OFFCURVE",
"708 327 OFFCURVE",
"734 406 CURVE SMOOTH",
"760 485 OFFCURVE",
"779 569 OFFCURVE",
"779 653 CURVE SMOOTH",
"779 723 OFFCURVE",
"750 788 OFFCURVE",
"704 834 CURVE SMOOTH",
"658 880 OFFCURVE",
"594 909 OFFCURVE",
"523 909 CURVE SMOOTH"
);
},
{
closed = 1;
nodes = (
"481 499 OFFCURVE",
"443 516 OFFCURVE",
"415 544 CURVE SMOOTH",
"387 572 OFFCURVE",
"370 611 OFFCURVE",
"370 653 CURVE SMOOTH",
"370 695 OFFCURVE",
"387 734 OFFCURVE",
"415 762 CURVE SMOOTH",
"443 789 OFFCURVE",
"481 806 OFFCURVE",
"523 806 CURVE SMOOTH",
"566 806 OFFCURVE",
"604 789 OFFCURVE",
"632 762 CURVE SMOOTH",
"660 734 OFFCURVE",
"677 695 OFFCURVE",
"677 653 CURVE SMOOTH",
"677 611 OFFCURVE",
"660 572 OFFCURVE",
"632 544 CURVE SMOOTH",
"604 516 OFFCURVE",
"566 499 OFFCURVE",
"523 499 CURVE SMOOTH"
);
},
{
closed = 1;
nodes = (
"495 755 OFFCURVE",
"469 744 OFFCURVE",
"451 725 CURVE SMOOTH",
"432 707 OFFCURVE",
"421 681 OFFCURVE",
"421 653 CURVE SMOOTH",
"421 625 OFFCURVE",
"432 599 OFFCURVE",
"451 581 CURVE SMOOTH",
"469 562 OFFCURVE",
"495 550 OFFCURVE",
"523 550 CURVE SMOOTH",
"551 550 OFFCURVE",
"577 562 OFFCURVE",
"596 581 CURVE SMOOTH",
"614 599 OFFCURVE",
"626 625 OFFCURVE",
"626 653 CURVE SMOOTH",
"626 681 OFFCURVE",
"614 707 OFFCURVE",
"596 725 CURVE SMOOTH",
"577 744 OFFCURVE",
"551 755 OFFCURVE",
"523 755 CURVE SMOOTH"
);
}
);
width = 1024;
}
);
unicode = E018;
},
{
glyphname = sir;
lastChange = "2015-10-30 14:37:28 +0000";
layers = (
{
layerId = "177FC93B-1B38-4AFC-964F-9D8881365EE5";
name = Regular;
paths = (
{
closed = 1;
nodes = (
"969 208 OFFCURVE",
"950 205 OFFCURVE",
"933 205 CURVE SMOOTH",
"933 205 OFFCURVE",
"933 205 OFFCURVE",
"933 205 CURVE SMOOTH",
"933 205 OFFCURVE",
"933 205 OFFCURVE",
"933 205 CURVE SMOOTH",
"864 205 OFFCURVE",
"828 246 OFFCURVE",
"791 289 CURVE SMOOTH",
"773 309 OFFCURVE",
"754 331 OFFCURVE",
"731 348 CURVE SMOOTH",
"708 364 OFFCURVE",
"681 376 OFFCURVE",
"647 376 CURVE SMOOTH",
"591 376 OFFCURVE",
"542 347 OFFCURVE",
"513 303 CURVE",
"483 347 OFFCURVE",
"434 376 OFFCURVE",
"378 376 CURVE SMOOTH",
"344 376 OFFCURVE",
"317 364 OFFCURVE",
"294 348 CURVE SMOOTH",
"271 331 OFFCURVE",
"252 309 OFFCURVE",
"234 289 CURVE SMOOTH",
"197 246 OFFCURVE",
"162 205 OFFCURVE",
"92 205 CURVE SMOOTH",
"75 205 OFFCURVE",
"56 208 OFFCURVE",
"35 213 CURVE SMOOTH",
"24 216 OFFCURVE",
"13 212 OFFCURVE",
"6 203 CURVE SMOOTH",
"3 198 OFFCURVE",
"2 193 OFFCURVE",
"2 187 CURVE SMOOTH",
"2 182 OFFCURVE",
"3 177 OFFCURVE",
"6 172 CURVE SMOOTH",
"57 94 OFFCURVE",
"119 51 OFFCURVE",
"174 28 CURVE SMOOTH",
"228 5 OFFCURVE",
"277 0 OFFCURVE",
"305 0 CURVE SMOOTH",
"335 0 OFFCURVE",
"363 5 OFFCURVE",
"387 13 CURVE SMOOTH",
"414 22 OFFCURVE",
"439 37 OFFCURVE",
"461 55 CURVE SMOOTH",
"482 72 OFFCURVE",
"500 93 OFFCURVE",
"513 116 CURVE",
"526 93 OFFCURVE",
"544 72 OFFCURVE",
"565 55 CURVE SMOOTH",
"586 37 OFFCURVE",
"611 22 OFFCURVE",
"638 13 CURVE SMOOTH",
"662 5 OFFCURVE",
"691 0 OFFCURVE",
"720 0 CURVE SMOOTH",
"748 0 OFFCURVE",
"797 5 OFFCURVE",
"852 28 CURVE SMOOTH",
"907 51 OFFCURVE",
"967 94 OFFCURVE",
"1019 172 CURVE SMOOTH",
"1026 181 OFFCURVE",
"1025 194 OFFCURVE",
"1019 203 CURVE SMOOTH",
"1012 212 OFFCURVE",
"1001 216 OFFCURVE",
"990 213 CURVE SMOOTH"
);
},
{
closed = 1;
nodes = (
"351 58 OFFCURVE",
"328 54 OFFCURVE",
"305 54 CURVE SMOOTH",
"285 54 OFFCURVE",
"252 57 OFFCURVE",
"213 70 CURVE SMOOTH",
"175 83 OFFCURVE",
"131 108 OFFCURVE",
"91 152 CURVE",
"91 152 OFFCURVE",
"91 152 OFFCURVE",
"92 152 CURVE SMOOTH",
"92 152 OFFCURVE",
"92 152 OFFCURVE",
"92 152 CURVE",
"139 152 OFFCURVE",
"175 166 OFFCURVE",
"204 186 CURVE SMOOTH",
"233 206 OFFCURVE",
"255 231 OFFCURVE",
"275 254 CURVE SMOOTH",
"312 296 OFFCURVE",
"336 321 OFFCURVE",
"378 321 CURVE SMOOTH",
"408 321 OFFCURVE",
"435 309 OFFCURVE",
"454 290 CURVE SMOOTH",
"473 271 OFFCURVE",
"486 244 OFFCURVE",
"486 214 CURVE SMOOTH",
"486 182 OFFCURVE",
"473 151 OFFCURVE",
"453 124 CURVE SMOOTH",
"432 97 OFFCURVE",
"403 75 OFFCURVE",
"369 64 CURVE SMOOTH"
);
},
{
closed = 1;
nodes = (
"697 54 OFFCURVE",
"675 58 OFFCURVE",
"656 64 CURVE SMOOTH",
"622 75 OFFCURVE",
"593 97 OFFCURVE",
"573 124 CURVE SMOOTH",
"552 151 OFFCURVE",
"540 182 OFFCURVE",
"540 214 CURVE SMOOTH",
"540 244 OFFCURVE",
"552 271 OFFCURVE",
"571 290 CURVE SMOOTH",
"590 309 OFFCURVE",
"617 321 OFFCURVE",
"647 321 CURVE SMOOTH",
"689 321 OFFCURVE",
"714 296 OFFCURVE",
"750 254 CURVE SMOOTH",
"771 231 OFFCURVE",
"792 206 OFFCURVE",
"822 186 CURVE SMOOTH",
"851 166 OFFCURVE",
"886 152 OFFCURVE",
"933 152 CURVE",
"933 152 OFFCURVE",
"933 152 OFFCURVE",
"933 152 CURVE SMOOTH",
"933 152 OFFCURVE",
"933 152 OFFCURVE",
"933 152 CURVE",
"933 152 OFFCURVE",
"933 152 OFFCURVE",
"934 152 CURVE SMOOTH",
"934 152 OFFCURVE",
"934 152 OFFCURVE",
"935 152 CURVE",
"894 108 OFFCURVE",
"850 83 OFFCURVE",
"812 70 CURVE SMOOTH",
"774 57 OFFCURVE",
"741 54 OFFCURVE",
"720 54 CURVE SMOOTH"
);
},
{
closed = 1;
nodes = (
"55 698 LINE",
"55 639 OFFCURVE",
"80 585 OFFCURVE",
"119 546 CURVE SMOOTH",
"158 507 OFFCURVE",
"211 483 OFFCURVE",
"271 483 CURVE SMOOTH",
"330 483 OFFCURVE",
"384 507 OFFCURVE",
"423 546 CURVE SMOOTH",
"462 585 OFFCURVE",
"486 639 OFFCURVE",
"486 698 CURVE SMOOTH",
"486 725 LINE SMOOTH",
"486 740 OFFCURVE",
"498 752 OFFCURVE",
"513 752 CURVE SMOOTH",
"527 752 OFFCURVE",
"540 740 OFFCURVE",
"540 725 CURVE SMOOTH",
"540 698 LINE SMOOTH",
"540 639 OFFCURVE",
"563 585 OFFCURVE",
"603 546 CURVE SMOOTH",
"642 507 OFFCURVE",
"696 483 OFFCURVE",
"755 483 CURVE SMOOTH",
"814 483 OFFCURVE",
"867 507 OFFCURVE",
"907 546 CURVE SMOOTH",
"946 585 OFFCURVE",
"970 639 OFFCURVE",
"970 698 CURVE",
"997 698 LINE SMOOTH",
"1012 698 OFFCURVE",
"1024 710 OFFCURVE",
"1024 725 CURVE SMOOTH",
"1024 740 OFFCURVE",
"1012 752 OFFCURVE",
"997 752 CURVE SMOOTH",
"963 752 LINE",
"951 799 OFFCURVE",
"925 838 OFFCURVE",
"888 867 CURVE SMOOTH",
"851 896 OFFCURVE",
"805 914 OFFCURVE",
"755 914 CURVE SMOOTH",
"711 914 OFFCURVE",
"672 900 OFFCURVE",
"638 879 CURVE SMOOTH",
"605 858 OFFCURVE",
"577 826 OFFCURVE",
"560 790 CURVE",
"547 800 OFFCURVE",
"530 806 OFFCURVE",
"513 806 CURVE SMOOTH",
"494 806 OFFCURVE",
"478 800 OFFCURVE",
"465 790 CURVE",
"448 826 OFFCURVE",
"421 858 OFFCURVE",
"387 879 CURVE SMOOTH",
"354 900 OFFCURVE",
"313 914 OFFCURVE",
"271 914 CURVE SMOOTH",
"221 914 OFFCURVE",
"175 896 OFFCURVE",
"138 867 CURVE SMOOTH",
"101 838 OFFCURVE",
"74 799 OFFCURVE",
"62 752 CURVE",
"28 752 LINE SMOOTH",
"14 752 OFFCURVE",
"2 740 OFFCURVE",
"2 725 CURVE SMOOTH",
"2 710 OFFCURVE",
"14 698 OFFCURVE",
"28 698 CURVE SMOOTH"
);
},
{
closed = 1;
nodes = (
"799 859 OFFCURVE",
"840 842 OFFCURVE",
"869 813 CURVE SMOOTH",
"898 783 OFFCURVE",
"916 743 OFFCURVE",
"916 698 CURVE SMOOTH",
"916 654 OFFCURVE",
"898 614 OFFCURVE",
"869 584 CURVE SMOOTH",
"840 555 OFFCURVE",
"799 537 OFFCURVE",
"755 537 CURVE SMOOTH",
"710 537 OFFCURVE",
"670 555 OFFCURVE",
"641 584 CURVE SMOOTH",
"611 614 OFFCURVE",
"593 654 OFFCURVE",
"593 698 CURVE SMOOTH",
"593 743 OFFCURVE",
"611 783 OFFCURVE",
"641 813 CURVE SMOOTH",
"670 842 OFFCURVE",
"710 859 OFFCURVE",
"755 859 CURVE SMOOTH"
);
},
{
closed = 1;
nodes = (
"315 859 OFFCURVE",
"355 842 OFFCURVE",
"385 813 CURVE SMOOTH",
"414 783 OFFCURVE",
"432 743 OFFCURVE",
"432 698 CURVE SMOOTH",
"432 654 OFFCURVE",
"414 614 OFFCURVE",
"385 584 CURVE SMOOTH",
"355 555 OFFCURVE",
"315 537 OFFCURVE",
"271 537 CURVE SMOOTH",
"226 537 OFFCURVE",
"186 555 OFFCURVE",
"156 584 CURVE SMOOTH",
"127 614 OFFCURVE",
"109 654 OFFCURVE",
"109 698 CURVE SMOOTH",
"109 743 OFFCURVE",
"127 783 OFFCURVE",
"156 813 CURVE SMOOTH",
"186 842 OFFCURVE",
"226 859 OFFCURVE",
"271 859 CURVE SMOOTH"
);
}
);
width = 1024;
}
);
unicode = E008;
},
{
glyphname = skype;
lastChange = "2015-11-02 12:50:04 +0000";
layers = (
{
layerId = "177FC93B-1B38-4AFC-964F-9D8881365EE5";
name = Regular;
paths = (
{
closed = 1;
nodes = (
"493.996 280 OFFCURVE",
"478.932 282.753 OFFCURVE",
"463.909 289.191 CURVE",
"464.708 288.944 LINE",
"451.809 295.394 OFFCURVE",
"445.54 300.887 OFFCURVE",
"441.112 308.856 CURVE SMOOTH",
"436.246 317.813 OFFCURVE",
"431.209 327.888 OFFCURVE",
"426.024 336.961 CURVE",
"425.481 337.547 LINE",
"422.908 341.405 OFFCURVE",
"421.402 343.788 OFFCURVE",
"420.232 345.406 CURVE",
"415.926 360.118 OFFCURVE",
"409.099 371.515 OFFCURVE",
"397.846 382.831 CURVE",
"378.702 392.8 OFFCURVE",
"365.837 397 OFFCURVE",
"353 397 CURVE SMOOTH",
"334.106 397 OFFCURVE",
"315.517 390.194 OFFCURVE",
"304.393 379.071 CURVE",
"304.91 379.399 LINE",
"290.361 366.174 OFFCURVE",
"284 353.388 OFFCURVE",
"284 337 CURVE SMOOTH",
"284 314.554 OFFCURVE",
"292.165 291.083 OFFCURVE",
"309.28 263.7 CURVE",
"309.869 263.118 LINE",
"328.764 237.137 OFFCURVE",
"350.086 218.089 OFFCURVE",
"375.889 204.195 CURVE SMOOTH",
"412.138 185.083 OFFCURVE",
"459.893 175 OFFCURVE",
"516 175 CURVE SMOOTH",
"556.6 175 OFFCURVE",
"600.23 182.366 OFFCURVE",
"638.181 195.331 CURVE",
"675.709 213.106 OFFCURVE",
"701.956 234.011 OFFCURVE",
"716.862 258.855 CURVE",
"716.404 258.377 LINE",
"736.041 287.256 OFFCURVE",
"745 314.964 OFFCURVE",
"745 347 CURVE SMOOTH",
"745 373.682 OFFCURVE",
"740.822 395.06 OFFCURVE",
"731.29 416.729 CURVE",
"720.305 435.133 OFFCURVE",
"705.342 451.095 OFFCURVE",
"684.017 467.234 CURVE",
"665.572 477.302 OFFCURVE",
"641.733 491.342 OFFCURVE",
"614.947 498.648 CURVE",
"615.628 498.512 LINE",
"579.103 510.358 OFFCURVE",
"550.464 516.495 OFFCURVE",
"533.638 520.701 CURVE SMOOTH",
"528.842 521.9 OFFCURVE",
"526.205 521.992 OFFCURVE",
"523.297 523 CURVE",
"517.242 524.755 OFFCURVE",
"511.587 524.701 OFFCURVE",
"506.331 525.555 CURVE",
"502.339 526.698 OFFCURVE",
"499.094 527.565 OFFCURVE",
"494.516 528.725 CURVE",
"491.062 530.279 OFFCURVE",
"479.093 534.621 OFFCURVE",
"485.141 531.919 CURVE",
"485.141 531.919 OFFCURVE",
"485.141 531.919 OFFCURVE",
"481.477 533.51 CURVE",
"461.687 539.674 OFFCURVE",
"461.141 540.394 OFFCURVE",
"447 551 CURVE",
"447.762 550.593 LINE",
"444.127 553.708 OFFCURVE",
"440.778 558.227 OFFCURVE",
"437.659 564.979 CURVE",
"436.807 568.695 OFFCURVE",
"435 572.234 OFFCURVE",
"435 574 CURVE SMOOTH",
"435 586.598 OFFCURVE",
"440.815 595.261 OFFCURVE",
"454.575 603.109 CURVE",
"467.639 612.859 OFFCURVE",
"483.971 617 OFFCURVE",
"507 617 CURVE SMOOTH",
"532.591 617 OFFCURVE",
"547.676 612.867 OFFCURVE",
"560.281 603.863 CURVE",
"559.63 604.191 LINE",
"572.431 593.951 OFFCURVE",
"581.193 581.364 OFFCURVE",
"586.624 566.329 CURVE",
"600.779 544.201 OFFCURVE",
"605.32 538.264 OFFCURVE",
"614.281 531.863 CURVE",
"613.791 532.106 LINE",
"624.42 523.839 OFFCURVE",
"639.329 519 OFFCURVE",
"654 519 CURVE SMOOTH",
"671.286 519 OFFCURVE",
"689.58 526.319 OFFCURVE",
"703.09 538.601 CURVE",
"703.607 538.929 LINE",
"717.015 552.338 OFFCURVE",
"723 565.871 OFFCURVE",
"723 583 CURVE SMOOTH",
"723 594.823 OFFCURVE",
"717.731 609.668 OFFCURVE",
"710.254 629.972 CURVE",
"697.99 646.569 OFFCURVE",
"686.799 659.761 OFFCURVE",
"673.781 672.891 CURVE",
"656.911 685.559 OFFCURVE",
"632.503 697.205 OFFCURVE",
"602.907 707.45 CURVE SMOOTH",
"579.46 715.913 OFFCURVE",
"548.578 720 OFFCURVE",
"513 720 CURVE SMOOTH",
"473.81 720 OFFCURVE",
"434.789 713.42 OFFCURVE",
"400.984 701.424 CURVE SMOOTH",
"367.917 689.691 OFFCURVE",
"340.43 670.796 OFFCURVE",
"322.131 647.114 CURVE SMOOTH",
"304.415 622.482 OFFCURVE",
"295 593.759 OFFCURVE",
"295 565 CURVE SMOOTH",
"295 532.514 OFFCURVE",
"303.328 506.223 OFFCURVE",
"321.069 482.94 CURVE",
"321.648 482.464 LINE",
"339.781 461.468 OFFCURVE",
"363.279 444.807 OFFCURVE",
"390.321 433.745 CURVE SMOOTH",
"416.593 422.002 OFFCURVE",
"452.693 411.429 OFFCURVE",
"491.742 401.971 CURVE",
"498.119 402.101 OFFCURVE",
"502.399 402.029 OFFCURVE",
"515.825 396.31 CURVE",
"518.148 395.616 OFFCURVE",
"521.648 394.726 OFFCURVE",
"527.862 393.174 CURVE",
"532.574 392.993 OFFCURVE",
"537.843 390.974 OFFCURVE",
"544.728 389.314 CURVE",
"547.334 388.466 OFFCURVE",
"551.06 387.245 OFFCURVE",
"556.257 385.513 CURVE SMOOTH",
"569.5 381.099 OFFCURVE",
"578.83 374.405 OFFCURVE",
"587.485 364.598 CURVE",
"593.996 363.195 OFFCURVE",
"599 351.994 OFFCURVE",
"599 337 CURVE SMOOTH",
"599 318.854 OFFCURVE",
"591.066 305.121 OFFCURVE",
"576.772 298.157 CURVE",
"559.175 285.253 OFFCURVE",
"541.088 280 OFFCURVE",
"512 280 CURVE SMOOTH"
);
},
{
closed = 1;
nodes = (
"547.419 260 OFFCURVE",
"576.617 267.923 OFFCURVE",
"597.184 283.923 CURVE",
"618.779 297.259 OFFCURVE",
"629 314.18 OFFCURVE",
"629 337 CURVE SMOOTH",
"629 355.578 OFFCURVE",
"623.117 368.19 OFFCURVE",
"609.581 378.114 CURVE",
"600.296 388.8 OFFCURVE",
"584.377 398.276 OFFCURVE",
"565.743 404.487 CURVE SMOOTH",
"558.624 406.86 OFFCURVE",
"567.104 403.07 OFFCURVE",
"556.957 408.889 CURVE",
"557.709 405.626 OFFCURVE",
"550.595 410.59 OFFCURVE",
"534.665 412.695 CURVE",
"529.1 414.086 OFFCURVE",
"528.065 414.326 OFFCURVE",
"525.845 415.355 CURVE SMOOTH",
"517.522 419.037 OFFCURVE",
"506.718 421.575 OFFCURVE",
"496.583 421.951 CURVE",
"456.353 431.771 OFFCURVE",
"426.938 441.096 OFFCURVE",
"402.092 452.138 CURVE SMOOTH",
"380.946 460.737 OFFCURVE",
"361.72 475.427 OFFCURVE",
"344.352 495.536 CURVE",
"344.931 495.06 LINE",
"332.139 511.85 OFFCURVE",
"325 536.683 OFFCURVE",
"325 565 CURVE SMOOTH",
"325 589.687 OFFCURVE",
"333.317 617.144 OFFCURVE",
"346.206 635.188 CURVE SMOOTH",
"363.285 657.423 OFFCURVE",
"384.464 673.154 OFFCURVE",
"411.016 682.576 CURVE SMOOTH",
"444.282 694.38 OFFCURVE",
"477.838 700 OFFCURVE",
"513 700 CURVE SMOOTH",
"542.97 700 OFFCURVE",
"568.59 697.35 OFFCURVE",
"592.919 688.591 CURVE SMOOTH",
"615.395 680.83 OFFCURVE",
"633.451 672.391 OFFCURVE",
"650.423 660.874 CURVE",
"661.704 649.762 OFFCURVE",
"671.836 637.107 OFFCURVE",
"681.77 623.962 CURVE",
"688.278 606.305 OFFCURVE",
"693 593.164 OFFCURVE",
"693 583 CURVE SMOOTH",
"693 570.55 OFFCURVE",
"689.123 559.801 OFFCURVE",
"682.393 553.071 CURVE",
"682.91 553.399 LINE",
"671.017 542.588 OFFCURVE",
"663.154 539 OFFCURVE",
"654 539 CURVE SMOOTH",
"645.739 539 OFFCURVE",
"640.809 541.205 OFFCURVE",
"632.209 547.894 CURVE",
"631.719 548.137 LINE",
"630.148 549.259 OFFCURVE",
"628.75 550.911 OFFCURVE",
"615.368 571.687 CURVE",
"609.387 589.099 OFFCURVE",
"597.438 604.555 OFFCURVE",
"578.37 619.809 CURVE",
"577.719 620.137 LINE",
"563.01 630.643 OFFCURVE",
"537.012 637 OFFCURVE",
"507 637 CURVE SMOOTH",
"476.942 637 OFFCURVE",
"448.561 629.547 OFFCURVE",
"433.465 616.829 CURVE",
"413.845 603.971 OFFCURVE",
"405 590.893 OFFCURVE",
"405 574 CURVE SMOOTH",
"405 570.259 OFFCURVE",
"406.764 566.242 OFFCURVE",
"407.971 562.338 CURVE SMOOTH",
"410.816 553.455 OFFCURVE",
"417.712 544.43 OFFCURVE",
"428.238 535.407 CURVE",
"429 535 LINE",
"440.21 526.593 OFFCURVE",
"446.135 523.409 OFFCURVE",
"458.488 519.022 CURVE",
"457.02 520.238 OFFCURVE",
"461.909 517.459 OFFCURVE",
"471.281 514.126 CURVE",
"470.893 514.309 OFFCURVE",
"481.783 511.086 OFFCURVE",
"477.841 511.663 CURVE",
"487.313 509.34 OFFCURVE",
"490.182 508.578 OFFCURVE",
"496.49 506.787 CURVE SMOOTH",
"501.764 505.378 OFFCURVE",
"506.731 505.271 OFFCURVE",
"511.399 504.68 CURVE",
"518.205 502 OFFCURVE",
"523.553 502 OFFCURVE",
"526.362 501.299 CURVE SMOOTH",
"541.536 497.505 OFFCURVE",
"568.897 491.642 OFFCURVE",
"606.372 479.488 CURVE",
"607.053 479.352 LINE",
"624.784 474.517 OFFCURVE",
"643.12 464.271 OFFCURVE",
"663.896 452.821 CURVE",
"679.776 441.109 OFFCURVE",
"691.876 427.98 OFFCURVE",
"702.766 411.096 CURVE",
"710.676 394.163 OFFCURVE",
"715 371.678 OFFCURVE",
"715 347 CURVE SMOOTH",
"715 318.795 OFFCURVE",
"706.95 292.203 OFFCURVE",
"691.596 269.623 CURVE",
"691.138 269.145 LINE",
"676.89 245.398 OFFCURVE",
"656.905 228.126 OFFCURVE",
"623.87 212.7 CURVE",
"587.153 200.723 OFFCURVE",
"551.051 195 OFFCURVE",
"516 195 CURVE SMOOTH",
"464.887 195 OFFCURVE",
"425.048 203.347 OFFCURVE",
"390.001 221.844 CURVE SMOOTH",
"370.834 232.185 OFFCURVE",
"353.19 248.675 OFFCURVE",
"334.131 274.882 CURVE",
"334.72 274.3 LINE",
"321.361 295.674 OFFCURVE",
"314 318.111 OFFCURVE",
"314 337 CURVE SMOOTH",
"314 348.634 OFFCURVE",
"317.796 357.969 OFFCURVE",
"325.09 364.601 CURVE",
"325.607 364.929 LINE",
"334.404 373.726 OFFCURVE",
"341.241 377 OFFCURVE",
"353 377 CURVE SMOOTH",
"358.353 377 OFFCURVE",
"363.912 375.088 OFFCURVE",
"376.299 369.028 CURVE",
"383.377 362.004 OFFCURVE",
"389.507 349.456 OFFCURVE",
"394.976 332.012 CURVE",
"397.087 331.538 OFFCURVE",
"398.491 329.495 OFFCURVE",
"400.519 326.453 CURVE",
"399.976 327.039 LINE",
"402.791 322.112 OFFCURVE",
"407.754 312.187 OFFCURVE",
"414.832 299.211 CURVE SMOOTH",
"420.004 289.935 OFFCURVE",
"433.13 280.137 OFFCURVE",
"451.292 271.056 CURVE",
"452.091 270.809 LINE",
"467.835 264.061 OFFCURVE",
"489.686 260 OFFCURVE",
"512 260 CURVE SMOOTH"
);
},
{
closed = 1;
nodes = (
"253 960 OFFCURVE",
"170 925 OFFCURVE",
"107 861 CURVE SMOOTH",
"44 797 OFFCURVE",
"12 717 OFFCURVE",
"12 628 CURVE SMOOTH",
"12 584 OFFCURVE",
"20 543 OFFCURVE",
"37 500 CURVE",
"33 481 OFFCURVE",
"33 462 OFFCURVE",
"33 444 CURVE SMOOTH",
"33 309 OFFCURVE",
"80 194 OFFCURVE",
"174 100 CURVE SMOOTH",
"266 4 OFFCURVE",
"382 -45 OFFCURVE",
"517 -45 CURVE SMOOTH",
"524 -45 OFFCURVE",
"533 -45 OFFCURVE",
"543 -43 CURVE",
"549 -43 OFFCURVE",
"555 -42 OFFCURVE",
"562 -42 CURVE",
"600 -56 OFFCURVE",
"641 -64 OFFCURVE",
"682 -64 CURVE SMOOTH",
"771 -64 OFFCURVE",
"853 -30 OFFCURVE",
"916 34 CURVE SMOOTH",
"979 98 OFFCURVE",
"1012 179 OFFCURVE",
"1012 269 CURVE SMOOTH",
"1012 306 OFFCURVE",
"1006 342 OFFCURVE",
"995 378 CURVE",
"998 397 OFFCURVE",
"999 417 OFFCURVE",
"999 444 CURVE SMOOTH",
"999 579 OFFCURVE",
"953 694 OFFCURVE",
"859 788 CURVE SMOOTH",
"767 885 OFFCURVE",
"651 934 OFFCURVE",
"517 934 CURVE SMOOTH",
"504 934 OFFCURVE",
"490 933 OFFCURVE",
"477 931 CURVE",
"437 950 OFFCURVE",
"391 960 OFFCURVE",
"342 960 CURVE SMOOTH"
);
},
{
closed = 1;
nodes = (
"389 940 OFFCURVE",
"431 930 OFFCURVE",
"471 910 CURVE",
"485 913 OFFCURVE",
"500 914 OFFCURVE",
"517 914 CURVE SMOOTH",
"643 914 OFFCURVE",
"748 869 OFFCURVE",
"838 775 CURVE SMOOTH",
"925 686 OFFCURVE",
"970 574 OFFCURVE",
"970 444 CURVE SMOOTH",
"970 416 OFFCURVE",
"968 394 OFFCURVE",
"965 377 CURVE",
"976 344 OFFCURVE",
"983 306 OFFCURVE",
"983 269 CURVE SMOOTH",
"983 183 OFFCURVE",
"952 106 OFFCURVE",
"895 48 CURVE SMOOTH",
"834 -14 OFFCURVE",
"763 -44 OFFCURVE",
"682 -44 CURVE SMOOTH",
"643 -44 OFFCURVE",
"605 -37 OFFCURVE",
"567 -21 CURVE",
"556 -23 OFFCURVE",
"542 -22 OFFCURVE",
"530 -25 CURVE",
"527 -26 OFFCURVE",
"523 -26 OFFCURVE",
"517 -26 CURVE SMOOTH",
"390 -26 OFFCURVE",
"285 20 OFFCURVE",
"195 113 CURVE SMOOTH",
"108 202 OFFCURVE",
"63 314 OFFCURVE",
"63 444 CURVE SMOOTH",
"63 464 OFFCURVE",
"63 484 OFFCURVE",
"67 501 CURVE",
"50 541 OFFCURVE",
"41 585 OFFCURVE",
"41 628 CURVE SMOOTH",
"41 713 OFFCURVE",
"72 790 OFFCURVE",
"128 847 CURVE SMOOTH",
"189 909 OFFCURVE",
"261 940 OFFCURVE",
"342 940 CURVE SMOOTH"
);
}
);
width = 1024;
}
);
unicode = E901;
},
{
glyphname = "sort-amount-asc";
lastChange = "2015-10-03 16:34:46 +0000";
layers = (
{
layerId = "177FC93B-1B38-4AFC-964F-9D8881365EE5";
name = Regular;
paths = (
{
closed = 1;
nodes = (
"448 228 OFFCURVE",
"443 230 OFFCURVE",
"436 230 CURVE SMOOTH",
"429 230 OFFCURVE",
"422 228 OFFCURVE",
"417 223 CURVE SMOOTH",
"256 62 LINE",
"256 947 LINE SMOOTH",
"256 962 OFFCURVE",
"245 973 OFFCURVE",
"230 973 CURVE SMOOTH",
"217 973 OFFCURVE",
"205 962 OFFCURVE",
"205 947 CURVE SMOOTH",
"205 62 LINE",
"44 223 LINE SMOOTH",
"39 228 OFFCURVE",
"33 230 OFFCURVE",
"26 230 CURVE SMOOTH",
"12 230 OFFCURVE",
"0 219 OFFCURVE",
"0 205 CURVE SMOOTH",
"0 198 OFFCURVE",
"2 192 OFFCURVE",
"7 187 CURVE SMOOTH",
"212 -18 LINE SMOOTH",
"217 -23 OFFCURVE",
"223 -26 OFFCURVE",
"230 -26 CURVE SMOOTH",
"237 -26 OFFCURVE",
"244 -23 OFFCURVE",
"249 -18 CURVE SMOOTH",
"453 187 LINE SMOOTH",
"458 192 OFFCURVE",
"461 198 OFFCURVE",
"461 205 CURVE SMOOTH",
"461 212 OFFCURVE",
"458 218 OFFCURVE",
"453 223 CURVE SMOOTH"
);
},
{
closed = 1;
nodes = (
"589 717 LINE SMOOTH",
"574 717 OFFCURVE",
"563 729 OFFCURVE",
"563 742 CURVE SMOOTH",
"563 845 LINE SMOOTH",
"563 858 OFFCURVE",
"574 870 OFFCURVE",
"589 870 CURVE SMOOTH",
"691 870 LINE SMOOTH",
"706 870 OFFCURVE",
"717 858 OFFCURVE",
"717 845 CURVE SMOOTH",
"717 742 LINE SMOOTH",
"717 729 OFFCURVE",
"706 717 OFFCURVE",
"691 717 CURVE SMOOTH"
);
},
{
closed = 1;
nodes = (
"666 768 LINE",
"666 819 LINE",
"614 819 LINE",
"614 768 LINE"
);
},
{
closed = 1;
nodes = (
"589 512 LINE SMOOTH",
"574 512 OFFCURVE",
"563 523 OFFCURVE",
"563 538 CURVE SMOOTH",
"563 640 LINE SMOOTH",
"563 655 OFFCURVE",
"574 666 OFFCURVE",
"589 666 CURVE SMOOTH",
"794 666 LINE SMOOTH",
"807 666 OFFCURVE",
"819 655 OFFCURVE",
"819 640 CURVE SMOOTH",
"819 538 LINE SMOOTH",
"819 523 OFFCURVE",
"807 512 OFFCURVE",
"794 512 CURVE SMOOTH"
);
},
{
closed = 1;
nodes = (
"768 563 LINE",
"768 614 LINE",
"614 614 LINE",
"614 563 LINE"
);
},
{
closed = 1;
nodes = (
"589 307 LINE SMOOTH",
"574 307 OFFCURVE",
"563 318 OFFCURVE",
"563 333 CURVE SMOOTH",
"563 435 LINE SMOOTH",
"563 450 OFFCURVE",
"574 461 OFFCURVE",
"589 461 CURVE SMOOTH",
"896 461 LINE SMOOTH",
"911 461 OFFCURVE",
"922 450 OFFCURVE",
"922 435 CURVE SMOOTH",
"922 333 LINE SMOOTH",
"922 318 OFFCURVE",
"911 307 OFFCURVE",
"896 307 CURVE SMOOTH"
);
},
{
closed = 1;
nodes = (
"870 358 LINE",
"870 410 LINE",
"614 410 LINE",
"614 358 LINE"
);
},
{
closed = 1;
nodes = (
"589 102 LINE SMOOTH",
"574 102 OFFCURVE",
"563 113 OFFCURVE",
"563 128 CURVE SMOOTH",
"563 230 LINE SMOOTH",
"563 245 OFFCURVE",
"574 256 OFFCURVE",
"589 256 CURVE SMOOTH",
"998 256 LINE SMOOTH",
"1013 256 OFFCURVE",
"1024 245 OFFCURVE",
"1024 230 CURVE SMOOTH",
"1024 128 LINE SMOOTH",
"1024 113 OFFCURVE",
"1013 102 OFFCURVE",
"998 102 CURVE SMOOTH"
);
},
{
closed = 1;
nodes = (
"973 154 LINE",
"973 205 LINE",
"614 205 LINE",
"614 154 LINE"
);
}
);
width = 1024;
}
);
unicode = E001;
},
{
glyphname = "sort-desc";
lastChange = "2015-10-03 16:36:05 +0000";
layers = (
{
layerId = "177FC93B-1B38-4AFC-964F-9D8881365EE5";
name = Regular;
paths = (
{
closed = 1;
nodes = (
"448 228 OFFCURVE",
"443 230 OFFCURVE",
"436 230 CURVE SMOOTH",
"429 230 OFFCURVE",
"422 228 OFFCURVE",
"417 223 CURVE SMOOTH",
"256 62 LINE",
"256 947 LINE SMOOTH",
"256 962 OFFCURVE",
"245 973 OFFCURVE",
"230 973 CURVE SMOOTH",
"217 973 OFFCURVE",
"205 962 OFFCURVE",
"205 947 CURVE SMOOTH",
"205 62 LINE",
"44 223 LINE SMOOTH",
"39 228 OFFCURVE",
"33 230 OFFCURVE",
"26 230 CURVE SMOOTH",
"12 230 OFFCURVE",
"0 219 OFFCURVE",
"0 205 CURVE SMOOTH",
"0 198 OFFCURVE",
"2 192 OFFCURVE",
"7 187 CURVE SMOOTH",
"212 -18 LINE SMOOTH",
"217 -23 OFFCURVE",
"223 -26 OFFCURVE",
"230 -26 CURVE SMOOTH",
"237 -26 OFFCURVE",
"244 -23 OFFCURVE",
"249 -18 CURVE SMOOTH",
"453 187 LINE SMOOTH",
"458 192 OFFCURVE",
"461 198 OFFCURVE",
"461 205 CURVE SMOOTH",
"461 212 OFFCURVE",
"458 218 OFFCURVE",
"453 223 CURVE SMOOTH"
);
},
{
closed = 1;
nodes = (
"706 255 OFFCURVE",
"717 243 OFFCURVE",
"717 230 CURVE SMOOTH",
"717 127 LINE SMOOTH",
"717 114 OFFCURVE",
"706 102 OFFCURVE",
"691 102 CURVE SMOOTH",
"589 102 LINE SMOOTH",
"574 102 OFFCURVE",
"563 114 OFFCURVE",
"563 127 CURVE SMOOTH",
"563 230 LINE SMOOTH",
"563 243 OFFCURVE",
"574 255 OFFCURVE",
"589 255 CURVE SMOOTH",
"691 255 LINE SMOOTH"
);
},
{
closed = 1;
nodes = (
"614 153 LINE",
"666 153 LINE",
"666 204 LINE",
"614 204 LINE"
);
},
{
closed = 1;
nodes = (
"807 460 OFFCURVE",
"819 449 OFFCURVE",
"819 434 CURVE SMOOTH",
"819 332 LINE SMOOTH",
"819 317 OFFCURVE",
"807 306 OFFCURVE",
"794 306 CURVE SMOOTH",
"589 306 LINE SMOOTH",
"574 306 OFFCURVE",
"563 317 OFFCURVE",
"563 332 CURVE SMOOTH",
"563 434 LINE SMOOTH",
"563 449 OFFCURVE",
"574 460 OFFCURVE",
"589 460 CURVE SMOOTH",
"794 460 LINE SMOOTH"
);
},
{
closed = 1;
nodes = (
"614 358 LINE",
"768 358 LINE",
"768 409 LINE",
"614 409 LINE"
);
},
{
closed = 1;
nodes = (
"911 665 OFFCURVE",
"922 654 OFFCURVE",
"922 639 CURVE SMOOTH",
"922 537 LINE SMOOTH",
"922 522 OFFCURVE",
"911 511 OFFCURVE",
"896 511 CURVE SMOOTH",
"589 511 LINE SMOOTH",
"574 511 OFFCURVE",
"563 522 OFFCURVE",
"563 537 CURVE SMOOTH",
"563 639 LINE SMOOTH",
"563 654 OFFCURVE",
"574 665 OFFCURVE",
"589 665 CURVE SMOOTH",
"896 665 LINE SMOOTH"
);
},
{
closed = 1;
nodes = (
"614 562 LINE",
"870 562 LINE",
"870 614 LINE",
"614 614 LINE"
);
},
{
closed = 1;
nodes = (
"1013 870 OFFCURVE",
"1024 859 OFFCURVE",
"1024 844 CURVE SMOOTH",
"1024 742 LINE SMOOTH",
"1024 727 OFFCURVE",
"1013 716 OFFCURVE",
"998 716 CURVE SMOOTH",
"589 716 LINE SMOOTH",
"574 716 OFFCURVE",
"563 727 OFFCURVE",
"563 742 CURVE SMOOTH",
"563 844 LINE SMOOTH",
"563 859 OFFCURVE",
"574 870 OFFCURVE",
"589 870 CURVE SMOOTH",
"998 870 LINE SMOOTH"
);
},
{
closed = 1;
nodes = (
"614 767 LINE",
"973 767 LINE",
"973 818 LINE",
"614 818 LINE"
);
}
);
width = 1024;
}
);
unicode = E002;
},
{
glyphname = star;
lastChange = "2015-11-03 15:35:07 +0000";
layers = (
{
layerId = "177FC93B-1B38-4AFC-964F-9D8881365EE5";
name = Regular;
paths = (
{
closed = 1;
nodes = (
"818 -2 OFFCURVE",
"813 -1 OFFCURVE",
"809 1 CURVE SMOOTH",
"511 163 LINE",
"213 1 LINE SMOOTH",
"204 -4 OFFCURVE",
"192 -4 OFFCURVE",
"183 2 CURVE",
"174 9 OFFCURVE",
"170 20 OFFCURVE",
"172 31 CURVE SMOOTH",
"226 356 LINE",
"10 572 LINE SMOOTH",
"2 579 OFFCURVE",
"-1 590 OFFCURVE",
"3 601 CURVE",
"6 611 OFFCURVE",
"14 618 OFFCURVE",
"25 620 CURVE",
"351 674 LINE",
"486 944 LINE SMOOTH",
"491 955 OFFCURVE",
"500 960 OFFCURVE",
"511 960 CURVE SMOOTH",
"522 960 OFFCURVE",
"531 955 OFFCURVE",
"536 944 CURVE SMOOTH",
"671 674 LINE",
"997 620 LINE",
"1008 618 OFFCURVE",
"1016 611 OFFCURVE",
"1019 601 CURVE",
"1023 590 OFFCURVE",
"1020 579 OFFCURVE",
"1012 572 CURVE SMOOTH",
"796 356 LINE",
"850 31 LINE SMOOTH",
"852 20 OFFCURVE",
"848 9 OFFCURVE",
"839 2 CURVE",
"834 0 OFFCURVE",
"828 -2 OFFCURVE",
"822 -2 CURVE SMOOTH"
);
},
{
closed = 1;
nodes = (
"515 224 OFFCURVE",
"520 223 OFFCURVE",
"525 220 CURVE",
"785 78 LINE",
"738 361 LINE SMOOTH",
"736 370 OFFCURVE",
"739 379 OFFCURVE",
"746 386 CURVE SMOOTH",
"933 573 LINE",
"648 621 LINE SMOOTH",
"639 622 OFFCURVE",
"632 628 OFFCURVE",
"627 636 CURVE SMOOTH",
"511 868 LINE",
"395 636 LINE SMOOTH",
"390 628 OFFCURVE",
"383 622 OFFCURVE",
"374 621 CURVE SMOOTH",
"89 573 LINE",
"276 386 LINE SMOOTH",
"283 379 OFFCURVE",
"286 370 OFFCURVE",
"284 361 CURVE SMOOTH",
"237 78 LINE",
"497 220 LINE",
"502 223 OFFCURVE",
"507 224 OFFCURVE",
"511 224 CURVE SMOOTH"
);
}
);
width = 1024;
}
);
unicode = E021;
},
{
glyphname = team;
lastChange = "2015-10-30 17:40:42 +0000";
layers = (
{
layerId = "177FC93B-1B38-4AFC-964F-9D8881365EE5";
name = Regular;
paths = (
{
closed = 1;
nodes = (
"665 633 OFFCURVE",
"664 644 OFFCURVE",
"662 660 CURVE SMOOTH",
"658 694 OFFCURVE",
"643 729 OFFCURVE",
"627 750 CURVE SMOOTH",
"620 760 OFFCURVE",
"611 769 OFFCURVE",
"601 777 CURVE",
"597 781 OFFCURVE",
"591 785 OFFCURVE",
"586 787 CURVE",
"603 806 OFFCURVE",
"614 830 OFFCURVE",
"614 858 CURVE SMOOTH",
"614 886 OFFCURVE",
"602 912 OFFCURVE",
"584 930 CURVE SMOOTH",
"565 948 OFFCURVE",
"539 960 OFFCURVE",
"511 960 CURVE SMOOTH",
"483 960 OFFCURVE",
"457 948 OFFCURVE",
"439 930 CURVE SMOOTH",
"420 912 OFFCURVE",
"409 886 OFFCURVE",
"409 858 CURVE SMOOTH",
"409 830 OFFCURVE",
"419 806 OFFCURVE",
"437 787 CURVE",
"431 785 OFFCURVE",
"426 781 OFFCURVE",
"421 777 CURVE",
"402 761 OFFCURVE",
"386 740 OFFCURVE",
"376 714 CURVE SMOOTH",
"367 692 OFFCURVE",
"362 673 OFFCURVE",
"360 655 CURVE SMOOTH",
"359 638 OFFCURVE",
"358 628 OFFCURVE",
"358 627 CURVE SMOOTH",
"358 613 OFFCURVE",
"369 602 OFFCURVE",
"383 602 CURVE SMOOTH",
"639 602 LINE",
"639 602 OFFCURVE",
"639 602 OFFCURVE",
"639 602 CURVE SMOOTH",
"639 602 OFFCURVE",
"639 602 OFFCURVE",
"639 602 CURVE",
"653 602 OFFCURVE",
"665 613 OFFCURVE",
"665 627 CURVE SMOOTH",
"665 628 OFFCURVE",
"665 628 OFFCURVE",
"665 628 CURVE SMOOTH",
"665 629 OFFCURVE",
"665 629 OFFCURVE",
"665 629 CURVE"
);
},
{
closed = 1;
nodes = (
"460 886 OFFCURVE",
"483 909 OFFCURVE",
"511 909 CURVE SMOOTH",
"539 909 OFFCURVE",
"562 886 OFFCURVE",
"562 858 CURVE SMOOTH",
"562 829 OFFCURVE",
"539 806 OFFCURVE",
"511 806 CURVE SMOOTH",
"483 806 OFFCURVE",
"460 829 OFFCURVE",
"460 858 CURVE SMOOTH"
);
},
{
closed = 1;
nodes = (
"413 665 OFFCURVE",
"417 680 OFFCURVE",
"423 694 CURVE SMOOTH",
"440 736 OFFCURVE",
"469 755 OFFCURVE",
"511 755 CURVE SMOOTH",
"548 755 OFFCURVE",
"572 739 OFFCURVE",
"587 718 CURVE SMOOTH",
"602 697 OFFCURVE",
"609 671 OFFCURVE",
"611 653 CURVE",
"411 653 LINE"
);
},
{
closed = 1;
nodes = (
"306 70 OFFCURVE",
"305 81 OFFCURVE",
"303 97 CURVE SMOOTH",
"299 130 OFFCURVE",
"284 165 OFFCURVE",
"269 186 CURVE SMOOTH",
"261 197 OFFCURVE",
"252 206 OFFCURVE",
"243 214 CURVE SMOOTH",
"240 216 OFFCURVE",
"238 218 OFFCURVE",
"235 219 CURVE SMOOTH",
"233 221 OFFCURVE",
"230 223 OFFCURVE",
"227 224 CURVE",
"245 243 OFFCURVE",
"255 268 OFFCURVE",
"255 294 CURVE SMOOTH",
"255 323 OFFCURVE",
"244 348 OFFCURVE",
"225 367 CURVE SMOOTH",
"207 385 OFFCURVE",
"181 397 OFFCURVE",
"153 397 CURVE SMOOTH",
"125 397 OFFCURVE",
"99 385 OFFCURVE",
"81 367 CURVE SMOOTH",
"62 348 OFFCURVE",
"50 323 OFFCURVE",
"50 294 CURVE SMOOTH",
"50 268 OFFCURVE",
"61 243 OFFCURVE",
"78 224 CURVE",
"73 221 OFFCURVE",
"68 218 OFFCURVE",
"63 214 CURVE",
"43 198 OFFCURVE",
"28 177 OFFCURVE",
"17 151 CURVE SMOOTH",
"8 129 OFFCURVE",
"3 110 OFFCURVE",
"2 92 CURVE SMOOTH",
"0 74 OFFCURVE",
"-1 65 OFFCURVE",
"-1 64 CURVE SMOOTH",
"-1 50 OFFCURVE",
"11 38 OFFCURVE",
"25 38 CURVE SMOOTH",
"281 38 LINE",
"281 38 OFFCURVE",
"281 38 OFFCURVE",
"281 38 CURVE SMOOTH",
"281 38 OFFCURVE",
"281 38 OFFCURVE",
"281 38 CURVE",
"295 38 OFFCURVE",
"306 50 OFFCURVE",
"306 64 CURVE",
"306 64 OFFCURVE",
"306 64 OFFCURVE",
"306 65 CURVE SMOOTH",
"306 65 OFFCURVE",
"306 65 OFFCURVE",
"306 66 CURVE SMOOTH"
);
},
{
closed = 1;
nodes = (
"102 323 OFFCURVE",
"125 346 OFFCURVE",
"153 346 CURVE SMOOTH",
"181 346 OFFCURVE",
"204 323 OFFCURVE",
"204 294 CURVE SMOOTH",
"204 266 OFFCURVE",
"181 243 OFFCURVE",
"153 243 CURVE SMOOTH",
"125 243 OFFCURVE",
"102 266 OFFCURVE",
"102 294 CURVE SMOOTH"
);
},
{
closed = 1;
nodes = (
"55 102 OFFCURVE",
"58 117 OFFCURVE",
"64 131 CURVE SMOOTH",
"82 172 OFFCURVE",
"111 192 OFFCURVE",
"153 192 CURVE SMOOTH",
"189 192 OFFCURVE",
"213 176 OFFCURVE",
"228 155 CURVE SMOOTH",
"243 134 OFFCURVE",
"250 108 OFFCURVE",
"253 90 CURVE",
"53 90 LINE"
);
},
{
closed = 1;
nodes = (
"1023 70 OFFCURVE",
"1022 81 OFFCURVE",
"1020 97 CURVE SMOOTH",
"1016 130 OFFCURVE",
"1001 165 OFFCURVE",
"986 186 CURVE SMOOTH",
"978 197 OFFCURVE",
"969 206 OFFCURVE",
"960 214 CURVE",
"954 218 OFFCURVE",
"950 221 OFFCURVE",
"944 224 CURVE",
"962 243 OFFCURVE",
"972 268 OFFCURVE",
"972 294 CURVE SMOOTH",
"972 323 OFFCURVE",
"960 348 OFFCURVE",
"942 367 CURVE SMOOTH",
"924 385 OFFCURVE",
"898 397 OFFCURVE",
"870 397 CURVE SMOOTH",
"841 397 OFFCURVE",
"816 385 OFFCURVE",
"797 367 CURVE SMOOTH",
"779 348 OFFCURVE",
"767 323 OFFCURVE",
"767 294 CURVE SMOOTH",
"767 268 OFFCURVE",
"778 243 OFFCURVE",
"795 224 CURVE",
"793 223 OFFCURVE",
"790 221 OFFCURVE",
"787 219 CURVE SMOOTH",
"785 218 OFFCURVE",
"782 216 OFFCURVE",
"780 214 CURVE SMOOTH",
"760 198 OFFCURVE",
"745 177 OFFCURVE",
"734 151 CURVE SMOOTH",
"725 129 OFFCURVE",
"720 110 OFFCURVE",
"719 92 CURVE SMOOTH",
"717 74 OFFCURVE",
"716 65 OFFCURVE",
"716 64 CURVE SMOOTH",
"716 50 OFFCURVE",
"728 38 OFFCURVE",
"742 38 CURVE SMOOTH",
"998 38 LINE",
"998 38 OFFCURVE",
"998 38 OFFCURVE",
"998 38 CURVE SMOOTH",
"998 38 OFFCURVE",
"998 38 OFFCURVE",
"998 38 CURVE",
"1012 38 OFFCURVE",
"1023 50 OFFCURVE",
"1023 64 CURVE",
"1023 64 OFFCURVE",
"1023 64 OFFCURVE",
"1023 65 CURVE SMOOTH",
"1023 65 OFFCURVE",
"1023 65 OFFCURVE",
"1023 66 CURVE SMOOTH"
);
},
{
closed = 1;
nodes = (
"818 323 OFFCURVE",
"841 346 OFFCURVE",
"870 346 CURVE SMOOTH",
"898 346 OFFCURVE",
"921 323 OFFCURVE",
"921 294 CURVE SMOOTH",
"921 266 OFFCURVE",
"898 243 OFFCURVE",
"870 243 CURVE SMOOTH",
"841 243 OFFCURVE",
"818 266 OFFCURVE",
"818 294 CURVE SMOOTH"
);
},
{
closed = 1;
nodes = (
"772 102 OFFCURVE",
"775 117 OFFCURVE",
"781 131 CURVE SMOOTH",
"799 172 OFFCURVE",
"827 192 OFFCURVE",
"870 192 CURVE SMOOTH",
"906 192 OFFCURVE",
"930 176 OFFCURVE",
"945 155 CURVE SMOOTH",
"960 134 OFFCURVE",
"966 108 OFFCURVE",
"970 90 CURVE",
"770 90 LINE"
);
},
{
closed = 1;
nodes = (
"478 -64 OFFCURVE",
"445 -60 OFFCURVE",
"413 -52 CURVE SMOOTH",
"381 -44 OFFCURVE",
"350 -32 OFFCURVE",
"320 -17 CURVE SMOOTH",
"308 -10 OFFCURVE",
"303 6 OFFCURVE",
"309 18 CURVE SMOOTH",
"316 30 OFFCURVE",
"332 35 OFFCURVE",
"344 29 CURVE SMOOTH",
"370 15 OFFCURVE",
"397 4 OFFCURVE",
"425 -2 CURVE SMOOTH",
"453 -9 OFFCURVE",
"482 -13 OFFCURVE",
"511 -13 CURVE SMOOTH",
"541 -13 OFFCURVE",
"569 -9 OFFCURVE",
"598 -2 CURVE SMOOTH",
"626 4 OFFCURVE",
"653 15 OFFCURVE",
"678 29 CURVE SMOOTH",
"691 35 OFFCURVE",
"707 30 OFFCURVE",
"713 18 CURVE SMOOTH",
"720 6 OFFCURVE",
"715 -10 OFFCURVE",
"702 -17 CURVE SMOOTH",
"673 -32 OFFCURVE",
"642 -44 OFFCURVE",
"610 -52 CURVE SMOOTH",
"578 -60 OFFCURVE",
"545 -64 OFFCURVE",
"511 -64 CURVE SMOOTH"
);
},
{
closed = 1;
nodes = (
"871 422 OFFCURVE",
"860 430 OFFCURVE",
"857 441 CURVE SMOOTH",
"845 484 OFFCURVE",
"825 524 OFFCURVE",
"799 559 CURVE SMOOTH",
"773 595 OFFCURVE",
"740 625 OFFCURVE",
"702 649 CURVE SMOOTH",
"690 657 OFFCURVE",
"687 672 OFFCURVE",
"694 684 CURVE SMOOTH",
"702 696 OFFCURVE",
"718 700 OFFCURVE",
"730 692 CURVE SMOOTH",
"773 665 OFFCURVE",
"810 630 OFFCURVE",
"840 590 CURVE SMOOTH",
"870 550 OFFCURVE",
"892 504 OFFCURVE",
"906 455 CURVE SMOOTH",
"910 441 OFFCURVE",
"902 427 OFFCURVE",
"888 423 CURVE",
"886 423 OFFCURVE",
"884 422 OFFCURVE",
"881 422 CURVE SMOOTH"
);
},
{
closed = 1;
nodes = (
"139 422 OFFCURVE",
"136 423 OFFCURVE",
"134 423 CURVE",
"121 427 OFFCURVE",
"113 441 OFFCURVE",
"116 455 CURVE SMOOTH",
"130 504 OFFCURVE",
"152 550 OFFCURVE",
"182 590 CURVE SMOOTH",
"212 630 OFFCURVE",
"249 665 OFFCURVE",
"293 692 CURVE SMOOTH",
"305 700 OFFCURVE",
"320 696 OFFCURVE",
"328 684 CURVE SMOOTH",
"336 672 OFFCURVE",
"332 657 OFFCURVE",
"320 649 CURVE SMOOTH",
"282 625 OFFCURVE",
"250 595 OFFCURVE",
"224 559 CURVE SMOOTH",
"197 524 OFFCURVE",
"178 484 OFFCURVE",
"166 441 CURVE SMOOTH",
"162 430 OFFCURVE",
"152 422 OFFCURVE",
"141 422 CURVE SMOOTH"
);
}
);
width = 1024;
}
);
unicode = E014;
},
{
glyphname = terminal;
lastChange = "2015-10-30 16:51:04 +0000";
layers = (
{
layerId = "177FC93B-1B38-4AFC-964F-9D8881365EE5";
name = Regular;
paths = (
{
closed = 1;
nodes = (
"75 0 LINE SMOOTH",
"33 0 OFFCURVE",
"-2 34 OFFCURVE",
"-2 77 CURVE SMOOTH",
"-2 742 LINE SMOOTH",
"-2 785 OFFCURVE",
"33 819 OFFCURVE",
"75 819 CURVE SMOOTH",
"945 819 LINE SMOOTH",
"988 819 OFFCURVE",
"1022 785 OFFCURVE",
"1022 742 CURVE SMOOTH",
"1022 77 LINE SMOOTH",
"1022 34 OFFCURVE",
"988 0 OFFCURVE",
"945 0 CURVE SMOOTH"
);
},
{
closed = 1;
nodes = (
"61 768 OFFCURVE",
"49 756 OFFCURVE",
"49 742 CURVE SMOOTH",
"49 77 LINE SMOOTH",
"49 63 OFFCURVE",
"61 51 OFFCURVE",
"75 51 CURVE SMOOTH",
"945 51 LINE SMOOTH",
"960 51 OFFCURVE",
"971 63 OFFCURVE",
"971 77 CURVE SMOOTH",
"971 742 LINE SMOOTH",
"971 756 OFFCURVE",
"960 768 OFFCURVE",
"945 768 CURVE SMOOTH",
"75 768 LINE SMOOTH"
);
},
{
closed = 1;
nodes = (
"169 410 OFFCURVE",
"161 413 OFFCURVE",
"156 421 CURVE",
"148 433 OFFCURVE",
"151 449 OFFCURVE",
"163 456 CURVE SMOOTH",
"285 538 LINE",
"163 619 LINE SMOOTH",
"151 627 OFFCURVE",
"148 642 OFFCURVE",
"156 654 CURVE SMOOTH",
"164 666 OFFCURVE",
"180 669 OFFCURVE",
"192 661 CURVE SMOOTH",
"345 559 LINE",
"353 554 OFFCURVE",
"357 546 OFFCURVE",
"357 538 CURVE SMOOTH",
"357 529 OFFCURVE",
"353 521 OFFCURVE",
"345 516 CURVE",
"192 414 LINE",
"187 411 OFFCURVE",
"183 410 OFFCURVE",
"177 410 CURVE SMOOTH"
);
},
{
closed = 1;
nodes = (
"433 410 LINE SMOOTH",
"419 410 OFFCURVE",
"408 421 OFFCURVE",
"408 435 CURVE SMOOTH",
"408 449 OFFCURVE",
"419 461 OFFCURVE",
"433 461 CURVE SMOOTH",
"587 461 LINE SMOOTH",
"601 461 OFFCURVE",
"613 449 OFFCURVE",
"613 435 CURVE SMOOTH",
"613 421 OFFCURVE",
"601 410 OFFCURVE",
"587 410 CURVE SMOOTH"
);
}
);
width = 1024;
}
);
unicode = E012;
},
{
glyphname = trippleldown;
lastChange = "2015-10-13 14:40:27 +0000";
layers = (
{
layerId = "177FC93B-1B38-4AFC-964F-9D8881365EE5";
name = Regular;
paths = (
{
closed = 1;
nodes = (
"23 494 OFFCURVE",
"26 500 OFFCURVE",
"30 505 CURVE",
"35 510 OFFCURVE",
"42 512 OFFCURVE",
"49 512 CURVE SMOOTH",
"56 512 OFFCURVE",
"62 510 OFFCURVE",
"67 505 CURVE SMOOTH",
"509 62 LINE",
"952 505 LINE SMOOTH",
"957 510 OFFCURVE",
"964 512 OFFCURVE",
"971 512 CURVE SMOOTH",
"985 512 OFFCURVE",
"996 501 OFFCURVE",
"996 487 CURVE SMOOTH",
"996 480 OFFCURVE",
"993 473 OFFCURVE",
"988 468 CURVE SMOOTH",
"528 8 LINE SMOOTH",
"523 3 OFFCURVE",
"517 0 OFFCURVE",
"510 0 CURVE SMOOTH",
"503 0 OFFCURVE",
"496 3 OFFCURVE",
"491 8 CURVE SMOOTH",
"30 468 LINE",
"26 473 OFFCURVE",
"23 480 OFFCURVE",
"23 487 CURVE SMOOTH"
);
},
{
closed = 1;
nodes = (
"23 704 OFFCURVE",
"26 710 OFFCURVE",
"30 715 CURVE",
"35 720 OFFCURVE",
"42 722 OFFCURVE",
"49 722 CURVE SMOOTH",
"56 722 OFFCURVE",
"62 720 OFFCURVE",
"67 715 CURVE SMOOTH",
"509 272 LINE",
"952 715 LINE SMOOTH",
"957 720 OFFCURVE",
"964 722 OFFCURVE",
"971 722 CURVE SMOOTH",
"985 722 OFFCURVE",
"996 711 OFFCURVE",
"996 697 CURVE SMOOTH",
"996 690 OFFCURVE",
"993 683 OFFCURVE",
"988 678 CURVE SMOOTH",
"528 218 LINE SMOOTH",
"523 213 OFFCURVE",
"517 210 OFFCURVE",
"510 210 CURVE SMOOTH",
"503 210 OFFCURVE",
"496 213 OFFCURVE",
"491 218 CURVE SMOOTH",
"30 678 LINE",
"26 683 OFFCURVE",
"23 690 OFFCURVE",
"23 697 CURVE SMOOTH"
);
},
{
closed = 1;
nodes = (
"23 914 OFFCURVE",
"26 920 OFFCURVE",
"30 925 CURVE",
"35 930 OFFCURVE",
"42 932 OFFCURVE",
"49 932 CURVE SMOOTH",
"56 932 OFFCURVE",
"62 930 OFFCURVE",
"67 925 CURVE SMOOTH",
"509 482 LINE",
"952 925 LINE SMOOTH",
"957 930 OFFCURVE",
"964 932 OFFCURVE",
"971 932 CURVE SMOOTH",
"985 932 OFFCURVE",
"996 921 OFFCURVE",
"996 907 CURVE SMOOTH",
"996 900 OFFCURVE",
"993 893 OFFCURVE",
"988 888 CURVE SMOOTH",
"528 428 LINE SMOOTH",
"523 423 OFFCURVE",
"517 420 OFFCURVE",
"510 420 CURVE SMOOTH",
"503 420 OFFCURVE",
"496 423 OFFCURVE",
"491 428 CURVE SMOOTH",
"30 888 LINE",
"26 893 OFFCURVE",
"23 900 OFFCURVE",
"23 907 CURVE SMOOTH"
);
}
);
width = 1024;
}
);
unicode = E004;
},
{
glyphname = trippleup;
lastChange = "2015-10-13 14:41:37 +0000";
layers = (
{
layerId = "177FC93B-1B38-4AFC-964F-9D8881365EE5";
name = Regular;
paths = (
{
closed = 1;
nodes = (
"23 452 OFFCURVE",
"26 459 OFFCURVE",
"30 464 CURVE",
"491 924 LINE SMOOTH",
"496 929 OFFCURVE",
"503 932 OFFCURVE",
"510 932 CURVE SMOOTH",
"517 932 OFFCURVE",
"523 929 OFFCURVE",
"528 924 CURVE SMOOTH",
"988 464 LINE SMOOTH",
"993 459 OFFCURVE",
"996 452 OFFCURVE",
"996 445 CURVE SMOOTH",
"996 431 OFFCURVE",
"985 420 OFFCURVE",
"971 420 CURVE SMOOTH",
"964 420 OFFCURVE",
"957 422 OFFCURVE",
"952 427 CURVE SMOOTH",
"509 870 LINE",
"67 427 LINE SMOOTH",
"62 422 OFFCURVE",
"56 420 OFFCURVE",
"49 420 CURVE SMOOTH",
"42 420 OFFCURVE",
"35 422 OFFCURVE",
"30 427 CURVE",
"26 432 OFFCURVE",
"23 438 OFFCURVE",
"23 445 CURVE SMOOTH"
);
},
{
closed = 1;
nodes = (
"23 242 OFFCURVE",
"26 249 OFFCURVE",
"30 254 CURVE",
"491 714 LINE SMOOTH",
"496 719 OFFCURVE",
"503 722 OFFCURVE",
"510 722 CURVE SMOOTH",
"517 722 OFFCURVE",
"523 719 OFFCURVE",
"528 714 CURVE SMOOTH",
"988 254 LINE SMOOTH",
"993 249 OFFCURVE",
"996 242 OFFCURVE",
"996 235 CURVE SMOOTH",
"996 221 OFFCURVE",
"985 210 OFFCURVE",
"971 210 CURVE SMOOTH",
"964 210 OFFCURVE",
"957 212 OFFCURVE",
"952 217 CURVE SMOOTH",
"509 660 LINE",
"67 217 LINE SMOOTH",
"62 212 OFFCURVE",
"56 210 OFFCURVE",
"49 210 CURVE SMOOTH",
"42 210 OFFCURVE",
"35 212 OFFCURVE",
"30 217 CURVE",
"26 222 OFFCURVE",
"23 228 OFFCURVE",
"23 235 CURVE SMOOTH"
);
},
{
closed = 1;
nodes = (
"23 32 OFFCURVE",
"26 39 OFFCURVE",
"30 44 CURVE",
"491 504 LINE SMOOTH",
"496 509 OFFCURVE",
"503 512 OFFCURVE",
"510 512 CURVE SMOOTH",
"517 512 OFFCURVE",
"523 509 OFFCURVE",
"528 504 CURVE SMOOTH",
"988 44 LINE SMOOTH",
"993 39 OFFCURVE",
"996 32 OFFCURVE",
"996 25 CURVE SMOOTH",
"996 11 OFFCURVE",
"985 0 OFFCURVE",
"971 0 CURVE SMOOTH",
"964 0 OFFCURVE",
"957 2 OFFCURVE",
"952 7 CURVE SMOOTH",
"509 450 LINE",
"67 7 LINE SMOOTH",
"62 2 OFFCURVE",
"56 0 OFFCURVE",
"49 0 CURVE SMOOTH",
"42 0 OFFCURVE",
"35 2 OFFCURVE",
"30 7 CURVE",
"26 12 OFFCURVE",
"23 18 OFFCURVE",
"23 25 CURVE SMOOTH"
);
}
);
width = 1024;
}
);
unicode = E005;
},
{
glyphname = uniE011;
layers = (
{
layerId = "177FC93B-1B38-4AFC-964F-9D8881365EE5";
name = Regular;
paths = (
{
closed = 1;
nodes = (
"48 960 LINE SMOOTH",
"20 960 OFFCURVE",
"0 940 OFFCURVE",
"0 912 CURVE SMOOTH",
"0 -16 LINE SMOOTH",
"0 -44 OFFCURVE",
"20 -64 OFFCURVE",
"48 -64 CURVE SMOOTH",
"1136 -64 LINE SMOOTH",
"1164 -64 OFFCURVE",
"1184 -44 OFFCURVE",
"1184 -16 CURVE SMOOTH",
"1184 912 LINE SMOOTH",
"1184 940 OFFCURVE",
"1164 960 OFFCURVE",
"1136 960 CURVE SMOOTH",
"240 960 LINE"
);
},
{
closed = 1;
nodes = (
"32 912 LINE SMOOTH",
"32 923 OFFCURVE",
"37 928 OFFCURVE",
"48 928 CURVE SMOOTH",
"224 928 LINE",
"224 -32 LINE",
"48 -32 LINE SMOOTH",
"37 -32 OFFCURVE",
"32 -27 OFFCURVE",
"32 -16 CURVE SMOOTH"
);
},
{
closed = 1;
nodes = (
"256 928 LINE",
"928 928 LINE",
"928 -32 LINE",
"256 -32 LINE"
);
},
{
closed = 1;
nodes = (
"1152 -16 LINE SMOOTH",
"1152 -27 OFFCURVE",
"1147 -32 OFFCURVE",
"1136 -32 CURVE SMOOTH",
"960 -32 LINE",
"960 928 LINE",
"1136 928 LINE SMOOTH",
"1147 928 OFFCURVE",
"1152 923 OFFCURVE",
"1152 912 CURVE SMOOTH"
);
},
{
closed = 1;
nodes = (
"470 639 OFFCURVE",
"468 640 OFFCURVE",
"465 640 CURVE SMOOTH",
"459 640 OFFCURVE",
"454 637 OFFCURVE",
"451 632 CURVE",
"449 629 OFFCURVE",
"448 627 OFFCURVE",
"448 624 CURVE SMOOTH",
"448 240 LINE SMOOTH",
"448 235 OFFCURVE",
"452 229 OFFCURVE",
"456 226 CURVE",
"459 225 OFFCURVE",
"461 224 OFFCURVE",
"464 224 CURVE SMOOTH",
"467 224 OFFCURVE",
"470 224 OFFCURVE",
"473 227 CURVE",
"761 419 LINE",
"765 422 OFFCURVE",
"768 427 OFFCURVE",
"768 432 CURVE SMOOTH",
"768 437 OFFCURVE",
"765 442 OFFCURVE",
"761 445 CURVE",
"473 637 LINE SMOOTH"
);
},
{
closed = 1;
nodes = (
"480 594 LINE",
"723 432 LINE",
"480 270 LINE"
);
},
{
closed = 1;
nodes = (
"96 704 LINE SMOOTH",
"87 704 OFFCURVE",
"80 697 OFFCURVE",
"80 688 CURVE SMOOTH",
"80 679 OFFCURVE",
"87 672 OFFCURVE",
"96 672 CURVE SMOOTH",
"160 672 LINE SMOOTH",
"169 672 OFFCURVE",
"176 679 OFFCURVE",
"176 688 CURVE SMOOTH",
"176 697 OFFCURVE",
"169 704 OFFCURVE",
"160 704 CURVE SMOOTH"
);
},
{
closed = 1;
nodes = (
"160 800 LINE SMOOTH",
"169 800 OFFCURVE",
"176 807 OFFCURVE",
"176 816 CURVE SMOOTH",
"176 825 OFFCURVE",
"169 832 OFFCURVE",
"160 832 CURVE SMOOTH",
"96 832 LINE SMOOTH",
"87 832 OFFCURVE",
"80 825 OFFCURVE",
"80 816 CURVE SMOOTH",
"80 807 OFFCURVE",
"87 800 OFFCURVE",
"96 800 CURVE SMOOTH"
);
},
{
closed = 1;
nodes = (
"96 576 LINE SMOOTH",
"87 576 OFFCURVE",
"80 569 OFFCURVE",
"80 560 CURVE SMOOTH",
"80 551 OFFCURVE",
"87 544 OFFCURVE",
"96 544 CURVE SMOOTH",
"160 544 LINE SMOOTH",
"169 544 OFFCURVE",
"176 551 OFFCURVE",
"176 560 CURVE SMOOTH",
"176 569 OFFCURVE",
"169 576 OFFCURVE",
"160 576 CURVE SMOOTH"
);
},
{
closed = 1;
nodes = (
"96 448 LINE SMOOTH",
"87 448 OFFCURVE",
"80 441 OFFCURVE",
"80 432 CURVE SMOOTH",
"80 423 OFFCURVE",
"87 416 OFFCURVE",
"96 416 CURVE SMOOTH",
"160 416 LINE SMOOTH",
"169 416 OFFCURVE",
"176 423 OFFCURVE",
"176 432 CURVE SMOOTH",
"176 441 OFFCURVE",
"169 448 OFFCURVE",
"160 448 CURVE SMOOTH"
);
},
{
closed = 1;
nodes = (
"96 320 LINE SMOOTH",
"87 320 OFFCURVE",
"80 313 OFFCURVE",
"80 304 CURVE SMOOTH",
"80 295 OFFCURVE",
"87 288 OFFCURVE",
"96 288 CURVE SMOOTH",
"160 288 LINE SMOOTH",
"169 288 OFFCURVE",
"176 295 OFFCURVE",
"176 304 CURVE SMOOTH",
"176 313 OFFCURVE",
"169 320 OFFCURVE",
"160 320 CURVE SMOOTH"
);
},
{
closed = 1;
nodes = (
"96 192 LINE SMOOTH",
"87 192 OFFCURVE",
"80 185 OFFCURVE",
"80 176 CURVE SMOOTH",
"80 167 OFFCURVE",
"87 160 OFFCURVE",
"96 160 CURVE SMOOTH",
"160 160 LINE SMOOTH",
"169 160 OFFCURVE",
"176 167 OFFCURVE",
"176 176 CURVE SMOOTH",
"176 185 OFFCURVE",
"169 192 OFFCURVE",
"160 192 CURVE SMOOTH"
);
},
{
closed = 1;
nodes = (
"96 64 LINE SMOOTH",
"87 64 OFFCURVE",
"80 57 OFFCURVE",
"80 48 CURVE SMOOTH",
"80 39 OFFCURVE",
"87 32 OFFCURVE",
"96 32 CURVE SMOOTH",
"160 32 LINE SMOOTH",
"169 32 OFFCURVE",
"176 39 OFFCURVE",
"176 48 CURVE SMOOTH",
"176 57 OFFCURVE",
"169 64 OFFCURVE",
"160 64 CURVE SMOOTH"
);
},
{
closed = 1;
nodes = (
"1088 672 LINE SMOOTH",
"1097 672 OFFCURVE",
"1104 679 OFFCURVE",
"1104 688 CURVE SMOOTH",
"1104 697 OFFCURVE",
"1097 704 OFFCURVE",
"1088 704 CURVE SMOOTH",
"1024 704 LINE SMOOTH",
"1015 704 OFFCURVE",
"1008 697 OFFCURVE",
"1008 688 CURVE SMOOTH",
"1008 679 OFFCURVE",
"1015 672 OFFCURVE",
"1024 672 CURVE SMOOTH"
);
},
{
closed = 1;
nodes = (
"1088 800 LINE SMOOTH",
"1097 800 OFFCURVE",
"1104 807 OFFCURVE",
"1104 816 CURVE SMOOTH",
"1104 825 OFFCURVE",
"1097 832 OFFCURVE",
"1088 832 CURVE SMOOTH",
"1024 832 LINE SMOOTH",
"1015 832 OFFCURVE",
"1008 825 OFFCURVE",
"1008 816 CURVE SMOOTH",
"1008 807 OFFCURVE",
"1015 800 OFFCURVE",
"1024 800 CURVE SMOOTH"
);
},
{
closed = 1;
nodes = (
"1088 544 LINE SMOOTH",
"1097 544 OFFCURVE",
"1104 551 OFFCURVE",
"1104 560 CURVE SMOOTH",
"1104 569 OFFCURVE",
"1097 576 OFFCURVE",
"1088 576 CURVE SMOOTH",
"1024 576 LINE SMOOTH",
"1015 576 OFFCURVE",
"1008 569 OFFCURVE",
"1008 560 CURVE SMOOTH",
"1008 551 OFFCURVE",
"1015 544 OFFCURVE",
"1024 544 CURVE SMOOTH"
);
},
{
closed = 1;
nodes = (
"1088 416 LINE SMOOTH",
"1097 416 OFFCURVE",
"1104 423 OFFCURVE",
"1104 432 CURVE SMOOTH",
"1104 441 OFFCURVE",
"1097 448 OFFCURVE",
"1088 448 CURVE SMOOTH",
"1024 448 LINE SMOOTH",
"1015 448 OFFCURVE",
"1008 441 OFFCURVE",
"1008 432 CURVE SMOOTH",
"1008 423 OFFCURVE",
"1015 416 OFFCURVE",
"1024 416 CURVE SMOOTH"
);
},
{
closed = 1;
nodes = (
"1088 288 LINE SMOOTH",
"1097 288 OFFCURVE",
"1104 295 OFFCURVE",
"1104 304 CURVE SMOOTH",
"1104 313 OFFCURVE",
"1097 320 OFFCURVE",
"1088 320 CURVE SMOOTH",
"1024 320 LINE SMOOTH",
"1015 320 OFFCURVE",
"1008 313 OFFCURVE",
"1008 304 CURVE SMOOTH",
"1008 295 OFFCURVE",
"1015 288 OFFCURVE",
"1024 288 CURVE SMOOTH"
);
},
{
closed = 1;
nodes = (
"1088 160 LINE SMOOTH",
"1097 160 OFFCURVE",
"1104 167 OFFCURVE",
"1104 176 CURVE SMOOTH",
"1104 185 OFFCURVE",
"1097 192 OFFCURVE",
"1088 192 CURVE SMOOTH",
"1024 192 LINE SMOOTH",
"1015 192 OFFCURVE",
"1008 185 OFFCURVE",
"1008 176 CURVE SMOOTH",
"1008 167 OFFCURVE",
"1015 160 OFFCURVE",
"1024 160 CURVE SMOOTH"
);
},
{
closed = 1;
nodes = (
"1024 64 LINE SMOOTH",
"1015 64 OFFCURVE",
"1008 57 OFFCURVE",
"1008 48 CURVE SMOOTH",
"1008 39 OFFCURVE",
"1015 32 OFFCURVE",
"1024 32 CURVE SMOOTH",
"1088 32 LINE SMOOTH",
"1097 32 OFFCURVE",
"1104 39 OFFCURVE",
"1104 48 CURVE SMOOTH",
"1104 57 OFFCURVE",
"1097 64 OFFCURVE",
"1088 64 CURVE SMOOTH"
);
}
);
width = 1184;
}
);
unicode = E011;
},
{
glyphname = uniE039;
layers = (
{
layerId = "177FC93B-1B38-4AFC-964F-9D8881365EE5";
name = Regular;
paths = (
{
closed = 1;
nodes = (
"1195 960 OFFCURVE",
"1152 917 OFFCURVE",
"1152 864 CURVE SMOOTH",
"1152 836 OFFCURVE",
"1165 810 OFFCURVE",
"1184 793 CURVE",
"903 344 LINE",
"891 349 OFFCURVE",
"877 352 OFFCURVE",
"864 352 CURVE SMOOTH",
"836 352 OFFCURVE",
"811 340 OFFCURVE",
"794 321 CURVE",
"503 505 LINE",
"510 517 OFFCURVE",
"512 531 OFFCURVE",
"512 544 CURVE SMOOTH",
"512 597 OFFCURVE",
"469 640 OFFCURVE",
"416 640 CURVE SMOOTH",
"363 640 OFFCURVE",
"320 597 OFFCURVE",
"320 544 CURVE SMOOTH",
"320 515 OFFCURVE",
"333 489 OFFCURVE",
"353 472 CURVE",
"133 121 LINE",
"121 125 OFFCURVE",
"109 128 OFFCURVE",
"96 128 CURVE SMOOTH",
"43 128 OFFCURVE",
"0 85 OFFCURVE",
"0 32 CURVE SMOOTH",
"0 -21 OFFCURVE",
"43 -64 OFFCURVE",
"96 -64 CURVE SMOOTH",
"149 -64 OFFCURVE",
"192 -21 OFFCURVE",
"192 32 CURVE SMOOTH",
"192 60 OFFCURVE",
"179 86 OFFCURVE",
"160 103 CURVE",
"381 455 LINE",
"392 451 OFFCURVE",
"404 448 OFFCURVE",
"416 448 CURVE SMOOTH",
"444 448 OFFCURVE",
"469 459 OFFCURVE",
"486 478 CURVE",
"776 294 LINE",
"771 283 OFFCURVE",
"768 269 OFFCURVE",
"768 256 CURVE SMOOTH",
"768 203 OFFCURVE",
"811 160 OFFCURVE",
"864 160 CURVE SMOOTH",
"917 160 OFFCURVE",
"960 203 OFFCURVE",
"960 256 CURVE SMOOTH",
"960 284 OFFCURVE",
"948 309 OFFCURVE",
"929 326 CURVE",
"1211 775 LINE",
"1223 771 OFFCURVE",
"1235 768 OFFCURVE",
"1248 768 CURVE SMOOTH",
"1301 768 OFFCURVE",
"1344 811 OFFCURVE",
"1344 864 CURVE SMOOTH",
"1344 917 OFFCURVE",
"1301 960 OFFCURVE",
"1248 960 CURVE SMOOTH"
);
},
{
closed = 1;
nodes = (
"160 -3 OFFCURVE",
"131 -32 OFFCURVE",
"96 -32 CURVE SMOOTH",
"61 -32 OFFCURVE",
"32 -3 OFFCURVE",
"32 32 CURVE SMOOTH",
"32 67 OFFCURVE",
"61 96 OFFCURVE",
"96 96 CURVE SMOOTH",
"131 96 OFFCURVE",
"160 67 OFFCURVE",
"160 32 CURVE SMOOTH"
);
},
{
closed = 1;
nodes = (
"381 480 OFFCURVE",
"352 509 OFFCURVE",
"352 544 CURVE SMOOTH",
"352 579 OFFCURVE",
"381 608 OFFCURVE",
"416 608 CURVE SMOOTH",
"451 608 OFFCURVE",
"480 579 OFFCURVE",
"480 544 CURVE SMOOTH",
"480 509 OFFCURVE",
"451 480 OFFCURVE",
"416 480 CURVE SMOOTH"
);
},
{
closed = 1;
nodes = (
"829 192 OFFCURVE",
"800 221 OFFCURVE",
"800 256 CURVE SMOOTH",
"800 291 OFFCURVE",
"829 320 OFFCURVE",
"864 320 CURVE SMOOTH",
"899 320 OFFCURVE",
"928 291 OFFCURVE",
"928 256 CURVE SMOOTH",
"928 221 OFFCURVE",
"899 192 OFFCURVE",
"864 192 CURVE SMOOTH"
);
},
{
closed = 1;
nodes = (
"1213 800 OFFCURVE",
"1184 829 OFFCURVE",
"1184 864 CURVE SMOOTH",
"1184 899 OFFCURVE",
"1213 928 OFFCURVE",
"1248 928 CURVE SMOOTH",
"1283 928 OFFCURVE",
"1312 899 OFFCURVE",
"1312 864 CURVE SMOOTH",
"1312 829 OFFCURVE",
"1283 800 OFFCURVE",
"1248 800 CURVE SMOOTH"
);
}
);
width = 1344;
}
);
unicode = E039;
},
{
glyphname = uniE040;
layers = (
{
layerId = "177FC93B-1B38-4AFC-964F-9D8881365EE5";
name = Regular;
paths = (
{
closed = 1;
nodes = (
"24 -66 OFFCURVE",
"33 -61 OFFCURVE",
"36 -52 CURVE",
"52 9 OFFCURVE",
"94 49 OFFCURVE",
"142 74 CURVE SMOOTH",
"189 99 OFFCURVE",
"243 113 OFFCURVE",
"283 122 CURVE SMOOTH",
"303 126 OFFCURVE",
"318 130 OFFCURVE",
"329 135 CURVE SMOOTH",
"420 174 OFFCURVE",
"450 238 OFFCURVE",
"459 285 CURVE",
"459 290 OFFCURVE",
"458 296 OFFCURVE",
"453 300 CURVE SMOOTH",
"406 340 OFFCURVE",
"365 402 OFFCURVE",
"340 473 CURVE",
"340 474 OFFCURVE",
"338 477 OFFCURVE",
"337 478 CURVE",
"304 515 OFFCURVE",
"285 553 OFFCURVE",
"285 584 CURVE SMOOTH",
"285 601 OFFCURVE",
"291 614 OFFCURVE",
"306 623 CURVE SMOOTH",
"311 626 OFFCURVE",
"314 631 OFFCURVE",
"314 636 CURVE",
"318 717 OFFCURVE",
"349 790 OFFCURVE",
"397 843 CURVE SMOOTH",
"444 895 OFFCURVE",
"508 928 OFFCURVE",
"580 928 CURVE",
"580 928 OFFCURVE",
"581 928 OFFCURVE",
"582 928 CURVE SMOOTH",
"583 928 OFFCURVE",
"583 928 OFFCURVE",
"583 928 CURVE",
"655 927 OFFCURVE",
"719 893 OFFCURVE",
"767 840 CURVE SMOOTH",
"814 787 OFFCURVE",
"843 712 OFFCURVE",
"846 629 CURVE",
"846 625 OFFCURVE",
"848 621 OFFCURVE",
"852 618 CURVE",
"861 609 OFFCURVE",
"866 599 OFFCURVE",
"866 584 CURVE SMOOTH",
"866 559 OFFCURVE",
"852 527 OFFCURVE",
"828 495 CURVE",
"827 494 OFFCURVE",
"827 494 OFFCURVE",
"827 493 CURVE",
"826 492 OFFCURVE",
"826 491 OFFCURVE",
"825 490 CURVE",
"800 409 OFFCURVE",
"754 337 OFFCURVE",
"699 293 CURVE SMOOTH",
"695 290 OFFCURVE",
"693 283 OFFCURVE",
"693 278 CURVE",
"702 231 OFFCURVE",
"732 168 OFFCURVE",
"823 128 CURVE SMOOTH",
"828 126 OFFCURVE",
"835 124 OFFCURVE",
"844 122 CURVE SMOOTH",
"852 120 OFFCURVE",
"861 118 OFFCURVE",
"872 115 CURVE",
"912 107 OFFCURVE",
"964 95 OFFCURVE",
"1012 71 CURVE SMOOTH",
"1059 46 OFFCURVE",
"1100 8 OFFCURVE",
"1116 -52 CURVE",
"1119 -59 OFFCURVE",
"1125 -64 OFFCURVE",
"1132 -64 CURVE SMOOTH",
"1133 -64 OFFCURVE",
"1133 -64 OFFCURVE",
"1134 -64 CURVE SMOOTH",
"1135 -64 OFFCURVE",
"1135 -64 OFFCURVE",
"1136 -63 CURVE",
"1144 -62 OFFCURVE",
"1150 -52 OFFCURVE",
"1147 -44 CURVE",
"1128 27 OFFCURVE",
"1081 70 OFFCURVE",
"1029 98 CURVE SMOOTH",
"977 125 OFFCURVE",
"919 138 OFFCURVE",
"879 147 CURVE SMOOTH",
"860 151 OFFCURVE",
"844 154 OFFCURVE",
"836 158 CURVE",
"776 183 OFFCURVE",
"740 223 OFFCURVE",
"727 275 CURVE",
"782 322 OFFCURVE",
"828 395 OFFCURVE",
"855 478 CURVE",
"883 514 OFFCURVE",
"898 552 OFFCURVE",
"898 584 CURVE SMOOTH",
"898 605 OFFCURVE",
"891 624 OFFCURVE",
"878 637 CURVE",
"874 726 OFFCURVE",
"840 807 OFFCURVE",
"788 865 CURVE SMOOTH",
"735 923 OFFCURVE",
"663 959 OFFCURVE",
"583 960 CURVE SMOOTH",
"578 960 LINE SMOOTH",
"501 960 OFFCURVE",
"429 925 OFFCURVE",
"377 869 CURVE SMOOTH",
"324 812 OFFCURVE",
"288 733 OFFCURVE",
"283 645 CURVE",
"263 630 OFFCURVE",
"253 609 OFFCURVE",
"253 584 CURVE SMOOTH",
"253 545 OFFCURVE",
"274 500 OFFCURVE",
"311 459 CURVE",
"338 388 OFFCURVE",
"377 326 OFFCURVE",
"425 282 CURVE",
"413 230 OFFCURVE",
"376 191 OFFCURVE",
"316 164 CURVE",
"308 161 OFFCURVE",
"294 157 OFFCURVE",
"275 153 CURVE SMOOTH",
"235 144 OFFCURVE",
"176 129 OFFCURVE",
"124 100 CURVE SMOOTH",
"71 71 OFFCURVE",
"24 27 OFFCURVE",
"5 -44 CURVE",
"2 -52 OFFCURVE",
"8 -62 OFFCURVE",
"16 -63 CURVE"
);
}
);
width = 1152;
}
);
unicode = E040;
},
{
glyphname = uniE041;
layers = (
{
layerId = "177FC93B-1B38-4AFC-964F-9D8881365EE5";
name = Regular;
paths = (
{
closed = 1;
nodes = (
"706 297 OFFCURVE",
"701 296 OFFCURVE",
"697 292 CURVE",
"694 288 OFFCURVE",
"693 283 OFFCURVE",
"693 278 CURVE",
"702 231 OFFCURVE",
"732 168 OFFCURVE",
"823 128 CURVE SMOOTH",
"828 126 OFFCURVE",
"835 124 OFFCURVE",
"844 122 CURVE SMOOTH",
"852 120 OFFCURVE",
"861 118 OFFCURVE",
"872 115 CURVE",
"912 107 OFFCURVE",
"964 95 OFFCURVE",
"1012 71 CURVE SMOOTH",
"1059 46 OFFCURVE",
"1100 8 OFFCURVE",
"1116 -52 CURVE",
"1119 -60 OFFCURVE",
"1125 -64 OFFCURVE",
"1132 -64 CURVE SMOOTH",
"1133 -64 OFFCURVE",
"1133 -64 OFFCURVE",
"1134 -64 CURVE SMOOTH",
"1135 -64 OFFCURVE",
"1135 -64 OFFCURVE",
"1136 -63 CURVE",
"1144 -62 OFFCURVE",
"1150 -52 OFFCURVE",
"1147 -44 CURVE",
"1128 27 OFFCURVE",
"1081 70 OFFCURVE",
"1029 98 CURVE SMOOTH",
"977 125 OFFCURVE",
"919 138 OFFCURVE",
"879 147 CURVE SMOOTH",
"860 151 OFFCURVE",
"844 154 OFFCURVE",
"836 158 CURVE",
"781 181 OFFCURVE",
"746 216 OFFCURVE",
"730 263 CURVE",
"807 257 OFFCURVE",
"863 264 OFFCURVE",
"899 284 CURVE SMOOTH",
"934 303 OFFCURVE",
"953 314 OFFCURVE",
"955 315 CURVE",
"959 318 OFFCURVE",
"960 324 OFFCURVE",
"960 328 CURVE",
"959 333 OFFCURVE",
"956 338 OFFCURVE",
"952 341 CURVE",
"908 365 OFFCURVE",
"886 422 OFFCURVE",
"875 480 CURVE SMOOTH",
"864 538 OFFCURVE",
"864 597 OFFCURVE",
"864 630 CURVE SMOOTH",
"864 721 OFFCURVE",
"834 803 OFFCURVE",
"783 863 CURVE SMOOTH",
"732 922 OFFCURVE",
"662 959 OFFCURVE",
"583 960 CURVE SMOOTH",
"583 960 OFFCURVE",
"582 960 OFFCURVE",
"581 960 CURVE SMOOTH",
"580 960 OFFCURVE",
"579 960 OFFCURVE",
"578 960 CURVE SMOOTH",
"578 960 OFFCURVE",
"578 960 OFFCURVE",
"578 960 CURVE SMOOTH",
"578 960 OFFCURVE",
"578 960 OFFCURVE",
"578 960 CURVE SMOOTH",
"498 960 OFFCURVE",
"426 923 OFFCURVE",
"374 864 CURVE SMOOTH",
"321 805 OFFCURVE",
"288 725 OFFCURVE",
"288 636 CURVE SMOOTH",
"288 604 OFFCURVE",
"288 545 OFFCURVE",
"277 487 CURVE SMOOTH",
"266 429 OFFCURVE",
"244 372 OFFCURVE",
"200 347 CURVE",
"196 344 OFFCURVE",
"192 340 OFFCURVE",
"192 335 CURVE SMOOTH",
"192 330 OFFCURVE",
"194 324 OFFCURVE",
"198 321 CURVE",
"200 319 OFFCURVE",
"223 306 OFFCURVE",
"266 283 CURVE SMOOTH",
"309 260 OFFCURVE",
"360 254 OFFCURVE",
"420 265 CURVE",
"404 221 OFFCURVE",
"369 188 OFFCURVE",
"316 164 CURVE",
"308 161 OFFCURVE",
"292 157 OFFCURVE",
"275 153 CURVE SMOOTH",
"235 144 OFFCURVE",
"176 129 OFFCURVE",
"124 100 CURVE SMOOTH",
"71 71 OFFCURVE",
"24 27 OFFCURVE",
"5 -44 CURVE",
"2 -52 OFFCURVE",
"8 -62 OFFCURVE",
"16 -63 CURVE",
"24 -66 OFFCURVE",
"33 -60 OFFCURVE",
"36 -52 CURVE",
"52 9 OFFCURVE",
"94 49 OFFCURVE",
"142 74 CURVE SMOOTH",
"189 99 OFFCURVE",
"243 113 OFFCURVE",
"283 122 CURVE SMOOTH",
"303 126 OFFCURVE",
"318 130 OFFCURVE",
"329 135 CURVE SMOOTH",
"420 175 OFFCURVE",
"450 238 OFFCURVE",
"459 285 CURVE",
"459 290 OFFCURVE",
"458 296 OFFCURVE",
"454 299 CURVE SMOOTH",
"449 303 OFFCURVE",
"443 304 OFFCURVE",
"438 303 CURVE",
"351 275 OFFCURVE",
"272 313 OFFCURVE",
"236 334 CURVE",
"279 369 OFFCURVE",
"300 427 OFFCURVE",
"310 485 CURVE SMOOTH",
"320 543 OFFCURVE",
"320 601 OFFCURVE",
"320 636 CURVE SMOOTH",
"320 716 OFFCURVE",
"349 789 OFFCURVE",
"396 842 CURVE SMOOTH",
"443 894 OFFCURVE",
"508 928 OFFCURVE",
"580 928 CURVE",
"580 928 OFFCURVE",
"581 928 OFFCURVE",
"582 928 CURVE SMOOTH",
"583 928 OFFCURVE",
"583 928 OFFCURVE",
"583 928 CURVE",
"654 927 OFFCURVE",
"716 894 OFFCURVE",
"761 841 CURVE SMOOTH",
"805 788 OFFCURVE",
"832 714 OFFCURVE",
"832 630 CURVE SMOOTH",
"832 594 OFFCURVE",
"833 536 OFFCURVE",
"843 478 CURVE SMOOTH",
"853 420 OFFCURVE",
"873 362 OFFCURVE",
"916 327 CURVE",
"901 318 OFFCURVE",
"877 310 OFFCURVE",
"844 301 CURVE SMOOTH",
"811 292 OFFCURVE",
"766 290 OFFCURVE",
"711 297 CURVE"
);
}
);
width = 1152;
}
);
unicode = E041;
},
{
glyphname = uniE055;
layers = (
{
layerId = "177FC93B-1B38-4AFC-964F-9D8881365EE5";
name = Regular;
paths = (
{
closed = 1;
nodes = (
"653 -64 OFFCURVE",
"781 -6 OFFCURVE",
"874 87 CURVE SMOOTH",
"966 179 OFFCURVE",
"1024 307 OFFCURVE",
"1024 448 CURVE SMOOTH",
"1024 589 OFFCURVE",
"966 717 OFFCURVE",
"874 810 CURVE SMOOTH",
"781 902 OFFCURVE",
"653 960 OFFCURVE",
"512 960 CURVE SMOOTH",
"371 960 OFFCURVE",
"243 902 OFFCURVE",
"151 810 CURVE SMOOTH",
"58 717 OFFCURVE",
"0 589 OFFCURVE",
"0 448 CURVE SMOOTH",
"0 307 OFFCURVE",
"58 179 OFFCURVE",
"151 87 CURVE SMOOTH",
"243 -6 OFFCURVE",
"371 -64 OFFCURVE",
"512 -64 CURVE SMOOTH"
);
},
{
closed = 1;
nodes = (
"644 928 OFFCURVE",
"764 874 OFFCURVE",
"851 787 CURVE SMOOTH",
"938 700 OFFCURVE",
"992 580 OFFCURVE",
"992 448 CURVE SMOOTH",
"992 316 OFFCURVE",
"938 196 OFFCURVE",
"851 109 CURVE SMOOTH",
"764 22 OFFCURVE",
"644 -32 OFFCURVE",
"512 -32 CURVE SMOOTH",
"380 -32 OFFCURVE",
"260 22 OFFCURVE",
"173 109 CURVE SMOOTH",
"86 196 OFFCURVE",
"32 316 OFFCURVE",
"32 448 CURVE SMOOTH",
"32 580 OFFCURVE",
"86 700 OFFCURVE",
"173 787 CURVE SMOOTH",
"260 874 OFFCURVE",
"380 928 OFFCURVE",
"512 928 CURVE SMOOTH"
);
},
{
closed = 1;
nodes = (
"645 260 OFFCURVE",
"649 259 OFFCURVE",
"653 259 CURVE SMOOTH",
"657 259 OFFCURVE",
"661 260 OFFCURVE",
"665 263 CURVE",
"668 266 OFFCURVE",
"669 270 OFFCURVE",
"669 275 CURVE SMOOTH",
"669 279 OFFCURVE",
"668 283 OFFCURVE",
"665 286 CURVE SMOOTH",
"512 439 LINE",
"512 662 LINE SMOOTH",
"512 670 OFFCURVE",
"505 678 OFFCURVE",
"496 678 CURVE SMOOTH",
"487 678 OFFCURVE",
"480 670 OFFCURVE",
"480 662 CURVE SMOOTH",
"480 432 LINE SMOOTH",
"480 428 OFFCURVE",
"481 424 OFFCURVE",
"485 421 CURVE",
"642 263 LINE SMOOTH"
);
},
{
closed = 1;
nodes = (
"96 431 OFFCURVE",
"111 416 OFFCURVE",
"128 416 CURVE SMOOTH",
"145 416 OFFCURVE",
"160 431 OFFCURVE",
"160 448 CURVE SMOOTH",
"160 465 OFFCURVE",
"145 480 OFFCURVE",
"128 480 CURVE SMOOTH",
"111 480 OFFCURVE",
"96 465 OFFCURVE",
"96 448 CURVE SMOOTH"
);
},
{
closed = 1;
nodes = (
"864 431 OFFCURVE",
"879 416 OFFCURVE",
"896 416 CURVE SMOOTH",
"913 416 OFFCURVE",
"928 431 OFFCURVE",
"928 448 CURVE SMOOTH",
"928 465 OFFCURVE",
"913 480 OFFCURVE",
"896 480 CURVE SMOOTH",
"879 480 OFFCURVE",
"864 465 OFFCURVE",
"864 448 CURVE SMOOTH"
);
},
{
closed = 1;
nodes = (
"480 815 OFFCURVE",
"495 800 OFFCURVE",
"512 800 CURVE SMOOTH",
"529 800 OFFCURVE",
"544 815 OFFCURVE",
"544 832 CURVE SMOOTH",
"544 849 OFFCURVE",
"529 864 OFFCURVE",
"512 864 CURVE SMOOTH",
"495 864 OFFCURVE",
"480 849 OFFCURVE",
"480 832 CURVE SMOOTH"
);
},
{
closed = 1;
nodes = (
"480 47 OFFCURVE",
"495 32 OFFCURVE",
"512 32 CURVE SMOOTH",
"529 32 OFFCURVE",
"544 47 OFFCURVE",
"544 64 CURVE SMOOTH",
"544 81 OFFCURVE",
"529 96 OFFCURVE",
"512 96 CURVE SMOOTH",
"495 96 OFFCURVE",
"480 81 OFFCURVE",
"480 64 CURVE SMOOTH"
);
},
{
closed = 1;
nodes = (
"224 687 OFFCURVE",
"239 672 OFFCURVE",
"256 672 CURVE SMOOTH",
"273 672 OFFCURVE",
"288 687 OFFCURVE",
"288 704 CURVE SMOOTH",
"288 721 OFFCURVE",
"273 736 OFFCURVE",
"256 736 CURVE SMOOTH",
"239 736 OFFCURVE",
"224 721 OFFCURVE",
"224 704 CURVE SMOOTH"
);
},
{
closed = 1;
nodes = (
"736 175 OFFCURVE",
"751 160 OFFCURVE",
"768 160 CURVE SMOOTH",
"785 160 OFFCURVE",
"800 175 OFFCURVE",
"800 192 CURVE SMOOTH",
"800 209 OFFCURVE",
"785 224 OFFCURVE",
"768 224 CURVE SMOOTH",
"751 224 OFFCURVE",
"736 209 OFFCURVE",
"736 192 CURVE SMOOTH"
);
},
{
closed = 1;
nodes = (
"768 687 OFFCURVE",
"783 672 OFFCURVE",
"800 672 CURVE SMOOTH",
"817 672 OFFCURVE",
"832 687 OFFCURVE",
"832 704 CURVE SMOOTH",
"832 721 OFFCURVE",
"817 736 OFFCURVE",
"800 736 CURVE SMOOTH",
"783 736 OFFCURVE",
"768 721 OFFCURVE",
"768 704 CURVE SMOOTH"
);
},
{
closed = 1;
nodes = (
"224 175 OFFCURVE",
"239 160 OFFCURVE",
"256 160 CURVE SMOOTH",
"273 160 OFFCURVE",
"288 175 OFFCURVE",
"288 192 CURVE SMOOTH",
"288 209 OFFCURVE",
"273 224 OFFCURVE",
"256 224 CURVE SMOOTH",
"239 224 OFFCURVE",
"224 209 OFFCURVE",
"224 192 CURVE SMOOTH"
);
}
);
width = 1024;
}
);
unicode = E055;
},
{
glyphname = uniE05D;
lastChange = "2015-09-30 11:53:24 +0000";
layers = (
{
layerId = "177FC93B-1B38-4AFC-964F-9D8881365EE5";
name = Regular;
paths = (
{
closed = 1;
nodes = (
"371 961 OFFCURVE",
"242 903 OFFCURVE",
"150 811 CURVE SMOOTH",
"57 718 OFFCURVE",
"-1 589 OFFCURVE",
"-1 448 CURVE SMOOTH",
"-1 307 OFFCURVE",
"57 178 OFFCURVE",
"150 86 CURVE SMOOTH",
"242 -7 OFFCURVE",
"371 -65 OFFCURVE",
"512 -65 CURVE SMOOTH",
"653 -65 OFFCURVE",
"782 -7 OFFCURVE",
"875 86 CURVE SMOOTH",
"967 178 OFFCURVE",
"1025 307 OFFCURVE",
"1025 448 CURVE SMOOTH",
"1025 589 OFFCURVE",
"967 718 OFFCURVE",
"875 811 CURVE SMOOTH",
"782 903 OFFCURVE",
"653 961 OFFCURVE",
"512 961 CURVE SMOOTH"
);
},
{
closed = 1;
nodes = (
"380 -31 OFFCURVE",
"261 22 OFFCURVE",
"174 110 CURVE SMOOTH",
"87 197 OFFCURVE",
"33 316 OFFCURVE",
"33 448 CURVE SMOOTH",
"33 580 OFFCURVE",
"87 699 OFFCURVE",
"174 787 CURVE SMOOTH",
"261 874 OFFCURVE",
"380 927 OFFCURVE",
"512 927 CURVE SMOOTH",
"644 927 OFFCURVE",
"763 874 OFFCURVE",
"850 787 CURVE SMOOTH",
"937 699 OFFCURVE",
"991 580 OFFCURVE",
"991 448 CURVE SMOOTH",
"991 316 OFFCURVE",
"937 197 OFFCURVE",
"850 110 CURVE SMOOTH",
"763 22 OFFCURVE",
"644 -31 OFFCURVE",
"512 -31 CURVE SMOOTH"
);
},
{
closed = 1;
nodes = (
"539 736 LINE SMOOTH",
"430 737 OFFCURVE",
"416 670 OFFCURVE",
"416 597 CURVE SMOOTH",
"416 544 LINE",
"368 544 LINE",
"359 545 OFFCURVE",
"351 537 OFFCURVE",
"352 528 CURVE",
"352 432 LINE",
"351 423 OFFCURVE",
"359 415 OFFCURVE",
"368 416 CURVE",
"416 416 LINE",
"416 176 LINE",
"415 167 OFFCURVE",
"423 159 OFFCURVE",
"432 160 CURVE",
"530 160 LINE",
"539 159 OFFCURVE",
"547 167 OFFCURVE",
"544 176 CURVE",
"544 416 LINE",
"624 416 LINE",
"633 415 OFFCURVE",
"641 423 OFFCURVE",
"640 432 CURVE",
"640 528 LINE",
"641 537 OFFCURVE",
"633 545 OFFCURVE",
"624 544 CURVE",
"544 544 LINE",
"544 592 LINE",
"547 612 OFFCURVE",
"547 609 OFFCURVE",
"566 608 CURVE",
"623 608 LINE",
"626 609 OFFCURVE",
"628 609 OFFCURVE",
"630 609 CURVE SMOOTH",
"634 609 OFFCURVE",
"638 613 OFFCURVE",
"640 617 CURVE SMOOTH",
"641 619 OFFCURVE",
"641 621 OFFCURVE",
"640 624 CURVE",
"640 720 LINE",
"641 729 OFFCURVE",
"633 737 OFFCURVE",
"624 736 CURVE"
);
},
{
closed = 1;
nodes = (
"567 643 LINE SMOOTH",
"516 643 OFFCURVE",
"513 616 OFFCURVE",
"513 589 CURVE SMOOTH",
"513 528 LINE SMOOTH",
"513 524 OFFCURVE",
"514 519 OFFCURVE",
"518 516 CURVE",
"521 513 OFFCURVE",
"525 511 OFFCURVE",
"530 511 CURVE SMOOTH",
"608 511 LINE",
"608 449 LINE",
"530 449 LINE SMOOTH",
"521 449 OFFCURVE",
"513 441 OFFCURVE",
"513 432 CURVE SMOOTH",
"513 192 LINE",
"448 192 LINE",
"448 432 LINE SMOOTH",
"448 441 OFFCURVE",
"441 449 OFFCURVE",
"432 449 CURVE SMOOTH",
"384 449 LINE",
"384 511 LINE",
"432 511 LINE SMOOTH",
"437 511 OFFCURVE",
"441 513 OFFCURVE",
"444 516 CURVE",
"448 519 OFFCURVE",
"448 524 OFFCURVE",
"448 528 CURVE SMOOTH",
"448 597 LINE SMOOTH",
"448 669 OFFCURVE",
"462 703 OFFCURVE",
"539 703 CURVE SMOOTH",
"607 703 LINE",
"607 642 LINE"
);
}
);
width = 1024;
}
);
unicode = E05D;
},
{
glyphname = uniE062;
layers = (
{
layerId = "177FC93B-1B38-4AFC-964F-9D8881365EE5";
name = Regular;
paths = (
{
closed = 1;
nodes = (
"603 578 OFFCURVE",
"587 572 OFFCURVE",
"574 565 CURVE",
"573 573 OFFCURVE",
"566 577 OFFCURVE",
"558 576 CURVE",
"462 576 LINE",
"453 577 OFFCURVE",
"445 569 OFFCURVE",
"448 560 CURVE",
"448 208 LINE",
"445 199 OFFCURVE",
"453 192 OFFCURVE",
"462 192 CURVE SMOOTH",
"558 192 LINE SMOOTH",
"567 192 OFFCURVE",
"575 199 OFFCURVE",
"575 208 CURVE SMOOTH",
"575 421 LINE",
"575 421 OFFCURVE",
"575 423 OFFCURVE",
"576 427 CURVE",
"576 435 OFFCURVE",
"583 442 OFFCURVE",
"592 445 CURVE",
"596 446 OFFCURVE",
"601 447 OFFCURVE",
"607 447 CURVE SMOOTH",
"627 447 OFFCURVE",
"636 439 OFFCURVE",
"640 420 CURVE",
"640 208 LINE",
"636 199 OFFCURVE",
"645 192 OFFCURVE",
"654 192 CURVE SMOOTH",
"754 192 LINE SMOOTH",
"763 192 OFFCURVE",
"772 199 OFFCURVE",
"768 208 CURVE",
"768 427 LINE",
"772 538 OFFCURVE",
"692 578 OFFCURVE",
"624 578 CURVE SMOOTH"
);
},
{
closed = 1;
nodes = (
"671 224 LINE",
"671 420 LINE SMOOTH",
"671 457 OFFCURVE",
"647 481 OFFCURVE",
"607 481 CURVE SMOOTH",
"584 481 OFFCURVE",
"568 474 OFFCURVE",
"556 462 CURVE",
"539 443 OFFCURVE",
"540 421 OFFCURVE",
"544 416 CURVE",
"544 224 LINE",
"479 224 LINE",
"479 543 LINE",
"541 543 LINE",
"541 533 LINE SMOOTH",
"541 526 OFFCURVE",
"545 520 OFFCURVE",
"550 517 CURVE",
"557 514 OFFCURVE",
"563 515 OFFCURVE",
"568 519 CURVE SMOOTH",
"573 523 LINE SMOOTH",
"585 532 OFFCURVE",
"598 543 OFFCURVE",
"625 543 CURVE SMOOTH",
"650 543 OFFCURVE",
"737 535 OFFCURVE",
"737 427 CURVE SMOOTH",
"737 224 LINE"
);
},
{
closed = 1;
nodes = (
"316 737 OFFCURVE",
"287 708 OFFCURVE",
"287 672 CURVE SMOOTH",
"287 636 OFFCURVE",
"316 607 OFFCURVE",
"352 607 CURVE SMOOTH",
"388 607 OFFCURVE",
"417 636 OFFCURVE",
"417 672 CURVE SMOOTH",
"417 708 OFFCURVE",
"388 737 OFFCURVE",
"352 737 CURVE SMOOTH"
);
},
{
closed = 1;
nodes = (
"335 641 OFFCURVE",
"321 655 OFFCURVE",
"321 672 CURVE SMOOTH",
"321 689 OFFCURVE",
"335 703 OFFCURVE",
"352 703 CURVE SMOOTH",
"369 703 OFFCURVE",
"383 689 OFFCURVE",
"383 672 CURVE SMOOTH",
"383 655 OFFCURVE",
"369 641 OFFCURVE",
"352 641 CURVE SMOOTH"
);
},
{
closed = 1;
nodes = (
"303 578 LINE SMOOTH",
"294 578 OFFCURVE",
"285 569 OFFCURVE",
"288 560 CURVE",
"288 208 LINE",
"285 199 OFFCURVE",
"294 192 OFFCURVE",
"303 192 CURVE SMOOTH",
"398 192 LINE SMOOTH",
"407 192 OFFCURVE",
"415 199 OFFCURVE",
"415 208 CURVE SMOOTH",
"415 560 LINE SMOOTH",
"415 571 OFFCURVE",
"407 578 OFFCURVE",
"398 578 CURVE SMOOTH"
);
},
{
closed = 1;
nodes = (
"320 224 LINE",
"320 543 LINE",
"384 543 LINE",
"384 224 LINE"
);
},
{
closed = 1;
nodes = (
"371 961 OFFCURVE",
"242 903 OFFCURVE",
"150 811 CURVE SMOOTH",
"57 718 OFFCURVE",
"-1 589 OFFCURVE",
"-1 448 CURVE SMOOTH",
"-1 307 OFFCURVE",
"57 178 OFFCURVE",
"150 86 CURVE SMOOTH",
"242 -7 OFFCURVE",
"371 -65 OFFCURVE",
"512 -65 CURVE SMOOTH",
"653 -65 OFFCURVE",
"782 -7 OFFCURVE",
"875 86 CURVE SMOOTH",
"967 178 OFFCURVE",
"1025 307 OFFCURVE",
"1025 448 CURVE SMOOTH",
"1025 589 OFFCURVE",
"967 718 OFFCURVE",
"875 811 CURVE SMOOTH",
"782 903 OFFCURVE",
"653 961 OFFCURVE",
"512 961 CURVE SMOOTH"
);
},
{
closed = 1;
nodes = (
"380 -31 OFFCURVE",
"261 22 OFFCURVE",
"174 110 CURVE SMOOTH",
"86 197 OFFCURVE",
"33 316 OFFCURVE",
"33 448 CURVE SMOOTH",
"33 580 OFFCURVE",
"86 699 OFFCURVE",
"174 787 CURVE SMOOTH",
"261 874 OFFCURVE",
"380 927 OFFCURVE",
"512 927 CURVE SMOOTH",
"644 927 OFFCURVE",
"763 874 OFFCURVE",
"851 787 CURVE SMOOTH",
"938 699 OFFCURVE",
"991 580 OFFCURVE",
"991 448 CURVE SMOOTH",
"991 316 OFFCURVE",
"938 197 OFFCURVE",
"851 110 CURVE SMOOTH",
"763 22 OFFCURVE",
"644 -31 OFFCURVE",
"512 -31 CURVE SMOOTH"
);
}
);
width = 1024;
}
);
unicode = E062;
},
{
glyphname = uniE600;
layers = (
{
layerId = "177FC93B-1B38-4AFC-964F-9D8881365EE5";
name = Regular;
paths = (
{
closed = 1;
nodes = (
"575 553 OFFCURVE",
"625 603 OFFCURVE",
"625 666 CURVE SMOOTH",
"625 727 OFFCURVE",
"575 778 OFFCURVE",
"512 778 CURVE SMOOTH",
"449 778 OFFCURVE",
"399 727 OFFCURVE",
"399 666 CURVE SMOOTH",
"399 603 OFFCURVE",
"449 553 OFFCURVE",
"512 553 CURVE SMOOTH"
);
},
{
closed = 1;
nodes = (
"449 369 OFFCURVE",
"399 319 OFFCURVE",
"399 256 CURVE SMOOTH",
"399 193 OFFCURVE",
"449 143 OFFCURVE",
"512 143 CURVE SMOOTH",
"575 143 OFFCURVE",
"625 193 OFFCURVE",
"625 256 CURVE SMOOTH",
"625 319 OFFCURVE",
"575 369 OFFCURVE",
"512 369 CURVE SMOOTH"
);
}
);
width = 1024;
}
);
unicode = E600;
},
{
glyphname = uniE601;
layers = (
{
layerId = "177FC93B-1B38-4AFC-964F-9D8881365EE5";
name = Regular;
paths = (
{
closed = 1;
nodes = (
"352 595 OFFCURVE",
"265 654 OFFCURVE",
"126 665 CURVE",
"424 539 LINE"
);
},
{
closed = 1;
nodes = (
"352 467 OFFCURVE",
"265 526 OFFCURVE",
"126 537 CURVE",
"424 411 LINE"
);
},
{
closed = 1;
nodes = (
"249 386 OFFCURVE",
"193 404 OFFCURVE",
"126 409 CURVE",
"296 365 LINE"
);
},
{
closed = 1;
nodes = (
"856 665 LINE",
"717 654 OFFCURVE",
"629 595 OFFCURVE",
"557 539 CURVE"
);
},
{
closed = 1;
nodes = (
"856 537 LINE",
"717 526 OFFCURVE",
"629 467 OFFCURVE",
"557 411 CURVE"
);
},
{
closed = 1;
nodes = (
"788 404 OFFCURVE",
"733 388 OFFCURVE",
"685 365 CURVE",
"856 409 LINE"
);
},
{
closed = 1;
nodes = (
"848 923 OFFCURVE",
"758 902 OFFCURVE",
"681 871 CURVE SMOOTH",
"604 840 OFFCURVE",
"540 802 OFFCURVE",
"497 767 CURVE",
"485 767 LINE",
"441 802 OFFCURVE",
"377 840 OFFCURVE",
"301 871 CURVE SMOOTH",
"224 902 OFFCURVE",
"133 923 OFFCURVE",
"40 923 CURVE SMOOTH",
"0 923 LINE",
"0 113 LINE",
"40 113 LINE SMOOTH",
"109 113 OFFCURVE",
"182 99 OFFCURVE",
"246 80 CURVE SMOOTH",
"310 60 OFFCURVE",
"365 33 OFFCURVE",
"400 8 CURVE SMOOTH",
"420 -7 OFFCURVE",
"438 -23 OFFCURVE",
"454 -40 CURVE",
"489 -71 LINE",
"493 -71 LINE",
"527 -40 LINE",
"543 -23 OFFCURVE",
"562 -7 OFFCURVE",
"582 8 CURVE SMOOTH",
"615 33 OFFCURVE",
"671 60 OFFCURVE",
"735 80 CURVE SMOOTH",
"799 99 OFFCURVE",
"872 113 OFFCURVE",
"941 113 CURVE SMOOTH",
"981 113 LINE",
"981 923 LINE",
"941 923 LINE SMOOTH"
);
},
{
closed = 1;
nodes = (
"469 67 OFFCURVE",
"460 72 OFFCURVE",
"453 76 CURVE",
"418 103 OFFCURVE",
"358 131 OFFCURVE",
"291 153 CURVE SMOOTH",
"223 175 OFFCURVE",
"149 192 OFFCURVE",
"85 196 CURVE",
"85 836 LINE",
"170 829 OFFCURVE",
"248 806 OFFCURVE",
"312 776 CURVE SMOOTH",
"376 746 OFFCURVE",
"425 709 OFFCURVE",
"456 680 CURVE",
"467 667 LINE",
"469 667 LINE",
"469 63 LINE"
);
},
{
closed = 1;
nodes = (
"832 192 OFFCURVE",
"758 175 OFFCURVE",
"691 153 CURVE SMOOTH",
"623 131 OFFCURVE",
"564 103 OFFCURVE",
"528 76 CURVE",
"525 74 OFFCURVE",
"522 72 OFFCURVE",
"518 70 CURVE",
"514 67 OFFCURVE",
"512 65 OFFCURVE",
"512 63 CURVE",
"512 667 LINE",
"514 667 LINE",
"526 680 LINE",
"555 709 OFFCURVE",
"606 746 OFFCURVE",
"670 776 CURVE SMOOTH",
"733 806 OFFCURVE",
"811 829 OFFCURVE",
"896 836 CURVE",
"896 196 LINE"
);
}
);
width = 1024;
}
);
unicode = E601;
},
{
glyphname = uniE602;
layers = (
{
layerId = "177FC93B-1B38-4AFC-964F-9D8881365EE5";
name = Regular;
paths = (
{
closed = 1;
nodes = (
"654 573 OFFCURVE",
"604 522 OFFCURVE",
"604 461 CURVE SMOOTH",
"604 398 OFFCURVE",
"654 348 OFFCURVE",
"717 348 CURVE SMOOTH",
"780 348 OFFCURVE",
"829 398 OFFCURVE",
"829 461 CURVE SMOOTH",
"829 522 OFFCURVE",
"780 573 OFFCURVE",
"717 573 CURVE SMOOTH"
);
},
{
closed = 1;
nodes = (
"246 573 OFFCURVE",
"195 522 OFFCURVE",
"195 461 CURVE SMOOTH",
"195 398 OFFCURVE",
"246 348 OFFCURVE",
"307 348 CURVE SMOOTH",
"370 348 OFFCURVE",
"420 398 OFFCURVE",
"420 461 CURVE SMOOTH",
"420 522 OFFCURVE",
"370 573 OFFCURVE",
"307 573 CURVE SMOOTH"
);
}
);
width = 1024;
}
);
unicode = E602;
},
{
glyphname = uniE603;
layers = (
{
layerId = "177FC93B-1B38-4AFC-964F-9D8881365EE5";
name = Regular;
paths = (
{
closed = 1;
nodes = (
"449 573 OFFCURVE",
"399 522 OFFCURVE",
"399 461 CURVE SMOOTH",
"399 398 OFFCURVE",
"449 348 OFFCURVE",
"512 348 CURVE SMOOTH",
"575 348 OFFCURVE",
"625 398 OFFCURVE",
"625 461 CURVE SMOOTH",
"625 522 OFFCURVE",
"575 573 OFFCURVE",
"512 573 CURVE SMOOTH"
);
},
{
closed = 1;
nodes = (
"575 707 OFFCURVE",
"625 758 OFFCURVE",
"625 819 CURVE SMOOTH",
"625 882 OFFCURVE",
"575 932 OFFCURVE",
"512 932 CURVE SMOOTH",
"449 932 OFFCURVE",
"399 882 OFFCURVE",
"399 819 CURVE SMOOTH",
"399 758 OFFCURVE",
"449 707 OFFCURVE",
"512 707 CURVE SMOOTH"
);
},
{
closed = 1;
nodes = (
"449 215 OFFCURVE",
"399 165 OFFCURVE",
"399 102 CURVE SMOOTH",
"399 41 OFFCURVE",
"449 -10 OFFCURVE",
"512 -10 CURVE SMOOTH",
"575 -10 OFFCURVE",
"625 41 OFFCURVE",
"625 102 CURVE SMOOTH",
"625 165 OFFCURVE",
"575 215 OFFCURVE",
"512 215 CURVE SMOOTH"
);
}
);
width = 1024;
}
);
unicode = E603;
},
{
glyphname = uniE604;
layers = (
{
layerId = "177FC93B-1B38-4AFC-964F-9D8881365EE5";
name = Regular;
paths = (
{
closed = 1;
nodes = (
"449 573 OFFCURVE",
"399 522 OFFCURVE",
"399 461 CURVE SMOOTH",
"399 398 OFFCURVE",
"449 348 OFFCURVE",
"512 348 CURVE SMOOTH",
"575 348 OFFCURVE",
"625 398 OFFCURVE",
"625 461 CURVE SMOOTH",
"625 522 OFFCURVE",
"575 573 OFFCURVE",
"512 573 CURVE SMOOTH"
);
},
{
closed = 1;
nodes = (
"91 573 OFFCURVE",
"41 522 OFFCURVE",
"41 461 CURVE SMOOTH",
"41 398 OFFCURVE",
"91 348 OFFCURVE",
"154 348 CURVE SMOOTH",
"215 348 OFFCURVE",
"266 398 OFFCURVE",
"266 461 CURVE SMOOTH",
"266 522 OFFCURVE",
"215 573 OFFCURVE",
"154 573 CURVE SMOOTH"
);
},
{
closed = 1;
nodes = (
"809 573 OFFCURVE",
"758 522 OFFCURVE",
"758 461 CURVE SMOOTH",
"758 398 OFFCURVE",
"809 348 OFFCURVE",
"870 348 CURVE SMOOTH",
"933 348 OFFCURVE",
"983 398 OFFCURVE",
"983 461 CURVE SMOOTH",
"983 522 OFFCURVE",
"933 573 OFFCURVE",
"870 573 CURVE SMOOTH"
);
}
);
width = 1024;
}
);
unicode = E604;
},
{
glyphname = uniE605;
layers = (
{
layerId = "177FC93B-1B38-4AFC-964F-9D8881365EE5";
name = Regular;
paths = (
{
closed = 1;
nodes = (
"399 398 OFFCURVE",
"449 348 OFFCURVE",
"512 348 CURVE SMOOTH",
"575 348 OFFCURVE",
"625 398 OFFCURVE",
"625 461 CURVE SMOOTH",
"625 522 OFFCURVE",
"575 573 OFFCURVE",
"512 573 CURVE SMOOTH",
"449 573 OFFCURVE",
"399 522 OFFCURVE",
"399 461 CURVE SMOOTH"
);
}
);
width = 1024;
}
);
unicode = E605;
},
{
glyphname = uniE802;
layers = (
{
layerId = "177FC93B-1B38-4AFC-964F-9D8881365EE5";
name = Regular;
paths = (
{
closed = 1;
nodes = (
"950 955 OFFCURVE",
"911 972 OFFCURVE",
"870 972 CURVE SMOOTH",
"830 972 OFFCURVE",
"791 955 OFFCURVE",
"763 927 CURVE SMOOTH",
"110 274 LINE SMOOTH",
"107 271 OFFCURVE",
"105 268 OFFCURVE",
"104 265 CURVE SMOOTH",
"2 -17 LINE",
"-2 -26 OFFCURVE",
"0 -36 OFFCURVE",
"7 -44 CURVE",
"12 -48 OFFCURVE",
"19 -51 OFFCURVE",
"26 -51 CURVE SMOOTH",
"27 -51 OFFCURVE",
"29 -51 OFFCURVE",
"30 -50 CURVE",
"31 -50 OFFCURVE",
"33 -50 OFFCURVE",
"34 -50 CURVE",
"316 53 LINE",
"320 54 OFFCURVE",
"322 56 OFFCURVE",
"325 59 CURVE SMOOTH",
"978 711 LINE SMOOTH",
"1007 740 OFFCURVE",
"1023 779 OFFCURVE",
"1023 819 CURVE SMOOTH",
"1023 860 OFFCURVE",
"1007 898 OFFCURVE",
"978 927 CURVE SMOOTH"
);
},
{
closed = 1;
nodes = (
"68 17 LINE",
"150 242 LINE",
"717 809 LINE",
"860 666 LINE",
"293 99 LINE"
);
},
{
closed = 1;
nodes = (
"896 702 LINE",
"753 845 LINE",
"799 891 LINE SMOOTH",
"818 910 OFFCURVE",
"843 920 OFFCURVE",
"870 920 CURVE SMOOTH",
"898 920 OFFCURVE",
"923 910 OFFCURVE",
"942 891 CURVE SMOOTH",
"961 871 OFFCURVE",
"972 846 OFFCURVE",
"972 819 CURVE SMOOTH",
"972 792 OFFCURVE",
"961 767 OFFCURVE",
"942 748 CURVE SMOOTH"
);
}
);
width = 1024;
}
);
unicode = E802;
},
{
glyphname = uniE818;
layers = (
{
layerId = "177FC93B-1B38-4AFC-964F-9D8881365EE5";
name = Regular;
paths = (
{
closed = 1;
nodes = (
"77 666 LINE SMOOTH",
"34 666 OFFCURVE",
"0 632 OFFCURVE",
"0 589 CURVE SMOOTH",
"0 128 LINE SMOOTH",
"0 85 OFFCURVE",
"34 51 OFFCURVE",
"77 51 CURVE SMOOTH",
"896 51 LINE SMOOTH",
"939 51 OFFCURVE",
"973 85 OFFCURVE",
"973 128 CURVE SMOOTH",
"973 589 LINE SMOOTH",
"973 632 OFFCURVE",
"939 666 OFFCURVE",
"896 666 CURVE SMOOTH"
);
},
{
closed = 1;
nodes = (
"897 614 OFFCURVE",
"897 614 OFFCURVE",
"898 614 CURVE SMOOTH",
"899 614 OFFCURVE",
"899 614 OFFCURVE",
"900 614 CURVE",
"515 357 LINE SMOOTH",
"508 352 OFFCURVE",
"498 349 OFFCURVE",
"487 349 CURVE SMOOTH",
"475 349 OFFCURVE",
"465 352 OFFCURVE",
"458 357 CURVE SMOOTH",
"72 614 LINE",
"73 614 OFFCURVE",
"74 614 OFFCURVE",
"75 614 CURVE SMOOTH",
"76 614 OFFCURVE",
"76 614 OFFCURVE",
"77 614 CURVE SMOOTH",
"896 614 LINE SMOOTH"
);
},
{
closed = 1;
nodes = (
"77 102 LINE SMOOTH",
"62 102 OFFCURVE",
"51 113 OFFCURVE",
"51 128 CURVE SMOOTH",
"51 567 LINE",
"430 314 LINE SMOOTH",
"446 303 OFFCURVE",
"466 298 OFFCURVE",
"486 298 CURVE SMOOTH",
"507 298 OFFCURVE",
"527 303 OFFCURVE",
"543 314 CURVE SMOOTH",
"922 567 LINE",
"922 128 LINE SMOOTH",
"922 113 OFFCURVE",
"911 102 OFFCURVE",
"896 102 CURVE SMOOTH"
);
}
);
width = 1024;
}
);
unicode = E818;
},
{
glyphname = uniE819;
layers = (
{
layerId = "177FC93B-1B38-4AFC-964F-9D8881365EE5";
name = Regular;
paths = (
{
closed = 1;
nodes = (
"423 -51 OFFCURVE",
"366 -25 OFFCURVE",
"324 17 CURVE SMOOTH",
"282 59 OFFCURVE",
"256 116 OFFCURVE",
"256 179 CURVE SMOOTH",
"256 794 LINE SMOOTH",
"256 893 OFFCURVE",
"336 973 OFFCURVE",
"435 973 CURVE SMOOTH",
"534 973 OFFCURVE",
"614 893 OFFCURVE",
"614 794 CURVE SMOOTH",
"614 230 LINE SMOOTH",
"614 159 OFFCURVE",
"557 102 OFFCURVE",
"486 102 CURVE SMOOTH",
"415 102 OFFCURVE",
"358 159 OFFCURVE",
"358 230 CURVE SMOOTH",
"358 538 LINE SMOOTH",
"358 551 OFFCURVE",
"369 563 OFFCURVE",
"384 563 CURVE SMOOTH",
"399 563 OFFCURVE",
"410 551 OFFCURVE",
"410 538 CURVE SMOOTH",
"410 230 LINE SMOOTH",
"410 189 OFFCURVE",
"445 154 OFFCURVE",
"486 154 CURVE SMOOTH",
"529 154 OFFCURVE",
"563 189 OFFCURVE",
"563 230 CURVE SMOOTH",
"563 794 LINE SMOOTH",
"563 865 OFFCURVE",
"506 922 OFFCURVE",
"435 922 CURVE SMOOTH",
"364 922 OFFCURVE",
"307 865 OFFCURVE",
"307 794 CURVE SMOOTH",
"307 179 LINE SMOOTH",
"307 80 OFFCURVE",
"387 0 OFFCURVE",
"486 0 CURVE SMOOTH",
"586 0 OFFCURVE",
"666 80 OFFCURVE",
"666 179 CURVE SMOOTH",
"666 538 LINE SMOOTH",
"666 551 OFFCURVE",
"678 563 OFFCURVE",
"691 563 CURVE SMOOTH",
"706 563 OFFCURVE",
"717 551 OFFCURVE",
"717 538 CURVE SMOOTH",
"717 179 LINE SMOOTH",
"717 116 OFFCURVE",
"692 59 OFFCURVE",
"650 17 CURVE SMOOTH",
"608 -25 OFFCURVE",
"550 -51 OFFCURVE",
"486 -51 CURVE SMOOTH"
);
}
);
width = 1024;
}
);
unicode = E819;
},
{
glyphname = uniE81B;
layers = (
{
layerId = "177FC93B-1B38-4AFC-964F-9D8881365EE5";
name = Regular;
paths = (
{
closed = 1;
nodes = (
"1016 453 OFFCURVE",
"1002 468 OFFCURVE",
"975 495 CURVE SMOOTH",
"920 549 OFFCURVE",
"840 606 OFFCURVE",
"786 636 CURVE SMOOTH",
"732 666 OFFCURVE",
"672 693 OFFCURVE",
"607 707 CURVE SMOOTH",
"574 714 OFFCURVE",
"543 717 OFFCURVE",
"512 717 CURVE SMOOTH",
"451 717 OFFCURVE",
"385 703 OFFCURVE",
"318 675 CURVE SMOOTH",
"266 652 OFFCURVE",
"211 623 OFFCURVE",
"158 584 CURVE SMOOTH",
"113 551 OFFCURVE",
"76 522 OFFCURVE",
"49 495 CURVE SMOOTH",
"22 468 OFFCURVE",
"8 453 OFFCURVE",
"7 452 CURVE SMOOTH",
"2 447 OFFCURVE",
"0 442 OFFCURVE",
"0 435 CURVE SMOOTH",
"0 428 OFFCURVE",
"2 423 OFFCURVE",
"7 418 CURVE SMOOTH",
"8 417 OFFCURVE",
"22 403 OFFCURVE",
"49 376 CURVE SMOOTH",
"104 322 OFFCURVE",
"185 266 OFFCURVE",
"239 235 CURVE SMOOTH",
"293 204 OFFCURVE",
"352 179 OFFCURVE",
"417 165 CURVE SMOOTH",
"450 158 OFFCURVE",
"481 154 OFFCURVE",
"512 154 CURVE SMOOTH",
"573 154 OFFCURVE",
"639 168 OFFCURVE",
"706 196 CURVE SMOOTH",
"758 217 OFFCURVE",
"813 249 OFFCURVE",
"866 286 CURVE SMOOTH",
"911 319 OFFCURVE",
"948 349 OFFCURVE",
"975 376 CURVE SMOOTH",
"1002 403 OFFCURVE",
"1016 417 OFFCURVE",
"1017 418 CURVE SMOOTH",
"1022 423 OFFCURVE",
"1024 428 OFFCURVE",
"1024 435 CURVE SMOOTH",
"1024 442 OFFCURVE",
"1022 447 OFFCURVE",
"1017 452 CURVE SMOOTH"
);
},
{
closed = 1;
nodes = (
"691 604 OFFCURVE",
"717 547 OFFCURVE",
"717 486 CURVE SMOOTH",
"717 430 OFFCURVE",
"694 378 OFFCURVE",
"657 342 CURVE SMOOTH",
"620 305 OFFCURVE",
"568 282 OFFCURVE",
"512 282 CURVE SMOOTH",
"456 282 OFFCURVE",
"404 305 OFFCURVE",
"367 342 CURVE SMOOTH",
"330 378 OFFCURVE",
"307 430 OFFCURVE",
"307 486 CURVE SMOOTH",
"307 547 OFFCURVE",
"333 604 OFFCURVE",
"380 643 CURVE",
"423 656 OFFCURVE",
"467 666 OFFCURVE",
"512 666 CURVE SMOOTH",
"557 666 OFFCURVE",
"601 656 OFFCURVE",
"644 643 CURVE"
);
},
{
closed = 1;
nodes = (
"796 299 OFFCURVE",
"747 269 OFFCURVE",
"692 245 CURVE SMOOTH",
"636 221 OFFCURVE",
"575 205 OFFCURVE",
"512 205 CURVE SMOOTH",
"449 205 OFFCURVE",
"388 221 OFFCURVE",
"333 245 CURVE SMOOTH",
"277 269 OFFCURVE",
"228 299 OFFCURVE",
"189 327 CURVE SMOOTH",
"129 370 OFFCURVE",
"84 412 OFFCURVE",
"61 435 CURVE",
"84 458 OFFCURVE",
"129 500 OFFCURVE",
"189 543 CURVE SMOOTH",
"216 563 OFFCURVE",
"248 583 OFFCURVE",
"283 602 CURVE",
"266 566 OFFCURVE",
"256 527 OFFCURVE",
"256 486 CURVE SMOOTH",
"256 415 OFFCURVE",
"284 352 OFFCURVE",
"331 306 CURVE SMOOTH",
"378 260 OFFCURVE",
"441 230 OFFCURVE",
"512 230 CURVE SMOOTH",
"583 230 OFFCURVE",
"646 260 OFFCURVE",
"693 306 CURVE SMOOTH",
"740 352 OFFCURVE",
"768 415 OFFCURVE",
"768 486 CURVE SMOOTH",
"768 527 OFFCURVE",
"758 566 OFFCURVE",
"741 602 CURVE",
"776 583 OFFCURVE",
"808 563 OFFCURVE",
"835 543 CURVE SMOOTH",
"895 500 OFFCURVE",
"940 458 OFFCURVE",
"963 435 CURVE",
"940 412 OFFCURVE",
"895 370 OFFCURVE",
"835 327 CURVE SMOOTH"
);
}
);
width = 1024;
}
);
unicode = E81B;
},
{
glyphname = uniE821;
layers = (
{
layerId = "177FC93B-1B38-4AFC-964F-9D8881365EE5";
name = Regular;
paths = (
{
closed = 1;
nodes = (
"494 767 LINE",
"492 768 OFFCURVE",
"490 768 OFFCURVE",
"487 768 CURVE SMOOTH",
"484 768 OFFCURVE",
"481 768 OFFCURVE",
"478 767 CURVE SMOOTH",
"18 613 LINE SMOOTH",
"7 609 OFFCURVE",
"0 600 OFFCURVE",
"0 589 CURVE SMOOTH",
"0 578 OFFCURVE",
"7 568 OFFCURVE",
"18 565 CURVE",
"154 519 LINE",
"154 384 LINE SMOOTH",
"154 377 OFFCURVE",
"156 370 OFFCURVE",
"161 366 CURVE",
"162 365 OFFCURVE",
"170 358 OFFCURVE",
"184 347 CURVE",
"212 323 OFFCURVE",
"266 295 OFFCURVE",
"347 273 CURVE SMOOTH",
"387 262 OFFCURVE",
"433 256 OFFCURVE",
"486 256 CURVE SMOOTH",
"563 256 OFFCURVE",
"636 270 OFFCURVE",
"701 297 CURVE",
"714 304 OFFCURVE",
"720 318 OFFCURVE",
"715 331 CURVE SMOOTH",
"710 344 OFFCURVE",
"694 350 OFFCURVE",
"681 345 CURVE SMOOTH",
"622 320 OFFCURVE",
"557 307 OFFCURVE",
"486 307 CURVE SMOOTH",
"387 307 OFFCURVE",
"314 332 OFFCURVE",
"270 355 CURVE SMOOTH",
"237 371 OFFCURVE",
"216 387 OFFCURVE",
"205 396 CURVE",
"205 502 LINE",
"478 411 LINE",
"479 410 OFFCURVE",
"481 410 OFFCURVE",
"482 410 CURVE SMOOTH",
"483 410 OFFCURVE",
"485 410 OFFCURVE",
"486 410 CURVE SMOOTH",
"487 410 OFFCURVE",
"489 410 OFFCURVE",
"491 410 CURVE SMOOTH",
"492 410 OFFCURVE",
"493 410 OFFCURVE",
"494 411 CURVE",
"768 502 LINE",
"768 456 LINE",
"739 445 OFFCURVE",
"717 417 OFFCURVE",
"717 384 CURVE SMOOTH",
"717 353 OFFCURVE",
"735 326 OFFCURVE",
"762 314 CURVE",
"718 134 LINE",
"715 126 OFFCURVE",
"718 119 OFFCURVE",
"722 112 CURVE",
"727 107 OFFCURVE",
"734 102 OFFCURVE",
"742 102 CURVE SMOOTH",
"845 102 LINE SMOOTH",
"853 102 OFFCURVE",
"860 107 OFFCURVE",
"865 112 CURVE",
"870 119 OFFCURVE",
"871 126 OFFCURVE",
"870 134 CURVE",
"825 314 LINE",
"852 326 OFFCURVE",
"870 353 OFFCURVE",
"870 384 CURVE SMOOTH",
"870 417 OFFCURVE",
"850 445 OFFCURVE",
"819 456 CURVE",
"819 519 LINE",
"955 565 LINE",
"966 568 OFFCURVE",
"973 578 OFFCURVE",
"973 589 CURVE SMOOTH",
"973 600 OFFCURVE",
"966 609 OFFCURVE",
"955 613 CURVE SMOOTH"
);
},
{
closed = 1;
nodes = (
"807 410 OFFCURVE",
"819 399 OFFCURVE",
"819 384 CURVE SMOOTH",
"819 369 OFFCURVE",
"807 358 OFFCURVE",
"794 358 CURVE SMOOTH",
"779 358 OFFCURVE",
"768 369 OFFCURVE",
"768 384 CURVE SMOOTH",
"768 399 OFFCURVE",
"779 410 OFFCURVE",
"794 410 CURVE SMOOTH"
);
},
{
closed = 1;
nodes = (
"794 227 LINE",
"812 154 LINE",
"775 154 LINE"
);
},
{
closed = 1;
nodes = (
"491 614 LINE SMOOTH",
"476 617 OFFCURVE",
"464 606 OFFCURVE",
"461 593 CURVE SMOOTH",
"458 580 OFFCURVE",
"469 565 OFFCURVE",
"482 564 CURVE",
"688 529 LINE",
"486 462 LINE",
"107 589 LINE",
"486 715 LINE",
"866 589 LINE",
"792 564 LINE"
);
}
);
width = 1024;
}
);
unicode = E821;
},
{
glyphname = uniE822;
layers = (
{
layerId = "177FC93B-1B38-4AFC-964F-9D8881365EE5";
name = Regular;
paths = (
{
closed = 1;
nodes = (
"77 51 LINE SMOOTH",
"34 51 OFFCURVE",
"0 85 OFFCURVE",
"0 128 CURVE SMOOTH",
"0 794 LINE SMOOTH",
"0 835 OFFCURVE",
"34 870 OFFCURVE",
"77 870 CURVE SMOOTH",
"947 870 LINE SMOOTH",
"990 870 OFFCURVE",
"1024 835 OFFCURVE",
"1024 794 CURVE SMOOTH",
"1024 128 LINE SMOOTH",
"1024 85 OFFCURVE",
"990 51 OFFCURVE",
"947 51 CURVE SMOOTH"
);
},
{
closed = 1;
nodes = (
"62 819 OFFCURVE",
"51 807 OFFCURVE",
"51 794 CURVE SMOOTH",
"51 128 LINE SMOOTH",
"51 113 OFFCURVE",
"62 102 OFFCURVE",
"77 102 CURVE SMOOTH",
"947 102 LINE SMOOTH",
"962 102 OFFCURVE",
"973 113 OFFCURVE",
"973 128 CURVE SMOOTH",
"973 794 LINE SMOOTH",
"973 807 OFFCURVE",
"962 819 OFFCURVE",
"947 819 CURVE SMOOTH",
"77 819 LINE SMOOTH"
);
},
{
closed = 1;
nodes = (
"179 666 LINE SMOOTH",
"166 666 OFFCURVE",
"154 678 OFFCURVE",
"154 691 CURVE SMOOTH",
"154 706 OFFCURVE",
"166 717 OFFCURVE",
"179 717 CURVE SMOOTH",
"486 717 LINE SMOOTH",
"501 717 OFFCURVE",
"512 706 OFFCURVE",
"512 691 CURVE SMOOTH",
"512 678 OFFCURVE",
"501 666 OFFCURVE",
"486 666 CURVE SMOOTH"
);
},
{
closed = 1;
nodes = (
"179 512 LINE SMOOTH",
"166 512 OFFCURVE",
"154 523 OFFCURVE",
"154 538 CURVE SMOOTH",
"154 551 OFFCURVE",
"166 563 OFFCURVE",
"179 563 CURVE SMOOTH",
"486 563 LINE SMOOTH",
"501 563 OFFCURVE",
"512 551 OFFCURVE",
"512 538 CURVE SMOOTH",
"512 523 OFFCURVE",
"501 512 OFFCURVE",
"486 512 CURVE SMOOTH"
);
},
{
closed = 1;
nodes = (
"179 410 LINE SMOOTH",
"166 410 OFFCURVE",
"154 422 OFFCURVE",
"154 435 CURVE SMOOTH",
"154 450 OFFCURVE",
"166 461 OFFCURVE",
"179 461 CURVE SMOOTH",
"486 461 LINE SMOOTH",
"501 461 OFFCURVE",
"512 450 OFFCURVE",
"512 435 CURVE SMOOTH",
"512 422 OFFCURVE",
"501 410 OFFCURVE",
"486 410 CURVE SMOOTH"
);
},
{
closed = 1;
nodes = (
"179 307 LINE SMOOTH",
"166 307 OFFCURVE",
"154 318 OFFCURVE",
"154 333 CURVE SMOOTH",
"154 346 OFFCURVE",
"166 358 OFFCURVE",
"179 358 CURVE SMOOTH",
"486 358 LINE SMOOTH",
"501 358 OFFCURVE",
"512 346 OFFCURVE",
"512 333 CURVE SMOOTH",
"512 318 OFFCURVE",
"501 307 OFFCURVE",
"486 307 CURVE SMOOTH"
);
},
{
closed = 1;
nodes = (
"179 205 LINE SMOOTH",
"166 205 OFFCURVE",
"154 217 OFFCURVE",
"154 230 CURVE SMOOTH",
"154 245 OFFCURVE",
"166 256 OFFCURVE",
"179 256 CURVE SMOOTH",
"435 256 LINE SMOOTH",
"450 256 OFFCURVE",
"461 245 OFFCURVE",
"461 230 CURVE SMOOTH",
"461 217 OFFCURVE",
"450 205 OFFCURVE",
"435 205 CURVE SMOOTH"
);
},
{
closed = 1;
nodes = (
"877 668 LINE",
"861 717 LINE",
"810 717 LINE",
"768 747 LINE",
"726 717 LINE",
"675 717 LINE",
"659 668 LINE",
"617 638 LINE",
"633 589 LINE",
"617 540 LINE",
"659 510 LINE",
"666 489 LINE",
"666 488 OFFCURVE",
"666 488 OFFCURVE",
"666 488 CURVE",
"666 487 OFFCURVE",
"666 487 OFFCURVE",
"666 486 CURVE SMOOTH",
"666 230 LINE SMOOTH",
"666 221 OFFCURVE",
"672 211 OFFCURVE",
"681 207 CURVE",
"692 203 OFFCURVE",
"702 205 OFFCURVE",
"709 212 CURVE SMOOTH",
"768 271 LINE",
"827 212 LINE SMOOTH",
"831 208 OFFCURVE",
"838 205 OFFCURVE",
"845 205 CURVE SMOOTH",
"848 205 OFFCURVE",
"851 206 OFFCURVE",
"855 207 CURVE",
"864 211 OFFCURVE",
"870 221 OFFCURVE",
"870 230 CURVE SMOOTH",
"870 486 LINE SMOOTH",
"870 487 OFFCURVE",
"870 487 OFFCURVE",
"870 488 CURVE",
"870 488 OFFCURVE",
"870 488 OFFCURVE",
"870 489 CURVE",
"877 510 LINE",
"919 540 LINE",
"903 589 LINE",
"919 638 LINE"
);
},
{
closed = 1;
nodes = (
"703 636 LINE",
"712 666 LINE",
"743 666 LINE",
"768 684 LINE",
"793 666 LINE",
"824 666 LINE",
"833 636 LINE",
"858 618 LINE",
"849 589 LINE",
"858 559 LINE",
"833 541 LINE",
"824 512 LINE",
"793 512 LINE",
"768 494 LINE",
"743 512 LINE",
"712 512 LINE",
"703 541 LINE",
"678 559 LINE",
"687 589 LINE",
"678 618 LINE"
);
},
{
closed = 1;
nodes = (
"781 330 OFFCURVE",
"775 333 OFFCURVE",
"768 333 CURVE SMOOTH",
"761 333 OFFCURVE",
"755 330 OFFCURVE",
"750 325 CURVE SMOOTH",
"717 292 LINE",
"717 461 LINE",
"726 461 LINE",
"768 430 LINE",
"810 461 LINE",
"819 461 LINE",
"819 292 LINE",
"786 325 LINE SMOOTH"
);
}
);
width = 1024;
}
);
unicode = E822;
},
{
glyphname = uniE832;
layers = (
{
layerId = "177FC93B-1B38-4AFC-964F-9D8881365EE5";
name = Regular;
paths = (
{
closed = 1;
nodes = (
"651 896 LINE",
"640 905 OFFCURVE",
"629 911 OFFCURVE",
"614 911 CURVE SMOOTH",
"601 911 OFFCURVE",
"587 905 OFFCURVE",
"578 896 CURVE SMOOTH",
"563 881 LINE SMOOTH",
"548 866 OFFCURVE",
"538 840 OFFCURVE",
"538 819 CURVE SMOOTH",
"538 768 LINE SMOOTH",
"538 761 OFFCURVE",
"532 747 OFFCURVE",
"527 742 CURVE SMOOTH",
"384 599 LINE",
"379 595 OFFCURVE",
"366 589 OFFCURVE",
"358 589 CURVE SMOOTH",
"307 589 LINE SMOOTH",
"286 589 OFFCURVE",
"261 578 OFFCURVE",
"245 563 CURVE SMOOTH",
"230 548 LINE SMOOTH",
"220 538 OFFCURVE",
"215 526 OFFCURVE",
"215 512 CURVE SMOOTH",
"215 498 OFFCURVE",
"220 486 OFFCURVE",
"230 476 CURVE SMOOTH",
"310 396 LINE",
"57 67 LINE SMOOTH",
"49 56 OFFCURVE",
"50 42 OFFCURVE",
"59 33 CURVE",
"63 28 OFFCURVE",
"70 26 OFFCURVE",
"77 26 CURVE SMOOTH",
"82 26 OFFCURVE",
"88 27 OFFCURVE",
"92 31 CURVE",
"422 284 LINE",
"501 205 LINE",
"512 196 OFFCURVE",
"523 190 OFFCURVE",
"538 190 CURVE SMOOTH",
"551 190 OFFCURVE",
"565 196 OFFCURVE",
"574 205 CURVE SMOOTH",
"589 220 LINE SMOOTH",
"604 235 OFFCURVE",
"614 261 OFFCURVE",
"614 282 CURVE SMOOTH",
"614 333 LINE SMOOTH",
"614 340 OFFCURVE",
"620 354 OFFCURVE",
"625 358 CURVE",
"768 501 LINE SMOOTH",
"773 506 OFFCURVE",
"786 512 OFFCURVE",
"794 512 CURVE SMOOTH",
"845 512 LINE SMOOTH",
"866 512 OFFCURVE",
"891 522 OFFCURVE",
"907 538 CURVE SMOOTH",
"922 553 LINE SMOOTH",
"931 562 OFFCURVE",
"937 576 OFFCURVE",
"937 589 CURVE SMOOTH",
"937 602 OFFCURVE",
"931 616 OFFCURVE",
"922 625 CURVE SMOOTH"
);
},
{
closed = 1;
nodes = (
"346 360 LINE",
"385 321 LINE",
"217 191 LINE"
);
},
{
closed = 1;
nodes = (
"866 569 OFFCURVE",
"852 563 OFFCURVE",
"845 563 CURVE SMOOTH",
"794 563 LINE SMOOTH",
"773 563 OFFCURVE",
"747 553 OFFCURVE",
"732 538 CURVE SMOOTH",
"589 395 LINE SMOOTH",
"574 379 OFFCURVE",
"563 354 OFFCURVE",
"563 333 CURVE SMOOTH",
"563 282 LINE SMOOTH",
"563 274 OFFCURVE",
"557 261 OFFCURVE",
"553 256 CURVE",
"538 241 LINE",
"538 241 OFFCURVE",
"538 241 OFFCURVE",
"538 241 CURVE SMOOTH",
"538 241 OFFCURVE",
"538 241 OFFCURVE",
"538 241 CURVE SMOOTH",
"538 241 LINE",
"267 512 LINE",
"282 527 LINE",
"286 532 OFFCURVE",
"300 538 OFFCURVE",
"307 538 CURVE SMOOTH",
"358 538 LINE SMOOTH",
"379 538 OFFCURVE",
"405 548 OFFCURVE",
"420 563 CURVE SMOOTH",
"563 706 LINE SMOOTH",
"578 721 OFFCURVE",
"589 747 OFFCURVE",
"589 768 CURVE SMOOTH",
"589 819 LINE SMOOTH",
"589 827 OFFCURVE",
"595 840 OFFCURVE",
"599 845 CURVE",
"614 860 LINE",
"885 589 LINE",
"870 574 LINE"
);
}
);
width = 1024;
}
);
unicode = E832;
},
{
glyphname = uniE836;
layers = (
{
layerId = "177FC93B-1B38-4AFC-964F-9D8881365EE5";
name = Regular;
paths = (
{
closed = 1;
nodes = (
"819 870 LINE",
"819 896 LINE SMOOTH",
"819 911 OFFCURVE",
"807 922 OFFCURVE",
"794 922 CURVE SMOOTH",
"779 922 OFFCURVE",
"768 911 OFFCURVE",
"768 896 CURVE SMOOTH",
"768 870 LINE",
"256 870 LINE",
"256 896 LINE SMOOTH",
"256 911 OFFCURVE",
"245 922 OFFCURVE",
"230 922 CURVE SMOOTH",
"217 922 OFFCURVE",
"205 911 OFFCURVE",
"205 896 CURVE SMOOTH",
"205 870 LINE",
"77 870 LINE SMOOTH",
"34 870 OFFCURVE",
"0 835 OFFCURVE",
"0 794 CURVE SMOOTH",
"0 77 LINE SMOOTH",
"0 34 OFFCURVE",
"34 0 OFFCURVE",
"77 0 CURVE SMOOTH",
"947 0 LINE SMOOTH",
"990 0 OFFCURVE",
"1024 34 OFFCURVE",
"1024 77 CURVE SMOOTH",
"1024 794 LINE SMOOTH",
"1024 835 OFFCURVE",
"990 870 OFFCURVE",
"947 870 CURVE SMOOTH"
);
},
{
closed = 1;
nodes = (
"205 819 LINE",
"205 742 LINE SMOOTH",
"205 729 OFFCURVE",
"217 717 OFFCURVE",
"230 717 CURVE SMOOTH",
"245 717 OFFCURVE",
"256 729 OFFCURVE",
"256 742 CURVE SMOOTH",
"256 819 LINE",
"768 819 LINE",
"768 742 LINE SMOOTH",
"768 729 OFFCURVE",
"779 717 OFFCURVE",
"794 717 CURVE SMOOTH",
"807 717 OFFCURVE",
"819 729 OFFCURVE",
"819 742 CURVE SMOOTH",
"819 819 LINE",
"947 819 LINE SMOOTH",
"962 819 OFFCURVE",
"973 807 OFFCURVE",
"973 794 CURVE SMOOTH",
"973 666 LINE",
"51 666 LINE",
"51 794 LINE SMOOTH",
"51 807 OFFCURVE",
"62 819 OFFCURVE",
"77 819 CURVE SMOOTH"
);
},
{
closed = 1;
nodes = (
"77 51 LINE SMOOTH",
"62 51 OFFCURVE",
"51 62 OFFCURVE",
"51 77 CURVE SMOOTH",
"51 614 LINE",
"973 614 LINE",
"973 77 LINE SMOOTH",
"973 62 OFFCURVE",
"962 51 OFFCURVE",
"947 51 CURVE SMOOTH"
);
},
{
closed = 1;
nodes = (
"333 461 LINE SMOOTH",
"318 461 OFFCURVE",
"307 473 OFFCURVE",
"307 486 CURVE SMOOTH",
"307 501 OFFCURVE",
"318 512 OFFCURVE",
"333 512 CURVE SMOOTH",
"384 512 LINE SMOOTH",
"399 512 OFFCURVE",
"410 501 OFFCURVE",
"410 486 CURVE SMOOTH",
"410 473 OFFCURVE",
"399 461 OFFCURVE",
"384 461 CURVE SMOOTH"
);
},
{
closed = 1;
nodes = (
"486 461 LINE SMOOTH",
"473 461 OFFCURVE",
"461 473 OFFCURVE",
"461 486 CURVE SMOOTH",
"461 501 OFFCURVE",
"473 512 OFFCURVE",
"486 512 CURVE SMOOTH",
"538 512 LINE SMOOTH",
"551 512 OFFCURVE",
"563 501 OFFCURVE",
"563 486 CURVE SMOOTH",
"563 473 OFFCURVE",
"551 461 OFFCURVE",
"538 461 CURVE SMOOTH"
);
},
{
closed = 1;
nodes = (
"640 461 LINE SMOOTH",
"625 461 OFFCURVE",
"614 473 OFFCURVE",
"614 486 CURVE SMOOTH",
"614 501 OFFCURVE",
"625 512 OFFCURVE",
"640 512 CURVE SMOOTH",
"691 512 LINE SMOOTH",
"706 512 OFFCURVE",
"717 501 OFFCURVE",
"717 486 CURVE SMOOTH",
"717 473 OFFCURVE",
"706 461 OFFCURVE",
"691 461 CURVE SMOOTH"
);
},
{
closed = 1;
nodes = (
"794 461 LINE SMOOTH",
"779 461 OFFCURVE",
"768 473 OFFCURVE",
"768 486 CURVE SMOOTH",
"768 501 OFFCURVE",
"779 512 OFFCURVE",
"794 512 CURVE SMOOTH",
"845 512 LINE SMOOTH",
"858 512 OFFCURVE",
"870 501 OFFCURVE",
"870 486 CURVE SMOOTH",
"870 473 OFFCURVE",
"858 461 OFFCURVE",
"845 461 CURVE SMOOTH"
);
},
{
closed = 1;
nodes = (
"179 358 LINE SMOOTH",
"166 358 OFFCURVE",
"154 369 OFFCURVE",
"154 384 CURVE SMOOTH",
"154 399 OFFCURVE",
"166 410 OFFCURVE",
"179 410 CURVE SMOOTH",
"230 410 LINE SMOOTH",
"245 410 OFFCURVE",
"256 399 OFFCURVE",
"256 384 CURVE SMOOTH",
"256 369 OFFCURVE",
"245 358 OFFCURVE",
"230 358 CURVE SMOOTH"
);
},
{
closed = 1;
nodes = (
"333 358 LINE SMOOTH",
"318 358 OFFCURVE",
"307 369 OFFCURVE",
"307 384 CURVE SMOOTH",
"307 399 OFFCURVE",
"318 410 OFFCURVE",
"333 410 CURVE SMOOTH",
"384 410 LINE SMOOTH",
"399 410 OFFCURVE",
"410 399 OFFCURVE",
"410 384 CURVE SMOOTH",
"410 369 OFFCURVE",
"399 358 OFFCURVE",
"384 358 CURVE SMOOTH"
);
},
{
closed = 1;
nodes = (
"486 358 LINE SMOOTH",
"473 358 OFFCURVE",
"461 369 OFFCURVE",
"461 384 CURVE SMOOTH",
"461 399 OFFCURVE",
"473 410 OFFCURVE",
"486 410 CURVE SMOOTH",
"538 410 LINE SMOOTH",
"551 410 OFFCURVE",
"563 399 OFFCURVE",
"563 384 CURVE SMOOTH",
"563 369 OFFCURVE",
"551 358 OFFCURVE",
"538 358 CURVE SMOOTH"
);
},
{
closed = 1;
nodes = (
"640 358 LINE SMOOTH",
"625 358 OFFCURVE",
"614 369 OFFCURVE",
"614 384 CURVE SMOOTH",
"614 399 OFFCURVE",
"625 410 OFFCURVE",
"640 410 CURVE SMOOTH",
"691 410 LINE SMOOTH",
"706 410 OFFCURVE",
"717 399 OFFCURVE",
"717 384 CURVE SMOOTH",
"717 369 OFFCURVE",
"706 358 OFFCURVE",
"691 358 CURVE SMOOTH"
);
},
{
closed = 1;
nodes = (
"794 358 LINE SMOOTH",
"779 358 OFFCURVE",
"768 369 OFFCURVE",
"768 384 CURVE SMOOTH",
"768 399 OFFCURVE",
"779 410 OFFCURVE",
"794 410 CURVE SMOOTH",
"845 410 LINE SMOOTH",
"858 410 OFFCURVE",
"870 399 OFFCURVE",
"870 384 CURVE SMOOTH",
"870 369 OFFCURVE",
"858 358 OFFCURVE",
"845 358 CURVE SMOOTH"
);
},
{
closed = 1;
nodes = (
"179 256 LINE SMOOTH",
"166 256 OFFCURVE",
"154 267 OFFCURVE",
"154 282 CURVE SMOOTH",
"154 295 OFFCURVE",
"166 307 OFFCURVE",
"179 307 CURVE SMOOTH",
"230 307 LINE SMOOTH",
"245 307 OFFCURVE",
"256 295 OFFCURVE",
"256 282 CURVE SMOOTH",
"256 267 OFFCURVE",
"245 256 OFFCURVE",
"230 256 CURVE SMOOTH"
);
},
{
closed = 1;
nodes = (
"333 256 LINE SMOOTH",
"318 256 OFFCURVE",
"307 267 OFFCURVE",
"307 282 CURVE SMOOTH",
"307 295 OFFCURVE",
"318 307 OFFCURVE",
"333 307 CURVE SMOOTH",
"384 307 LINE SMOOTH",
"399 307 OFFCURVE",
"410 295 OFFCURVE",
"410 282 CURVE SMOOTH",
"410 267 OFFCURVE",
"399 256 OFFCURVE",
"384 256 CURVE SMOOTH"
);
},
{
closed = 1;
nodes = (
"486 256 LINE SMOOTH",
"473 256 OFFCURVE",
"461 267 OFFCURVE",
"461 282 CURVE SMOOTH",
"461 295 OFFCURVE",
"473 307 OFFCURVE",
"486 307 CURVE SMOOTH",
"538 307 LINE SMOOTH",
"551 307 OFFCURVE",
"563 295 OFFCURVE",
"563 282 CURVE SMOOTH",
"563 267 OFFCURVE",
"551 256 OFFCURVE",
"538 256 CURVE SMOOTH"
);
},
{
closed = 1;
nodes = (
"640 256 LINE SMOOTH",
"625 256 OFFCURVE",
"614 267 OFFCURVE",
"614 282 CURVE SMOOTH",
"614 295 OFFCURVE",
"625 307 OFFCURVE",
"640 307 CURVE SMOOTH",
"691 307 LINE SMOOTH",
"706 307 OFFCURVE",
"717 295 OFFCURVE",
"717 282 CURVE SMOOTH",
"717 267 OFFCURVE",
"706 256 OFFCURVE",
"691 256 CURVE SMOOTH"
);
},
{
closed = 1;
nodes = (
"794 256 LINE SMOOTH",
"779 256 OFFCURVE",
"768 267 OFFCURVE",
"768 282 CURVE SMOOTH",
"768 295 OFFCURVE",
"779 307 OFFCURVE",
"794 307 CURVE SMOOTH",
"845 307 LINE SMOOTH",
"858 307 OFFCURVE",
"870 295 OFFCURVE",
"870 282 CURVE SMOOTH",
"870 267 OFFCURVE",
"858 256 OFFCURVE",
"845 256 CURVE SMOOTH"
);
},
{
closed = 1;
nodes = (
"179 154 LINE SMOOTH",
"166 154 OFFCURVE",
"154 166 OFFCURVE",
"154 179 CURVE SMOOTH",
"154 194 OFFCURVE",
"166 205 OFFCURVE",
"179 205 CURVE SMOOTH",
"230 205 LINE SMOOTH",
"245 205 OFFCURVE",
"256 194 OFFCURVE",
"256 179 CURVE SMOOTH",
"256 166 OFFCURVE",
"245 154 OFFCURVE",
"230 154 CURVE SMOOTH"
);
},
{
closed = 1;
nodes = (
"333 154 LINE SMOOTH",
"318 154 OFFCURVE",
"307 166 OFFCURVE",
"307 179 CURVE SMOOTH",
"307 194 OFFCURVE",
"318 205 OFFCURVE",
"333 205 CURVE SMOOTH",
"384 205 LINE SMOOTH",
"399 205 OFFCURVE",
"410 194 OFFCURVE",
"410 179 CURVE SMOOTH",
"410 166 OFFCURVE",
"399 154 OFFCURVE",
"384 154 CURVE SMOOTH"
);
},
{
closed = 1;
nodes = (
"486 154 LINE SMOOTH",
"473 154 OFFCURVE",
"461 166 OFFCURVE",
"461 179 CURVE SMOOTH",
"461 194 OFFCURVE",
"473 205 OFFCURVE",
"486 205 CURVE SMOOTH",
"538 205 LINE SMOOTH",
"551 205 OFFCURVE",
"563 194 OFFCURVE",
"563 179 CURVE SMOOTH",
"563 166 OFFCURVE",
"551 154 OFFCURVE",
"538 154 CURVE SMOOTH"
);
},
{
closed = 1;
nodes = (
"640 154 LINE SMOOTH",
"625 154 OFFCURVE",
"614 166 OFFCURVE",
"614 179 CURVE SMOOTH",
"614 194 OFFCURVE",
"625 205 OFFCURVE",
"640 205 CURVE SMOOTH",
"691 205 LINE SMOOTH",
"706 205 OFFCURVE",
"717 194 OFFCURVE",
"717 179 CURVE SMOOTH",
"717 166 OFFCURVE",
"706 154 OFFCURVE",
"691 154 CURVE SMOOTH"
);
},
{
closed = 1;
nodes = (
"794 154 LINE SMOOTH",
"779 154 OFFCURVE",
"768 166 OFFCURVE",
"768 179 CURVE SMOOTH",
"768 194 OFFCURVE",
"779 205 OFFCURVE",
"794 205 CURVE SMOOTH",
"845 205 LINE SMOOTH",
"858 205 OFFCURVE",
"870 194 OFFCURVE",
"870 179 CURVE SMOOTH",
"870 166 OFFCURVE",
"858 154 OFFCURVE",
"845 154 CURVE SMOOTH"
);
}
);
width = 1024;
}
);
unicode = E836;
},
{
glyphname = uniE837;
layers = (
{
layerId = "177FC93B-1B38-4AFC-964F-9D8881365EE5";
name = Regular;
paths = (
{
closed = 1;
nodes = (
"77 154 LINE SMOOTH",
"34 154 OFFCURVE",
"0 189 OFFCURVE",
"0 230 CURVE SMOOTH",
"0 640 LINE SMOOTH",
"0 683 OFFCURVE",
"34 717 OFFCURVE",
"77 717 CURVE SMOOTH",
"896 717 LINE SMOOTH",
"939 717 OFFCURVE",
"973 683 OFFCURVE",
"973 640 CURVE SMOOTH",
"973 230 LINE SMOOTH",
"973 189 OFFCURVE",
"939 154 OFFCURVE",
"896 154 CURVE SMOOTH"
);
},
{
closed = 1;
nodes = (
"62 666 OFFCURVE",
"51 655 OFFCURVE",
"51 640 CURVE SMOOTH",
"51 230 LINE SMOOTH",
"51 217 OFFCURVE",
"62 205 OFFCURVE",
"77 205 CURVE SMOOTH",
"896 205 LINE SMOOTH",
"911 205 OFFCURVE",
"922 217 OFFCURVE",
"922 230 CURVE SMOOTH",
"922 640 LINE SMOOTH",
"922 655 OFFCURVE",
"911 666 OFFCURVE",
"896 666 CURVE SMOOTH",
"77 666 LINE SMOOTH"
);
},
{
closed = 1;
nodes = (
"128 563 LINE SMOOTH",
"113 563 OFFCURVE",
"102 574 OFFCURVE",
"102 589 CURVE SMOOTH",
"102 602 OFFCURVE",
"113 614 OFFCURVE",
"128 614 CURVE SMOOTH",
"179 614 LINE SMOOTH",
"194 614 OFFCURVE",
"205 602 OFFCURVE",
"205 589 CURVE SMOOTH",
"205 574 OFFCURVE",
"194 563 OFFCURVE",
"179 563 CURVE SMOOTH"
);
},
{
closed = 1;
nodes = (
"794 563 LINE SMOOTH",
"779 563 OFFCURVE",
"768 574 OFFCURVE",
"768 589 CURVE SMOOTH",
"768 602 OFFCURVE",
"779 614 OFFCURVE",
"794 614 CURVE SMOOTH",
"845 614 LINE SMOOTH",
"858 614 OFFCURVE",
"870 602 OFFCURVE",
"870 589 CURVE SMOOTH",
"870 574 OFFCURVE",
"858 563 OFFCURVE",
"845 563 CURVE SMOOTH"
);
},
{
closed = 1;
nodes = (
"128 461 LINE SMOOTH",
"113 461 OFFCURVE",
"102 473 OFFCURVE",
"102 486 CURVE SMOOTH",
"102 501 OFFCURVE",
"113 512 OFFCURVE",
"128 512 CURVE SMOOTH",
"230 512 LINE SMOOTH",
"245 512 OFFCURVE",
"256 501 OFFCURVE",
"256 486 CURVE SMOOTH",
"256 473 OFFCURVE",
"245 461 OFFCURVE",
"230 461 CURVE SMOOTH"
);
},
{
closed = 1;
nodes = (
"128 256 LINE SMOOTH",
"113 256 OFFCURVE",
"102 267 OFFCURVE",
"102 282 CURVE SMOOTH",
"102 295 OFFCURVE",
"113 307 OFFCURVE",
"128 307 CURVE SMOOTH",
"179 307 LINE SMOOTH",
"194 307 OFFCURVE",
"205 295 OFFCURVE",
"205 282 CURVE SMOOTH",
"205 267 OFFCURVE",
"194 256 OFFCURVE",
"179 256 CURVE SMOOTH"
);
},
{
closed = 1;
nodes = (
"282 256 LINE SMOOTH",
"267 256 OFFCURVE",
"256 267 OFFCURVE",
"256 282 CURVE SMOOTH",
"256 295 OFFCURVE",
"267 307 OFFCURVE",
"282 307 CURVE SMOOTH",
"589 307 LINE SMOOTH",
"602 307 OFFCURVE",
"614 295 OFFCURVE",
"614 282 CURVE SMOOTH",
"614 267 OFFCURVE",
"602 256 OFFCURVE",
"589 256 CURVE SMOOTH"
);
},
{
closed = 1;
nodes = (
"691 256 LINE SMOOTH",
"678 256 OFFCURVE",
"666 267 OFFCURVE",
"666 282 CURVE SMOOTH",
"666 295 OFFCURVE",
"678 307 OFFCURVE",
"691 307 CURVE SMOOTH",
"742 307 LINE SMOOTH",
"757 307 OFFCURVE",
"768 295 OFFCURVE",
"768 282 CURVE SMOOTH",
"768 267 OFFCURVE",
"757 256 OFFCURVE",
"742 256 CURVE SMOOTH"
);
},
{
closed = 1;
nodes = (
"691 358 LINE SMOOTH",
"678 358 OFFCURVE",
"666 369 OFFCURVE",
"666 384 CURVE SMOOTH",
"666 399 OFFCURVE",
"678 410 OFFCURVE",
"691 410 CURVE SMOOTH",
"819 410 LINE",
"819 486 LINE SMOOTH",
"819 501 OFFCURVE",
"830 512 OFFCURVE",
"845 512 CURVE SMOOTH",
"858 512 OFFCURVE",
"870 501 OFFCURVE",
"870 486 CURVE SMOOTH",
"870 384 LINE SMOOTH",
"870 369 OFFCURVE",
"858 358 OFFCURVE",
"845 358 CURVE SMOOTH"
);
},
{
closed = 1;
nodes = (
"128 358 LINE SMOOTH",
"113 358 OFFCURVE",
"102 369 OFFCURVE",
"102 384 CURVE SMOOTH",
"102 399 OFFCURVE",
"113 410 OFFCURVE",
"128 410 CURVE SMOOTH",
"282 410 LINE SMOOTH",
"295 410 OFFCURVE",
"307 399 OFFCURVE",
"307 384 CURVE SMOOTH",
"307 369 OFFCURVE",
"295 358 OFFCURVE",
"282 358 CURVE SMOOTH"
);
},
{
closed = 1;
nodes = (
"307 574 OFFCURVE",
"295 563 OFFCURVE",
"282 563 CURVE SMOOTH",
"267 563 OFFCURVE",
"256 574 OFFCURVE",
"256 589 CURVE SMOOTH",
"256 602 OFFCURVE",
"267 614 OFFCURVE",
"282 614 CURVE SMOOTH",
"295 614 OFFCURVE",
"307 602 OFFCURVE",
"307 589 CURVE SMOOTH"
);
},
{
closed = 1;
nodes = (
"410 574 OFFCURVE",
"399 563 OFFCURVE",
"384 563 CURVE SMOOTH",
"369 563 OFFCURVE",
"358 574 OFFCURVE",
"358 589 CURVE SMOOTH",
"358 602 OFFCURVE",
"369 614 OFFCURVE",
"384 614 CURVE SMOOTH",
"399 614 OFFCURVE",
"410 602 OFFCURVE",
"410 589 CURVE SMOOTH"
);
},
{
closed = 1;
nodes = (
"512 574 OFFCURVE",
"501 563 OFFCURVE",
"486 563 CURVE SMOOTH",
"473 563 OFFCURVE",
"461 574 OFFCURVE",
"461 589 CURVE SMOOTH",
"461 602 OFFCURVE",
"473 614 OFFCURVE",
"486 614 CURVE SMOOTH",
"501 614 OFFCURVE",
"512 602 OFFCURVE",
"512 589 CURVE SMOOTH"
);
},
{
closed = 1;
nodes = (
"614 574 OFFCURVE",
"602 563 OFFCURVE",
"589 563 CURVE SMOOTH",
"574 563 OFFCURVE",
"563 574 OFFCURVE",
"563 589 CURVE SMOOTH",
"563 602 OFFCURVE",
"574 614 OFFCURVE",
"589 614 CURVE SMOOTH",
"602 614 OFFCURVE",
"614 602 OFFCURVE",
"614 589 CURVE SMOOTH"
);
},
{
closed = 1;
nodes = (
"717 574 OFFCURVE",
"706 563 OFFCURVE",
"691 563 CURVE SMOOTH",
"678 563 OFFCURVE",
"666 574 OFFCURVE",
"666 589 CURVE SMOOTH",
"666 602 OFFCURVE",
"678 614 OFFCURVE",
"691 614 CURVE SMOOTH",
"706 614 OFFCURVE",
"717 602 OFFCURVE",
"717 589 CURVE SMOOTH"
);
},
{
closed = 1;
nodes = (
"358 473 OFFCURVE",
"346 461 OFFCURVE",
"333 461 CURVE SMOOTH",
"318 461 OFFCURVE",
"307 473 OFFCURVE",
"307 486 CURVE SMOOTH",
"307 501 OFFCURVE",
"318 512 OFFCURVE",
"333 512 CURVE SMOOTH",
"346 512 OFFCURVE",
"358 501 OFFCURVE",
"358 486 CURVE SMOOTH"
);
},
{
closed = 1;
nodes = (
"461 473 OFFCURVE",
"450 461 OFFCURVE",
"435 461 CURVE SMOOTH",
"422 461 OFFCURVE",
"410 473 OFFCURVE",
"410 486 CURVE SMOOTH",
"410 501 OFFCURVE",
"422 512 OFFCURVE",
"435 512 CURVE SMOOTH",
"450 512 OFFCURVE",
"461 501 OFFCURVE",
"461 486 CURVE SMOOTH"
);
},
{
closed = 1;
nodes = (
"563 473 OFFCURVE",
"551 461 OFFCURVE",
"538 461 CURVE SMOOTH",
"523 461 OFFCURVE",
"512 473 OFFCURVE",
"512 486 CURVE SMOOTH",
"512 501 OFFCURVE",
"523 512 OFFCURVE",
"538 512 CURVE SMOOTH",
"551 512 OFFCURVE",
"563 501 OFFCURVE",
"563 486 CURVE SMOOTH"
);
},
{
closed = 1;
nodes = (
"666 473 OFFCURVE",
"655 461 OFFCURVE",
"640 461 CURVE SMOOTH",
"625 461 OFFCURVE",
"614 473 OFFCURVE",
"614 486 CURVE SMOOTH",
"614 501 OFFCURVE",
"625 512 OFFCURVE",
"640 512 CURVE SMOOTH",
"655 512 OFFCURVE",
"666 501 OFFCURVE",
"666 486 CURVE SMOOTH"
);
},
{
closed = 1;
nodes = (
"768 473 OFFCURVE",
"757 461 OFFCURVE",
"742 461 CURVE SMOOTH",
"729 461 OFFCURVE",
"717 473 OFFCURVE",
"717 486 CURVE SMOOTH",
"717 501 OFFCURVE",
"729 512 OFFCURVE",
"742 512 CURVE SMOOTH",
"757 512 OFFCURVE",
"768 501 OFFCURVE",
"768 486 CURVE SMOOTH"
);
},
{
closed = 1;
nodes = (
"410 369 OFFCURVE",
"399 358 OFFCURVE",
"384 358 CURVE SMOOTH",
"369 358 OFFCURVE",
"358 369 OFFCURVE",
"358 384 CURVE SMOOTH",
"358 399 OFFCURVE",
"369 410 OFFCURVE",
"384 410 CURVE SMOOTH",
"399 410 OFFCURVE",
"410 399 OFFCURVE",
"410 384 CURVE SMOOTH"
);
},
{
closed = 1;
nodes = (
"512 369 OFFCURVE",
"501 358 OFFCURVE",
"486 358 CURVE SMOOTH",
"473 358 OFFCURVE",
"461 369 OFFCURVE",
"461 384 CURVE SMOOTH",
"461 399 OFFCURVE",
"473 410 OFFCURVE",
"486 410 CURVE SMOOTH",
"501 410 OFFCURVE",
"512 399 OFFCURVE",
"512 384 CURVE SMOOTH"
);
},
{
closed = 1;
nodes = (
"614 369 OFFCURVE",
"602 358 OFFCURVE",
"589 358 CURVE SMOOTH",
"574 358 OFFCURVE",
"563 369 OFFCURVE",
"563 384 CURVE SMOOTH",
"563 399 OFFCURVE",
"574 410 OFFCURVE",
"589 410 CURVE SMOOTH",
"602 410 OFFCURVE",
"614 399 OFFCURVE",
"614 384 CURVE SMOOTH"
);
}
);
width = 1024;
}
);
unicode = E837;
},
{
glyphname = uniE839;
layers = (
{
layerId = "177FC93B-1B38-4AFC-964F-9D8881365EE5";
name = Regular;
paths = (
{
closed = 1;
nodes = (
"77 870 LINE SMOOTH",
"34 870 OFFCURVE",
"0 835 OFFCURVE",
"0 794 CURVE SMOOTH",
"0 282 LINE SMOOTH",
"0 239 OFFCURVE",
"34 205 OFFCURVE",
"77 205 CURVE SMOOTH",
"461 205 LINE",
"461 102 LINE",
"282 102 LINE SMOOTH",
"267 102 OFFCURVE",
"256 90 OFFCURVE",
"256 77 CURVE SMOOTH",
"256 62 OFFCURVE",
"267 51 OFFCURVE",
"282 51 CURVE SMOOTH",
"691 51 LINE SMOOTH",
"706 51 OFFCURVE",
"717 62 OFFCURVE",
"717 77 CURVE SMOOTH",
"717 90 OFFCURVE",
"706 102 OFFCURVE",
"691 102 CURVE SMOOTH",
"512 102 LINE",
"512 205 LINE",
"896 205 LINE SMOOTH",
"939 205 OFFCURVE",
"973 239 OFFCURVE",
"973 282 CURVE SMOOTH",
"973 794 LINE SMOOTH",
"973 835 OFFCURVE",
"939 870 OFFCURVE",
"896 870 CURVE SMOOTH"
);
},
{
closed = 1;
nodes = (
"922 267 OFFCURVE",
"911 256 OFFCURVE",
"896 256 CURVE SMOOTH",
"77 256 LINE SMOOTH",
"62 256 OFFCURVE",
"51 267 OFFCURVE",
"51 282 CURVE SMOOTH",
"51 794 LINE SMOOTH",
"51 807 OFFCURVE",
"62 819 OFFCURVE",
"77 819 CURVE SMOOTH",
"896 819 LINE SMOOTH",
"911 819 OFFCURVE",
"922 807 OFFCURVE",
"922 794 CURVE SMOOTH",
"922 282 LINE SMOOTH"
);
}
);
width = 1024;
}
);
unicode = E839;
},
{
glyphname = uniE83C;
layers = (
{
layerId = "177FC93B-1B38-4AFC-964F-9D8881365EE5";
name = Regular;
paths = (
{
closed = 1;
nodes = (
"845 256 LINE SMOOTH",
"888 256 OFFCURVE",
"922 290 OFFCURVE",
"922 333 CURVE SMOOTH",
"922 742 LINE SMOOTH",
"922 785 OFFCURVE",
"888 819 OFFCURVE",
"845 819 CURVE SMOOTH",
"179 819 LINE SMOOTH",
"136 819 OFFCURVE",
"102 785 OFFCURVE",
"102 742 CURVE SMOOTH",
"102 333 LINE SMOOTH",
"102 290 OFFCURVE",
"136 256 OFFCURVE",
"179 256 CURVE SMOOTH"
);
},
{
closed = 1;
nodes = (
"154 757 OFFCURVE",
"166 768 OFFCURVE",
"179 768 CURVE SMOOTH",
"845 768 LINE SMOOTH",
"858 768 OFFCURVE",
"870 757 OFFCURVE",
"870 742 CURVE SMOOTH",
"870 333 LINE SMOOTH",
"870 318 OFFCURVE",
"858 307 OFFCURVE",
"845 307 CURVE SMOOTH",
"179 307 LINE SMOOTH",
"166 307 OFFCURVE",
"154 318 OFFCURVE",
"154 333 CURVE SMOOTH",
"154 742 LINE SMOOTH"
);
},
{
closed = 1;
nodes = (
"26 205 LINE SMOOTH",
"11 205 OFFCURVE",
"0 194 OFFCURVE",
"0 179 CURVE SMOOTH",
"0 128 LINE SMOOTH",
"0 85 OFFCURVE",
"34 51 OFFCURVE",
"77 51 CURVE SMOOTH",
"947 51 LINE SMOOTH",
"990 51 OFFCURVE",
"1024 85 OFFCURVE",
"1024 128 CURVE SMOOTH",
"1024 179 LINE SMOOTH",
"1024 194 OFFCURVE",
"1013 205 OFFCURVE",
"998 205 CURVE SMOOTH"
);
},
{
closed = 1;
nodes = (
"77 102 LINE SMOOTH",
"62 102 OFFCURVE",
"51 113 OFFCURVE",
"51 128 CURVE SMOOTH",
"51 154 LINE",
"973 154 LINE",
"973 128 LINE SMOOTH",
"973 113 OFFCURVE",
"962 102 OFFCURVE",
"947 102 CURVE SMOOTH"
);
}
);
width = 1024;
}
);
unicode = E83C;
},
{
glyphname = uniE84B;
layers = (
{
layerId = "177FC93B-1B38-4AFC-964F-9D8881365EE5";
name = Regular;
paths = (
{
closed = 1;
nodes = (
"620 512 OFFCURVE",
"563 569 OFFCURVE",
"563 640 CURVE SMOOTH",
"563 711 OFFCURVE",
"620 768 OFFCURVE",
"691 768 CURVE SMOOTH",
"762 768 OFFCURVE",
"819 711 OFFCURVE",
"819 640 CURVE SMOOTH",
"819 569 OFFCURVE",
"762 512 OFFCURVE",
"691 512 CURVE SMOOTH"
);
},
{
closed = 1;
nodes = (
"648 717 OFFCURVE",
"614 683 OFFCURVE",
"614 640 CURVE SMOOTH",
"614 597 OFFCURVE",
"648 563 OFFCURVE",
"691 563 CURVE SMOOTH",
"734 563 OFFCURVE",
"768 597 OFFCURVE",
"768 640 CURVE SMOOTH",
"768 683 OFFCURVE",
"734 717 OFFCURVE",
"691 717 CURVE SMOOTH"
);
},
{
closed = 1;
nodes = (
"19 -51 OFFCURVE",
"12 -48 OFFCURVE",
"7 -44 CURVE",
"0 -36 OFFCURVE",
"-2 -26 OFFCURVE",
"2 -17 CURVE",
"41 91 OFFCURVE",
"82 173 OFFCURVE",
"123 228 CURVE SMOOTH",
"163 283 OFFCURVE",
"205 310 OFFCURVE",
"248 310 CURVE SMOOTH",
"276 310 OFFCURVE",
"302 298 OFFCURVE",
"325 274 CURVE SMOOTH",
"362 237 OFFCURVE",
"365 200 OFFCURVE",
"358 175 CURVE",
"350 136 OFFCURVE",
"319 98 OFFCURVE",
"265 61 CURVE SMOOTH",
"211 24 OFFCURVE",
"134 -14 OFFCURVE",
"34 -50 CURVE",
"33 -50 OFFCURVE",
"31 -50 OFFCURVE",
"30 -50 CURVE",
"29 -51 OFFCURVE",
"27 -51 OFFCURVE",
"26 -51 CURVE SMOOTH"
);
},
{
closed = 1;
nodes = (
"223 258 OFFCURVE",
"193 237 OFFCURVE",
"161 194 CURVE SMOOTH",
"132 153 OFFCURVE",
"101 94 OFFCURVE",
"70 19 CURVE",
"138 46 OFFCURVE",
"193 74 OFFCURVE",
"234 102 CURVE SMOOTH",
"261 121 OFFCURVE",
"280 137 OFFCURVE",
"291 152 CURVE SMOOTH",
"311 180 OFFCURVE",
"313 196 OFFCURVE",
"307 213 CURVE SMOOTH",
"301 229 OFFCURVE",
"283 246 OFFCURVE",
"269 253 CURVE",
"262 256 OFFCURVE",
"255 258 OFFCURVE",
"248 258 CURVE SMOOTH"
);
},
{
closed = 1;
nodes = (
"933 973 OFFCURVE",
"869 967 OFFCURVE",
"810 956 CURVE SMOOTH",
"751 945 OFFCURVE",
"697 927 OFFCURVE",
"646 906 CURVE SMOOTH",
"563 869 OFFCURVE",
"492 818 OFFCURVE",
"435 753 CURVE SMOOTH",
"424 741 OFFCURVE",
"414 729 OFFCURVE",
"406 716 CURVE",
"361 713 OFFCURVE",
"316 696 OFFCURVE",
"271 664 CURVE SMOOTH",
"234 637 OFFCURVE",
"194 601 OFFCURVE",
"157 554 CURVE SMOOTH",
"126 515 OFFCURVE",
"101 479 OFFCURVE",
"83 447 CURVE SMOOTH",
"64 414 OFFCURVE",
"55 397 OFFCURVE",
"54 395 CURVE",
"49 384 OFFCURVE",
"51 371 OFFCURVE",
"62 363 CURVE SMOOTH",
"66 360 OFFCURVE",
"72 358 OFFCURVE",
"77 358 CURVE SMOOTH",
"84 358 OFFCURVE",
"90 361 OFFCURVE",
"95 366 CURVE",
"95 366 OFFCURVE",
"101 371 OFFCURVE",
"113 381 CURVE SMOOTH",
"136 401 OFFCURVE",
"174 423 OFFCURVE",
"226 443 CURVE SMOOTH",
"252 452 OFFCURVE",
"281 458 OFFCURVE",
"313 460 CURVE",
"329 419 OFFCURVE",
"375 368 OFFCURVE",
"398 347 CURVE",
"421 324 OFFCURVE",
"470 278 OFFCURVE",
"511 262 CURVE",
"507 198 OFFCURVE",
"485 145 OFFCURVE",
"465 110 CURVE SMOOTH",
"453 89 OFFCURVE",
"442 73 OFFCURVE",
"432 62 CURVE",
"422 50 OFFCURVE",
"417 44 OFFCURVE",
"417 44 CURVE",
"408 35 OFFCURVE",
"407 20 OFFCURVE",
"414 11 CURVE",
"419 3 OFFCURVE",
"427 0 OFFCURVE",
"435 0 CURVE SMOOTH",
"439 0 OFFCURVE",
"443 0 OFFCURVE",
"447 3 CURVE",
"448 4 OFFCURVE",
"465 13 OFFCURVE",
"498 32 CURVE SMOOTH",
"562 68 OFFCURVE",
"631 125 OFFCURVE",
"668 163 CURVE SMOOTH",
"704 201 OFFCURVE",
"735 243 OFFCURVE",
"752 288 CURVE SMOOTH",
"761 310 OFFCURVE",
"766 332 OFFCURVE",
"768 354 CURVE",
"780 363 OFFCURVE",
"792 373 OFFCURVE",
"804 384 CURVE SMOOTH",
"869 441 OFFCURVE",
"921 512 OFFCURVE",
"957 595 CURVE SMOOTH",
"980 646 OFFCURVE",
"996 700 OFFCURVE",
"1008 759 CURVE SMOOTH",
"1019 818 OFFCURVE",
"1024 880 OFFCURVE",
"1024 947 CURVE SMOOTH",
"1024 973 LINE",
"998 973 LINE SMOOTH"
);
},
{
closed = 1;
nodes = (
"208 542 OFFCURVE",
"283 629 OFFCURVE",
"367 657 CURVE",
"334 598 OFFCURVE",
"317 546 OFFCURVE",
"310 511 CURVE",
"250 508 OFFCURVE",
"199 490 OFFCURVE",
"159 471 CURVE"
);
},
{
closed = 1;
nodes = (
"542 148 OFFCURVE",
"559 199 OFFCURVE",
"562 259 CURVE",
"597 264 OFFCURVE",
"649 282 OFFCURVE",
"708 315 CURVE",
"680 231 OFFCURVE",
"593 157 OFFCURVE",
"522 108 CURVE"
);
},
{
closed = 1;
nodes = (
"717 375 OFFCURVE",
"667 345 OFFCURVE",
"620 330 CURVE SMOOTH",
"573 315 OFFCURVE",
"546 307 OFFCURVE",
"538 307 CURVE SMOOTH",
"538 307 OFFCURVE",
"535 308 OFFCURVE",
"529 310 CURVE",
"517 313 OFFCURVE",
"490 333 OFFCURVE",
"468 352 CURVE SMOOTH",
"446 371 OFFCURVE",
"423 393 OFFCURVE",
"404 416 CURVE SMOOTH",
"384 439 OFFCURVE",
"365 466 OFFCURVE",
"361 478 CURVE",
"359 483 OFFCURVE",
"358 486 OFFCURVE",
"358 486 CURVE",
"358 494 OFFCURVE",
"366 522 OFFCURVE",
"381 569 CURVE SMOOTH",
"411 663 OFFCURVE",
"498 755 OFFCURVE",
"569 804 CURVE SMOOTH",
"640 853 OFFCURVE",
"724 888 OFFCURVE",
"820 906 CURVE SMOOTH",
"868 915 OFFCURVE",
"919 920 OFFCURVE",
"972 921 CURVE",
"971 814 OFFCURVE",
"952 718 OFFCURVE",
"918 634 CURVE SMOOTH",
"884 550 OFFCURVE",
"834 479 OFFCURVE",
"770 422 CURVE SMOOTH"
);
}
);
width = 1024;
}
);
unicode = E84B;
},
{
glyphname = uniE84C;
layers = (
{
layerId = "177FC93B-1B38-4AFC-964F-9D8881365EE5";
name = Regular;
paths = (
{
closed = 1;
nodes = (
"717 717 LINE",
"717 794 LINE SMOOTH",
"717 835 OFFCURVE",
"683 870 OFFCURVE",
"640 870 CURVE SMOOTH",
"384 870 LINE SMOOTH",
"341 870 OFFCURVE",
"307 835 OFFCURVE",
"307 794 CURVE SMOOTH",
"307 717 LINE",
"77 717 LINE SMOOTH",
"34 717 OFFCURVE",
"0 683 OFFCURVE",
"0 640 CURVE SMOOTH",
"0 77 LINE SMOOTH",
"0 34 OFFCURVE",
"34 0 OFFCURVE",
"77 0 CURVE SMOOTH",
"947 0 LINE SMOOTH",
"990 0 OFFCURVE",
"1024 34 OFFCURVE",
"1024 77 CURVE SMOOTH",
"1024 640 LINE SMOOTH",
"1024 683 OFFCURVE",
"990 717 OFFCURVE",
"947 717 CURVE SMOOTH"
);
},
{
closed = 1;
nodes = (
"358 807 OFFCURVE",
"369 819 OFFCURVE",
"384 819 CURVE SMOOTH",
"640 819 LINE SMOOTH",
"655 819 OFFCURVE",
"666 807 OFFCURVE",
"666 794 CURVE SMOOTH",
"666 717 LINE",
"358 717 LINE",
"358 794 LINE SMOOTH"
);
},
{
closed = 1;
nodes = (
"947 666 LINE SMOOTH",
"962 666 OFFCURVE",
"973 655 OFFCURVE",
"973 640 CURVE SMOOTH",
"973 256 LINE",
"870 256 LINE",
"870 282 LINE SMOOTH",
"870 295 OFFCURVE",
"858 307 OFFCURVE",
"845 307 CURVE SMOOTH",
"742 307 LINE SMOOTH",
"729 307 OFFCURVE",
"717 295 OFFCURVE",
"717 282 CURVE SMOOTH",
"717 256 LINE",
"307 256 LINE",
"307 282 LINE SMOOTH",
"307 295 OFFCURVE",
"295 307 OFFCURVE",
"282 307 CURVE SMOOTH",
"179 307 LINE SMOOTH",
"166 307 OFFCURVE",
"154 295 OFFCURVE",
"154 282 CURVE SMOOTH",
"154 256 LINE",
"51 256 LINE",
"51 640 LINE SMOOTH",
"51 655 OFFCURVE",
"62 666 OFFCURVE",
"77 666 CURVE SMOOTH"
);
},
{
closed = 1;
nodes = (
"819 205 LINE",
"768 205 LINE",
"768 256 LINE",
"819 256 LINE"
);
},
{
closed = 1;
nodes = (
"256 205 LINE",
"205 205 LINE",
"205 256 LINE",
"256 256 LINE"
);
},
{
closed = 1;
nodes = (
"77 51 LINE SMOOTH",
"62 51 OFFCURVE",
"51 62 OFFCURVE",
"51 77 CURVE SMOOTH",
"51 205 LINE",
"154 205 LINE",
"154 179 LINE SMOOTH",
"154 166 OFFCURVE",
"166 154 OFFCURVE",
"179 154 CURVE SMOOTH",
"282 154 LINE SMOOTH",
"295 154 OFFCURVE",
"307 166 OFFCURVE",
"307 179 CURVE SMOOTH",
"307 205 LINE",
"717 205 LINE",
"717 179 LINE SMOOTH",
"717 166 OFFCURVE",
"729 154 OFFCURVE",
"742 154 CURVE SMOOTH",
"845 154 LINE SMOOTH",
"858 154 OFFCURVE",
"870 166 OFFCURVE",
"870 179 CURVE SMOOTH",
"870 205 LINE",
"973 205 LINE",
"973 77 LINE SMOOTH",
"973 62 OFFCURVE",
"962 51 OFFCURVE",
"947 51 CURVE SMOOTH"
);
}
);
width = 1024;
}
);
unicode = E84C;
},
{
glyphname = uniE852;
layers = (
{
layerId = "177FC93B-1B38-4AFC-964F-9D8881365EE5";
name = Regular;
paths = (
{
closed = 1;
nodes = (
"77 205 LINE SMOOTH",
"34 205 OFFCURVE",
"0 239 OFFCURVE",
"0 282 CURVE SMOOTH",
"0 896 LINE SMOOTH",
"0 939 OFFCURVE",
"34 973 OFFCURVE",
"77 973 CURVE SMOOTH",
"794 973 LINE SMOOTH",
"835 973 OFFCURVE",
"870 939 OFFCURVE",
"870 896 CURVE SMOOTH",
"870 538 LINE SMOOTH",
"870 523 OFFCURVE",
"858 512 OFFCURVE",
"845 512 CURVE SMOOTH",
"830 512 OFFCURVE",
"819 523 OFFCURVE",
"819 538 CURVE SMOOTH",
"819 896 LINE SMOOTH",
"819 911 OFFCURVE",
"807 922 OFFCURVE",
"794 922 CURVE SMOOTH",
"77 922 LINE SMOOTH",
"62 922 OFFCURVE",
"51 911 OFFCURVE",
"51 896 CURVE SMOOTH",
"51 282 LINE SMOOTH",
"51 267 OFFCURVE",
"62 256 OFFCURVE",
"77 256 CURVE SMOOTH",
"282 256 LINE SMOOTH",
"295 256 OFFCURVE",
"307 245 OFFCURVE",
"307 230 CURVE SMOOTH",
"307 217 OFFCURVE",
"295 205 OFFCURVE",
"282 205 CURVE SMOOTH"
);
},
{
closed = 1;
nodes = (
"655 -51 OFFCURVE",
"646 -46 OFFCURVE",
"642 -35 CURVE SMOOTH",
"555 182 LINE",
"403 9 LINE SMOOTH",
"396 1 OFFCURVE",
"384 -2 OFFCURVE",
"375 2 CURVE",
"366 5 OFFCURVE",
"358 15 OFFCURVE",
"358 26 CURVE SMOOTH",
"358 794 LINE SMOOTH",
"358 803 OFFCURVE",
"365 813 OFFCURVE",
"374 817 CURVE SMOOTH",
"383 821 OFFCURVE",
"394 820 OFFCURVE",
"401 813 CURVE",
"964 301 LINE",
"972 293 OFFCURVE",
"975 283 OFFCURVE",
"971 272 CURVE",
"967 263 OFFCURVE",
"958 256 OFFCURVE",
"947 256 CURVE SMOOTH",
"729 256 LINE",
"817 35 LINE SMOOTH",
"822 22 OFFCURVE",
"816 7 OFFCURVE",
"803 2 CURVE SMOOTH",
"675 -49 LINE",
"672 -50 OFFCURVE",
"669 -51 OFFCURVE",
"666 -51 CURVE SMOOTH"
);
},
{
closed = 1;
nodes = (
"564 256 OFFCURVE",
"564 256 OFFCURVE",
"565 256 CURVE SMOOTH",
"566 256 OFFCURVE",
"567 256 OFFCURVE",
"568 256 CURVE",
"576 255 OFFCURVE",
"583 248 OFFCURVE",
"587 240 CURVE",
"680 8 LINE",
"760 40 LINE",
"667 272 LINE SMOOTH",
"664 280 OFFCURVE",
"665 289 OFFCURVE",
"670 296 CURVE SMOOTH",
"675 303 OFFCURVE",
"683 307 OFFCURVE",
"691 307 CURVE SMOOTH",
"881 307 LINE",
"410 736 LINE",
"410 94 LINE",
"544 247 LINE",
"549 252 OFFCURVE",
"556 256 OFFCURVE",
"563 256 CURVE SMOOTH"
);
}
);
width = 1024;
}
);
unicode = E852;
},
{
glyphname = uniE864;
layers = (
{
layerId = "177FC93B-1B38-4AFC-964F-9D8881365EE5";
name = Regular;
paths = (
{
closed = 1;
nodes = (
"880 142 OFFCURVE",
"914 195 OFFCURVE",
"938 252 CURVE SMOOTH",
"961 309 OFFCURVE",
"973 371 OFFCURVE",
"973 435 CURVE SMOOTH",
"973 496 OFFCURVE",
"961 555 OFFCURVE",
"941 610 CURVE SMOOTH",
"920 665 OFFCURVE",
"888 716 OFFCURVE",
"848 761 CURVE",
"883 796 LINE",
"916 763 LINE SMOOTH",
"921 758 OFFCURVE",
"927 755 OFFCURVE",
"934 755 CURVE SMOOTH",
"941 755 OFFCURVE",
"948 758 OFFCURVE",
"952 763 CURVE",
"957 768 OFFCURVE",
"960 774 OFFCURVE",
"960 781 CURVE SMOOTH",
"960 788 OFFCURVE",
"957 794 OFFCURVE",
"952 799 CURVE SMOOTH",
"850 901 LINE SMOOTH",
"845 906 OFFCURVE",
"839 909 OFFCURVE",
"832 909 CURVE SMOOTH",
"817 909 OFFCURVE",
"806 898 OFFCURVE",
"806 884 CURVE SMOOTH",
"806 877 OFFCURVE",
"809 870 OFFCURVE",
"814 865 CURVE SMOOTH",
"847 832 LINE",
"812 797 LINE",
"767 837 OFFCURVE",
"716 869 OFFCURVE",
"661 890 CURVE SMOOTH",
"606 910 OFFCURVE",
"547 922 OFFCURVE",
"486 922 CURVE SMOOTH",
"426 922 OFFCURVE",
"367 910 OFFCURVE",
"312 890 CURVE SMOOTH",
"257 869 OFFCURVE",
"206 837 OFFCURVE",
"161 797 CURVE",
"126 832 LINE",
"159 865 LINE SMOOTH",
"164 870 OFFCURVE",
"166 877 OFFCURVE",
"166 884 CURVE SMOOTH",
"166 898 OFFCURVE",
"155 909 OFFCURVE",
"141 909 CURVE SMOOTH",
"134 909 OFFCURVE",
"128 906 OFFCURVE",
"123 901 CURVE SMOOTH",
"20 799 LINE SMOOTH",
"15 794 OFFCURVE",
"13 788 OFFCURVE",
"13 781 CURVE SMOOTH",
"13 774 OFFCURVE",
"15 768 OFFCURVE",
"20 763 CURVE SMOOTH",
"25 758 OFFCURVE",
"31 755 OFFCURVE",
"38 755 CURVE SMOOTH",
"45 755 OFFCURVE",
"52 758 OFFCURVE",
"56 763 CURVE",
"90 796 LINE",
"125 761 LINE",
"85 716 OFFCURVE",
"53 665 OFFCURVE",
"32 610 CURVE SMOOTH",
"11 555 OFFCURVE",
"0 496 OFFCURVE",
"0 435 CURVE SMOOTH",
"0 371 OFFCURVE",
"12 309 OFFCURVE",
"36 252 CURVE SMOOTH",
"59 195 OFFCURVE",
"93 142 OFFCURVE",
"137 97 CURVE",
"33 -7 LINE SMOOTH",
"28 -12 OFFCURVE",
"26 -18 OFFCURVE",
"26 -25 CURVE SMOOTH",
"26 -32 OFFCURVE",
"28 -39 OFFCURVE",
"33 -44 CURVE",
"38 -48 OFFCURVE",
"44 -51 OFFCURVE",
"51 -51 CURVE SMOOTH",
"58 -51 OFFCURVE",
"65 -48 OFFCURVE",
"69 -44 CURVE SMOOTH",
"175 62 LINE",
"218 25 OFFCURVE",
"268 -3 OFFCURVE",
"321 -22 CURVE SMOOTH",
"373 -41 OFFCURVE",
"429 -51 OFFCURVE",
"486 -51 CURVE SMOOTH",
"545 -51 OFFCURVE",
"600 -41 OFFCURVE",
"653 -22 CURVE SMOOTH",
"705 -3 OFFCURVE",
"754 25 OFFCURVE",
"798 62 CURVE",
"903 -44 LINE",
"908 -48 OFFCURVE",
"915 -51 OFFCURVE",
"922 -51 CURVE SMOOTH",
"929 -51 OFFCURVE",
"935 -48 OFFCURVE",
"940 -44 CURVE",
"945 -39 OFFCURVE",
"947 -32 OFFCURVE",
"947 -25 CURVE SMOOTH",
"947 -18 OFFCURVE",
"945 -12 OFFCURVE",
"940 -7 CURVE SMOOTH",
"836 97 LINE"
);
},
{
closed = 1;
nodes = (
"51 555 OFFCURVE",
"100 664 OFFCURVE",
"179 743 CURVE SMOOTH",
"258 822 OFFCURVE",
"366 870 OFFCURVE",
"486 870 CURVE SMOOTH",
"606 870 OFFCURVE",
"715 822 OFFCURVE",
"794 743 CURVE SMOOTH",
"873 664 OFFCURVE",
"922 555 OFFCURVE",
"922 435 CURVE SMOOTH",
"922 315 OFFCURVE",
"873 207 OFFCURVE",
"794 128 CURVE SMOOTH",
"715 49 OFFCURVE",
"606 0 OFFCURVE",
"486 0 CURVE SMOOTH",
"366 0 OFFCURVE",
"258 49 OFFCURVE",
"179 128 CURVE SMOOTH",
"100 207 OFFCURVE",
"51 315 OFFCURVE",
"51 435 CURVE SMOOTH"
);
},
{
closed = 1;
nodes = (
"767 614 OFFCURVE",
"752 618 OFFCURVE",
"740 611 CURVE SMOOTH",
"488 466 LINE",
"291 603 LINE SMOOTH",
"280 611 OFFCURVE",
"264 608 OFFCURVE",
"256 597 CURVE",
"248 585 OFFCURVE",
"250 569 OFFCURVE",
"262 561 CURVE SMOOTH",
"472 414 LINE",
"472 414 OFFCURVE",
"472 414 OFFCURVE",
"472 414 CURVE SMOOTH",
"472 414 OFFCURVE",
"472 414 OFFCURVE",
"472 414 CURVE SMOOTH",
"472 414 OFFCURVE",
"473 413 OFFCURVE",
"473 413 CURVE SMOOTH",
"473 413 OFFCURVE",
"473 413 OFFCURVE",
"473 413 CURVE SMOOTH",
"473 413 OFFCURVE",
"473 413 OFFCURVE",
"474 413 CURVE",
"474 413 OFFCURVE",
"474 413 OFFCURVE",
"475 413 CURVE",
"475 413 OFFCURVE",
"475 413 OFFCURVE",
"475 412 CURVE",
"475 412 OFFCURVE",
"475 412 OFFCURVE",
"475 412 CURVE SMOOTH",
"475 412 OFFCURVE",
"475 412 OFFCURVE",
"475 412 CURVE",
"476 412 OFFCURVE",
"476 412 OFFCURVE",
"476 412 CURVE SMOOTH",
"476 412 OFFCURVE",
"476 412 OFFCURVE",
"477 411 CURVE",
"477 411 OFFCURVE",
"477 411 OFFCURVE",
"478 411 CURVE",
"478 411 OFFCURVE",
"478 411 OFFCURVE",
"478 411 CURVE SMOOTH",
"478 411 OFFCURVE",
"478 411 OFFCURVE",
"478 411 CURVE SMOOTH",
"478 411 OFFCURVE",
"478 411 OFFCURVE",
"478 411 CURVE",
"479 411 OFFCURVE",
"479 411 OFFCURVE",
"479 411 CURVE SMOOTH",
"479 411 OFFCURVE",
"479 411 OFFCURVE",
"480 411 CURVE",
"480 411 OFFCURVE",
"480 411 OFFCURVE",
"480 411 CURVE",
"480 410 OFFCURVE",
"480 410 OFFCURVE",
"480 410 CURVE SMOOTH",
"480 410 OFFCURVE",
"480 410 OFFCURVE",
"481 410 CURVE",
"481 410 OFFCURVE",
"481 410 OFFCURVE",
"481 410 CURVE SMOOTH",
"481 410 OFFCURVE",
"481 410 OFFCURVE",
"482 410 CURVE",
"482 410 OFFCURVE",
"482 410 OFFCURVE",
"482 410 CURVE SMOOTH",
"482 410 OFFCURVE",
"482 410 OFFCURVE",
"483 410 CURVE",
"483 410 OFFCURVE",
"483 410 OFFCURVE",
"483 410 CURVE SMOOTH",
"483 410 OFFCURVE",
"483 410 OFFCURVE",
"484 410 CURVE",
"484 410 OFFCURVE",
"484 410 OFFCURVE",
"484 410 CURVE SMOOTH",
"484 410 OFFCURVE",
"484 410 OFFCURVE",
"484 410 CURVE SMOOTH",
"484 410 OFFCURVE",
"484 410 OFFCURVE",
"485 410 CURVE",
"485 410 OFFCURVE",
"485 410 OFFCURVE",
"486 410 CURVE",
"486 410 OFFCURVE",
"486 410 OFFCURVE",
"486 410 CURVE SMOOTH",
"486 410 OFFCURVE",
"486 410 OFFCURVE",
"486 410 CURVE SMOOTH",
"486 410 OFFCURVE",
"486 410 OFFCURVE",
"486 410 CURVE SMOOTH",
"486 410 OFFCURVE",
"486 410 OFFCURVE",
"486 410 CURVE SMOOTH",
"486 410 OFFCURVE",
"486 410 OFFCURVE",
"486 410 CURVE SMOOTH",
"486 410 OFFCURVE",
"486 410 OFFCURVE",
"486 410 CURVE SMOOTH",
"486 410 OFFCURVE",
"486 410 OFFCURVE",
"486 410 CURVE",
"487 410 OFFCURVE",
"487 410 OFFCURVE",
"488 410 CURVE SMOOTH",
"489 410 OFFCURVE",
"489 410 OFFCURVE",
"489 410 CURVE SMOOTH",
"489 410 OFFCURVE",
"489 410 OFFCURVE",
"489 410 CURVE SMOOTH",
"489 410 OFFCURVE",
"489 410 OFFCURVE",
"489 410 CURVE",
"490 410 OFFCURVE",
"490 410 OFFCURVE",
"491 410 CURVE SMOOTH",
"492 410 OFFCURVE",
"492 410 OFFCURVE",
"492 410 CURVE SMOOTH",
"492 410 OFFCURVE",
"492 410 OFFCURVE",
"492 410 CURVE SMOOTH",
"492 410 OFFCURVE",
"492 410 OFFCURVE",
"492 410 CURVE",
"493 410 OFFCURVE",
"493 410 OFFCURVE",
"494 411 CURVE",
"494 411 OFFCURVE",
"494 411 OFFCURVE",
"495 411 CURVE",
"495 411 OFFCURVE",
"495 411 OFFCURVE",
"495 411 CURVE SMOOTH",
"495 411 OFFCURVE",
"495 411 OFFCURVE",
"495 411 CURVE",
"496 412 OFFCURVE",
"496 412 OFFCURVE",
"497 412 CURVE",
"497 412 OFFCURVE",
"497 412 OFFCURVE",
"498 412 CURVE",
"498 412 OFFCURVE",
"498 412 OFFCURVE",
"498 413 CURVE",
"498 413 OFFCURVE",
"498 413 OFFCURVE",
"498 413 CURVE",
"499 413 OFFCURVE",
"499 413 OFFCURVE",
"499 413 CURVE SMOOTH",
"499 413 OFFCURVE",
"499 413 OFFCURVE",
"499 413 CURVE",
"765 567 LINE SMOOTH",
"777 574 OFFCURVE",
"782 589 OFFCURVE",
"775 602 CURVE"
);
}
);
width = 1024;
}
);
unicode = E864;
},
{
glyphname = uniE867;
layers = (
{
layerId = "177FC93B-1B38-4AFC-964F-9D8881365EE5";
name = Regular;
paths = (
{
closed = 1;
nodes = (
"653 382 OFFCURVE",
"647 384 OFFCURVE",
"640 384 CURVE SMOOTH",
"633 384 OFFCURVE",
"627 382 OFFCURVE",
"622 377 CURVE SMOOTH",
"512 267 LINE",
"512 896 LINE SMOOTH",
"512 911 OFFCURVE",
"501 922 OFFCURVE",
"486 922 CURVE SMOOTH",
"473 922 OFFCURVE",
"461 911 OFFCURVE",
"461 896 CURVE SMOOTH",
"461 267 LINE",
"351 377 LINE SMOOTH",
"346 382 OFFCURVE",
"340 384 OFFCURVE",
"333 384 CURVE SMOOTH",
"319 384 OFFCURVE",
"307 373 OFFCURVE",
"307 359 CURVE SMOOTH",
"307 352 OFFCURVE",
"310 345 OFFCURVE",
"315 340 CURVE SMOOTH",
"468 187 LINE SMOOTH",
"473 182 OFFCURVE",
"479 179 OFFCURVE",
"486 179 CURVE SMOOTH",
"493 179 OFFCURVE",
"500 182 OFFCURVE",
"505 187 CURVE SMOOTH",
"658 340 LINE SMOOTH",
"663 345 OFFCURVE",
"666 352 OFFCURVE",
"666 359 CURVE SMOOTH",
"666 366 OFFCURVE",
"663 372 OFFCURVE",
"658 377 CURVE SMOOTH"
);
},
{
closed = 1;
nodes = (
"179 -51 LINE SMOOTH",
"136 -51 OFFCURVE",
"102 -17 OFFCURVE",
"102 26 CURVE SMOOTH",
"102 538 LINE SMOOTH",
"102 579 OFFCURVE",
"136 614 OFFCURVE",
"179 614 CURVE SMOOTH",
"384 614 LINE SMOOTH",
"399 614 OFFCURVE",
"410 602 OFFCURVE",
"410 589 CURVE SMOOTH",
"410 574 OFFCURVE",
"399 563 OFFCURVE",
"384 563 CURVE SMOOTH",
"179 563 LINE SMOOTH",
"166 563 OFFCURVE",
"154 551 OFFCURVE",
"154 538 CURVE SMOOTH",
"154 26 LINE SMOOTH",
"154 11 OFFCURVE",
"166 0 OFFCURVE",
"179 0 CURVE SMOOTH",
"794 0 LINE SMOOTH",
"807 0 OFFCURVE",
"819 11 OFFCURVE",
"819 26 CURVE SMOOTH",
"819 538 LINE SMOOTH",
"819 551 OFFCURVE",
"807 563 OFFCURVE",
"794 563 CURVE SMOOTH",
"589 563 LINE SMOOTH",
"574 563 OFFCURVE",
"563 574 OFFCURVE",
"563 589 CURVE SMOOTH",
"563 602 OFFCURVE",
"574 614 OFFCURVE",
"589 614 CURVE SMOOTH",
"794 614 LINE SMOOTH",
"835 614 OFFCURVE",
"870 579 OFFCURVE",
"870 538 CURVE SMOOTH",
"870 26 LINE SMOOTH",
"870 -17 OFFCURVE",
"835 -51 OFFCURVE",
"794 -51 CURVE SMOOTH"
);
}
);
width = 1024;
}
);
unicode = E867;
},
{
glyphname = uniE868;
layers = (
{
layerId = "177FC93B-1B38-4AFC-964F-9D8881365EE5";
name = Regular;
paths = (
{
closed = 1;
nodes = (
"179 -51 LINE SMOOTH",
"136 -51 OFFCURVE",
"102 -17 OFFCURVE",
"102 26 CURVE SMOOTH",
"102 538 LINE SMOOTH",
"102 579 OFFCURVE",
"136 614 OFFCURVE",
"179 614 CURVE SMOOTH",
"384 614 LINE SMOOTH",
"399 614 OFFCURVE",
"410 602 OFFCURVE",
"410 589 CURVE SMOOTH",
"410 574 OFFCURVE",
"399 563 OFFCURVE",
"384 563 CURVE SMOOTH",
"179 563 LINE SMOOTH",
"166 563 OFFCURVE",
"154 551 OFFCURVE",
"154 538 CURVE SMOOTH",
"154 26 LINE SMOOTH",
"154 11 OFFCURVE",
"166 0 OFFCURVE",
"179 0 CURVE SMOOTH",
"794 0 LINE SMOOTH",
"807 0 OFFCURVE",
"819 11 OFFCURVE",
"819 26 CURVE SMOOTH",
"819 538 LINE SMOOTH",
"819 551 OFFCURVE",
"807 563 OFFCURVE",
"794 563 CURVE SMOOTH",
"589 563 LINE SMOOTH",
"574 563 OFFCURVE",
"563 574 OFFCURVE",
"563 589 CURVE SMOOTH",
"563 602 OFFCURVE",
"574 614 OFFCURVE",
"589 614 CURVE SMOOTH",
"794 614 LINE SMOOTH",
"835 614 OFFCURVE",
"870 579 OFFCURVE",
"870 538 CURVE SMOOTH",
"870 26 LINE SMOOTH",
"870 -17 OFFCURVE",
"835 -51 OFFCURVE",
"794 -51 CURVE SMOOTH"
);
},
{
closed = 1;
nodes = (
"504 940 LINE SMOOTH",
"499 945 OFFCURVE",
"494 947 OFFCURVE",
"487 947 CURVE SMOOTH",
"480 947 OFFCURVE",
"473 945 OFFCURVE",
"468 940 CURVE SMOOTH",
"315 786 LINE SMOOTH",
"310 781 OFFCURVE",
"307 775 OFFCURVE",
"307 768 CURVE SMOOTH",
"307 753 OFFCURVE",
"319 742 OFFCURVE",
"333 742 CURVE SMOOTH",
"340 742 OFFCURVE",
"346 745 OFFCURVE",
"351 750 CURVE SMOOTH",
"461 860 LINE",
"461 282 LINE SMOOTH",
"461 267 OFFCURVE",
"473 256 OFFCURVE",
"486 256 CURVE SMOOTH",
"501 256 OFFCURVE",
"512 267 OFFCURVE",
"512 282 CURVE SMOOTH",
"512 860 LINE",
"622 750 LINE SMOOTH",
"627 745 OFFCURVE",
"633 742 OFFCURVE",
"640 742 CURVE SMOOTH",
"647 742 OFFCURVE",
"653 745 OFFCURVE",
"658 750 CURVE SMOOTH",
"663 755 OFFCURVE",
"666 761 OFFCURVE",
"666 768 CURVE SMOOTH",
"666 775 OFFCURVE",
"663 781 OFFCURVE",
"658 786 CURVE SMOOTH"
);
}
);
width = 1024;
}
);
unicode = E868;
},
{
glyphname = uniE86A;
layers = (
{
layerId = "177FC93B-1B38-4AFC-964F-9D8881365EE5";
name = Regular;
paths = (
{
closed = 1;
nodes = (
"249 205 OFFCURVE",
"243 208 OFFCURVE",
"238 212 CURVE",
"33 417 LINE SMOOTH",
"28 422 OFFCURVE",
"26 429 OFFCURVE",
"26 436 CURVE SMOOTH",
"26 443 OFFCURVE",
"28 448 OFFCURVE",
"33 453 CURVE SMOOTH",
"238 658 LINE SMOOTH",
"243 663 OFFCURVE",
"249 666 OFFCURVE",
"256 666 CURVE SMOOTH",
"271 666 OFFCURVE",
"282 655 OFFCURVE",
"282 640 CURVE SMOOTH",
"282 633 OFFCURVE",
"279 627 OFFCURVE",
"274 622 CURVE SMOOTH",
"87 435 LINE",
"274 249 LINE SMOOTH",
"279 244 OFFCURVE",
"282 238 OFFCURVE",
"282 231 CURVE SMOOTH",
"282 224 OFFCURVE",
"279 217 OFFCURVE",
"274 212 CURVE",
"269 208 OFFCURVE",
"263 205 OFFCURVE",
"256 205 CURVE SMOOTH"
);
},
{
closed = 1;
nodes = (
"761 205 OFFCURVE",
"755 208 OFFCURVE",
"750 212 CURVE",
"745 217 OFFCURVE",
"742 224 OFFCURVE",
"742 231 CURVE SMOOTH",
"742 238 OFFCURVE",
"745 244 OFFCURVE",
"750 249 CURVE SMOOTH",
"937 435 LINE",
"750 622 LINE SMOOTH",
"745 627 OFFCURVE",
"742 633 OFFCURVE",
"742 640 CURVE SMOOTH",
"742 655 OFFCURVE",
"753 666 OFFCURVE",
"768 666 CURVE SMOOTH",
"775 666 OFFCURVE",
"781 663 OFFCURVE",
"786 658 CURVE SMOOTH",
"991 453 LINE SMOOTH",
"996 448 OFFCURVE",
"998 443 OFFCURVE",
"998 436 CURVE SMOOTH",
"998 429 OFFCURVE",
"996 422 OFFCURVE",
"991 417 CURVE SMOOTH",
"786 212 LINE",
"781 208 OFFCURVE",
"775 205 OFFCURVE",
"768 205 CURVE SMOOTH"
);
},
{
closed = 1;
nodes = (
"380 205 OFFCURVE",
"375 206 OFFCURVE",
"370 209 CURVE SMOOTH",
"358 216 OFFCURVE",
"355 232 OFFCURVE",
"362 244 CURVE SMOOTH",
"618 654 LINE SMOOTH",
"626 666 OFFCURVE",
"642 669 OFFCURVE",
"654 662 CURVE",
"666 654 OFFCURVE",
"669 638 OFFCURVE",
"662 626 CURVE SMOOTH",
"406 217 LINE SMOOTH",
"401 209 OFFCURVE",
"392 205 OFFCURVE",
"384 205 CURVE SMOOTH"
);
}
);
width = 1024;
}
);
unicode = E86A;
},
{
glyphname = uniE86B;
layers = (
{
layerId = "177FC93B-1B38-4AFC-964F-9D8881365EE5";
name = Regular;
paths = (
{
closed = 1;
nodes = (
"499 307 OFFCURVE",
"450 326 OFFCURVE",
"414 362 CURVE SMOOTH",
"409 367 OFFCURVE",
"406 374 OFFCURVE",
"406 381 CURVE SMOOTH",
"406 395 OFFCURVE",
"418 406 OFFCURVE",
"432 406 CURVE SMOOTH",
"439 406 OFFCURVE",
"445 404 OFFCURVE",
"450 399 CURVE SMOOTH",
"477 372 OFFCURVE",
"509 358 OFFCURVE",
"547 358 CURVE SMOOTH",
"585 358 OFFCURVE",
"617 372 OFFCURVE",
"644 399 CURVE SMOOTH",
"830 585 LINE SMOOTH",
"857 612 OFFCURVE",
"870 644 OFFCURVE",
"870 682 CURVE SMOOTH",
"870 758 OFFCURVE",
"809 819 OFFCURVE",
"733 819 CURVE SMOOTH",
"695 819 OFFCURVE",
"663 806 OFFCURVE",
"636 779 CURVE SMOOTH",
"479 622 LINE SMOOTH",
"474 617 OFFCURVE",
"468 614 OFFCURVE",
"461 614 CURVE SMOOTH",
"447 614 OFFCURVE",
"435 625 OFFCURVE",
"435 640 CURVE SMOOTH",
"435 647 OFFCURVE",
"438 653 OFFCURVE",
"443 658 CURVE SMOOTH",
"600 815 LINE SMOOTH",
"637 852 OFFCURVE",
"681 870 OFFCURVE",
"733 870 CURVE SMOOTH",
"837 870 OFFCURVE",
"922 786 OFFCURVE",
"922 682 CURVE SMOOTH",
"922 630 OFFCURVE",
"903 586 OFFCURVE",
"866 549 CURVE SMOOTH",
"680 362 LINE SMOOTH",
"644 326 OFFCURVE",
"595 307 OFFCURVE",
"547 307 CURVE SMOOTH"
);
},
{
closed = 1;
nodes = (
"192 0 OFFCURVE",
"143 19 OFFCURVE",
"106 55 CURVE SMOOTH",
"69 92 OFFCURVE",
"51 136 OFFCURVE",
"51 189 CURVE SMOOTH",
"51 241 OFFCURVE",
"69 285 OFFCURVE",
"106 322 CURVE SMOOTH",
"293 508 LINE SMOOTH",
"330 545 OFFCURVE",
"374 563 OFFCURVE",
"426 563 CURVE SMOOTH",
"478 563 OFFCURVE",
"522 545 OFFCURVE",
"559 508 CURVE SMOOTH",
"564 503 OFFCURVE",
"567 497 OFFCURVE",
"567 490 CURVE SMOOTH",
"567 476 OFFCURVE",
"556 464 OFFCURVE",
"541 464 CURVE SMOOTH",
"534 464 OFFCURVE",
"528 467 OFFCURVE",
"523 472 CURVE SMOOTH",
"496 499 OFFCURVE",
"464 512 OFFCURVE",
"426 512 CURVE SMOOTH",
"388 512 OFFCURVE",
"356 499 OFFCURVE",
"329 472 CURVE SMOOTH",
"143 286 LINE SMOOTH",
"116 259 OFFCURVE",
"102 226 OFFCURVE",
"102 189 CURVE SMOOTH",
"102 113 OFFCURVE",
"164 51 OFFCURVE",
"240 51 CURVE SMOOTH",
"278 51 OFFCURVE",
"310 64 OFFCURVE",
"337 91 CURVE SMOOTH",
"494 249 LINE SMOOTH",
"499 254 OFFCURVE",
"505 256 OFFCURVE",
"512 256 CURVE SMOOTH",
"527 256 OFFCURVE",
"538 245 OFFCURVE",
"538 231 CURVE SMOOTH",
"538 224 OFFCURVE",
"535 217 OFFCURVE",
"530 212 CURVE SMOOTH",
"373 55 LINE SMOOTH",
"336 19 OFFCURVE",
"288 0 OFFCURVE",
"240 0 CURVE SMOOTH"
);
}
);
width = 1024;
}
);
unicode = E86B;
},
{
glyphname = uniE86F;
layers = (
{
layerId = "177FC93B-1B38-4AFC-964F-9D8881365EE5";
name = Regular;
paths = (
{
closed = 1;
nodes = (
"662 324 LINE",
"730 395 OFFCURVE",
"768 489 OFFCURVE",
"768 589 CURVE SMOOTH",
"768 692 OFFCURVE",
"728 788 OFFCURVE",
"656 860 CURVE SMOOTH",
"583 933 OFFCURVE",
"487 973 OFFCURVE",
"384 973 CURVE SMOOTH",
"281 973 OFFCURVE",
"185 933 OFFCURVE",
"112 860 CURVE SMOOTH",
"40 788 OFFCURVE",
"0 692 OFFCURVE",
"0 589 CURVE SMOOTH",
"0 486 OFFCURVE",
"40 390 OFFCURVE",
"112 317 CURVE SMOOTH",
"185 245 OFFCURVE",
"281 205 OFFCURVE",
"384 205 CURVE SMOOTH",
"472 205 OFFCURVE",
"556 234 OFFCURVE",
"624 289 CURVE",
"928 -43 LINE",
"933 -48 OFFCURVE",
"940 -51 OFFCURVE",
"947 -51 CURVE SMOOTH",
"954 -51 OFFCURVE",
"960 -49 OFFCURVE",
"964 -44 CURVE",
"975 -35 OFFCURVE",
"975 -19 OFFCURVE",
"966 -8 CURVE"
);
},
{
closed = 1;
nodes = (
"51 681 OFFCURVE",
"89 764 OFFCURVE",
"149 824 CURVE SMOOTH",
"209 884 OFFCURVE",
"292 922 OFFCURVE",
"384 922 CURVE SMOOTH",
"476 922 OFFCURVE",
"559 884 OFFCURVE",
"619 824 CURVE SMOOTH",
"679 764 OFFCURVE",
"717 681 OFFCURVE",
"717 589 CURVE SMOOTH",
"717 497 OFFCURVE",
"679 414 OFFCURVE",
"619 354 CURVE SMOOTH",
"559 293 OFFCURVE",
"476 256 OFFCURVE",
"384 256 CURVE SMOOTH",
"292 256 OFFCURVE",
"209 293 OFFCURVE",
"149 354 CURVE SMOOTH",
"89 414 OFFCURVE",
"51 497 OFFCURVE",
"51 589 CURVE SMOOTH"
);
}
);
width = 1024;
}
);
unicode = E86F;
},
{
glyphname = uniE870;
layers = (
{
layerId = "177FC93B-1B38-4AFC-964F-9D8881365EE5";
name = Regular;
paths = (
{
closed = 1;
nodes = (
"837 724 LINE SMOOTH",
"842 729 OFFCURVE",
"845 736 OFFCURVE",
"845 743 CURVE SMOOTH",
"845 757 OFFCURVE",
"834 768 OFFCURVE",
"820 768 CURVE SMOOTH",
"813 768 OFFCURVE",
"806 766 OFFCURVE",
"801 761 CURVE SMOOTH",
"512 471 LINE",
"223 761 LINE SMOOTH",
"218 766 OFFCURVE",
"212 768 OFFCURVE",
"205 768 CURVE SMOOTH",
"191 768 OFFCURVE",
"179 757 OFFCURVE",
"179 743 CURVE SMOOTH",
"179 736 OFFCURVE",
"182 729 OFFCURVE",
"187 724 CURVE SMOOTH",
"476 435 LINE",
"187 146 LINE SMOOTH",
"182 141 OFFCURVE",
"179 135 OFFCURVE",
"179 128 CURVE SMOOTH",
"179 121 OFFCURVE",
"182 115 OFFCURVE",
"187 110 CURVE",
"191 105 OFFCURVE",
"198 102 OFFCURVE",
"205 102 CURVE SMOOTH",
"212 102 OFFCURVE",
"218 105 OFFCURVE",
"223 110 CURVE SMOOTH",
"512 399 LINE",
"801 110 LINE SMOOTH",
"806 105 OFFCURVE",
"812 102 OFFCURVE",
"819 102 CURVE SMOOTH",
"826 102 OFFCURVE",
"833 105 OFFCURVE",
"837 110 CURVE",
"842 115 OFFCURVE",
"845 121 OFFCURVE",
"845 128 CURVE SMOOTH",
"845 135 OFFCURVE",
"842 141 OFFCURVE",
"837 146 CURVE SMOOTH",
"548 435 LINE"
);
}
);
width = 1024;
}
);
unicode = E870;
},
{
glyphname = uniE871;
layers = (
{
layerId = "177FC93B-1B38-4AFC-964F-9D8881365EE5";
name = Regular;
paths = (
{
closed = 1;
nodes = (
"128 666 LINE SMOOTH",
"113 666 OFFCURVE",
"102 678 OFFCURVE",
"102 691 CURVE SMOOTH",
"102 706 OFFCURVE",
"113 717 OFFCURVE",
"128 717 CURVE SMOOTH",
"896 717 LINE SMOOTH",
"911 717 OFFCURVE",
"922 706 OFFCURVE",
"922 691 CURVE SMOOTH",
"922 678 OFFCURVE",
"911 666 OFFCURVE",
"896 666 CURVE SMOOTH"
);
},
{
closed = 1;
nodes = (
"128 410 LINE SMOOTH",
"113 410 OFFCURVE",
"102 422 OFFCURVE",
"102 435 CURVE SMOOTH",
"102 450 OFFCURVE",
"113 461 OFFCURVE",
"128 461 CURVE SMOOTH",
"896 461 LINE SMOOTH",
"911 461 OFFCURVE",
"922 450 OFFCURVE",
"922 435 CURVE SMOOTH",
"922 422 OFFCURVE",
"911 410 OFFCURVE",
"896 410 CURVE SMOOTH"
);
},
{
closed = 1;
nodes = (
"128 154 LINE SMOOTH",
"113 154 OFFCURVE",
"102 166 OFFCURVE",
"102 179 CURVE SMOOTH",
"102 194 OFFCURVE",
"113 205 OFFCURVE",
"128 205 CURVE SMOOTH",
"896 205 LINE SMOOTH",
"911 205 OFFCURVE",
"922 194 OFFCURVE",
"922 179 CURVE SMOOTH",
"922 166 OFFCURVE",
"911 154 OFFCURVE",
"896 154 CURVE SMOOTH"
);
}
);
width = 1024;
}
);
unicode = E871;
},
{
glyphname = uniE872;
layers = (
{
layerId = "177FC93B-1B38-4AFC-964F-9D8881365EE5";
name = Regular;
paths = (
{
closed = 1;
nodes = (
"230 154 LINE SMOOTH",
"217 154 OFFCURVE",
"205 166 OFFCURVE",
"205 179 CURVE SMOOTH",
"205 194 OFFCURVE",
"217 205 OFFCURVE",
"230 205 CURVE SMOOTH",
"998 205 LINE SMOOTH",
"1013 205 OFFCURVE",
"1024 194 OFFCURVE",
"1024 179 CURVE SMOOTH",
"1024 166 OFFCURVE",
"1013 154 OFFCURVE",
"998 154 CURVE SMOOTH"
);
},
{
closed = 1;
nodes = (
"230 410 LINE SMOOTH",
"217 410 OFFCURVE",
"205 422 OFFCURVE",
"205 435 CURVE SMOOTH",
"205 450 OFFCURVE",
"217 461 OFFCURVE",
"230 461 CURVE SMOOTH",
"998 461 LINE SMOOTH",
"1013 461 OFFCURVE",
"1024 450 OFFCURVE",
"1024 435 CURVE SMOOTH",
"1024 422 OFFCURVE",
"1013 410 OFFCURVE",
"998 410 CURVE SMOOTH"
);
},
{
closed = 1;
nodes = (
"230 666 LINE SMOOTH",
"217 666 OFFCURVE",
"205 678 OFFCURVE",
"205 691 CURVE SMOOTH",
"205 706 OFFCURVE",
"217 717 OFFCURVE",
"230 717 CURVE SMOOTH",
"998 717 LINE SMOOTH",
"1013 717 OFFCURVE",
"1024 706 OFFCURVE",
"1024 691 CURVE SMOOTH",
"1024 678 OFFCURVE",
"1013 666 OFFCURVE",
"998 666 CURVE SMOOTH"
);
},
{
closed = 1;
nodes = (
"34 614 OFFCURVE",
"0 648 OFFCURVE",
"0 691 CURVE SMOOTH",
"0 734 OFFCURVE",
"34 768 OFFCURVE",
"77 768 CURVE SMOOTH",
"120 768 OFFCURVE",
"154 734 OFFCURVE",
"154 691 CURVE SMOOTH",
"154 648 OFFCURVE",
"120 614 OFFCURVE",
"77 614 CURVE SMOOTH"
);
},
{
closed = 1;
nodes = (
"62 717 OFFCURVE",
"51 706 OFFCURVE",
"51 691 CURVE SMOOTH",
"51 678 OFFCURVE",
"62 666 OFFCURVE",
"77 666 CURVE SMOOTH",
"90 666 OFFCURVE",
"102 678 OFFCURVE",
"102 691 CURVE SMOOTH",
"102 706 OFFCURVE",
"90 717 OFFCURVE",
"77 717 CURVE SMOOTH"
);
},
{
closed = 1;
nodes = (
"34 358 OFFCURVE",
"0 392 OFFCURVE",
"0 435 CURVE SMOOTH",
"0 478 OFFCURVE",
"34 512 OFFCURVE",
"77 512 CURVE SMOOTH",
"120 512 OFFCURVE",
"154 478 OFFCURVE",
"154 435 CURVE SMOOTH",
"154 392 OFFCURVE",
"120 358 OFFCURVE",
"77 358 CURVE SMOOTH"
);
},
{
closed = 1;
nodes = (
"62 461 OFFCURVE",
"51 450 OFFCURVE",
"51 435 CURVE SMOOTH",
"51 422 OFFCURVE",
"62 410 OFFCURVE",
"77 410 CURVE SMOOTH",
"90 410 OFFCURVE",
"102 422 OFFCURVE",
"102 435 CURVE SMOOTH",
"102 450 OFFCURVE",
"90 461 OFFCURVE",
"77 461 CURVE SMOOTH"
);
},
{
closed = 1;
nodes = (
"34 102 OFFCURVE",
"0 136 OFFCURVE",
"0 179 CURVE SMOOTH",
"0 222 OFFCURVE",
"34 256 OFFCURVE",
"77 256 CURVE SMOOTH",
"120 256 OFFCURVE",
"154 222 OFFCURVE",
"154 179 CURVE SMOOTH",
"154 136 OFFCURVE",
"120 102 OFFCURVE",
"77 102 CURVE SMOOTH"
);
},
{
closed = 1;
nodes = (
"62 205 OFFCURVE",
"51 194 OFFCURVE",
"51 179 CURVE SMOOTH",
"51 166 OFFCURVE",
"62 154 OFFCURVE",
"77 154 CURVE SMOOTH",
"90 154 OFFCURVE",
"102 166 OFFCURVE",
"102 179 CURVE SMOOTH",
"102 194 OFFCURVE",
"90 205 OFFCURVE",
"77 205 CURVE SMOOTH"
);
}
);
width = 1024;
}
);
unicode = E872;
},
{
glyphname = uniE873;
layers = (
{
layerId = "177FC93B-1B38-4AFC-964F-9D8881365EE5";
name = Regular;
paths = (
{
closed = 1;
nodes = (
"0 198 OFFCURVE",
"3 191 OFFCURVE",
"7 187 CURVE SMOOTH",
"12 182 OFFCURVE",
"19 179 OFFCURVE",
"26 179 CURVE SMOOTH",
"33 179 OFFCURVE",
"39 182 OFFCURVE",
"44 187 CURVE SMOOTH",
"486 629 LINE",
"929 187 LINE SMOOTH",
"934 182 OFFCURVE",
"941 179 OFFCURVE",
"948 179 CURVE SMOOTH",
"962 179 OFFCURVE",
"973 191 OFFCURVE",
"973 205 CURVE SMOOTH",
"973 212 OFFCURVE",
"970 218 OFFCURVE",
"965 223 CURVE SMOOTH",
"505 684 LINE SMOOTH",
"500 689 OFFCURVE",
"494 691 OFFCURVE",
"487 691 CURVE SMOOTH",
"480 691 OFFCURVE",
"473 689 OFFCURVE",
"468 684 CURVE SMOOTH",
"7 223 LINE",
"3 218 OFFCURVE",
"0 212 OFFCURVE",
"0 205 CURVE SMOOTH"
);
}
);
width = 1024;
}
);
unicode = E873;
},
{
glyphname = uniE874;
layers = (
{
layerId = "177FC93B-1B38-4AFC-964F-9D8881365EE5";
name = Regular;
paths = (
{
closed = 1;
nodes = (
"0 673 OFFCURVE",
"3 679 OFFCURVE",
"7 684 CURVE",
"12 689 OFFCURVE",
"19 691 OFFCURVE",
"26 691 CURVE SMOOTH",
"33 691 OFFCURVE",
"39 689 OFFCURVE",
"44 684 CURVE SMOOTH",
"486 241 LINE",
"929 684 LINE SMOOTH",
"934 689 OFFCURVE",
"941 691 OFFCURVE",
"948 691 CURVE SMOOTH",
"962 691 OFFCURVE",
"973 680 OFFCURVE",
"973 666 CURVE SMOOTH",
"973 659 OFFCURVE",
"970 652 OFFCURVE",
"965 647 CURVE SMOOTH",
"505 187 LINE SMOOTH",
"500 182 OFFCURVE",
"494 179 OFFCURVE",
"487 179 CURVE SMOOTH",
"480 179 OFFCURVE",
"473 182 OFFCURVE",
"468 187 CURVE SMOOTH",
"7 647 LINE",
"3 652 OFFCURVE",
"0 659 OFFCURVE",
"0 666 CURVE SMOOTH"
);
}
);
width = 1024;
}
);
unicode = E874;
},
{
glyphname = uniE875;
layers = (
{
layerId = "177FC93B-1B38-4AFC-964F-9D8881365EE5";
name = Regular;
paths = (
{
closed = 1;
nodes = (
"724 -51 OFFCURVE",
"730 -48 OFFCURVE",
"735 -44 CURVE",
"740 -39 OFFCURVE",
"742 -32 OFFCURVE",
"742 -25 CURVE SMOOTH",
"742 -18 OFFCURVE",
"740 -12 OFFCURVE",
"735 -7 CURVE SMOOTH",
"292 435 LINE",
"735 878 LINE SMOOTH",
"740 883 OFFCURVE",
"742 889 OFFCURVE",
"742 896 CURVE SMOOTH",
"742 911 OFFCURVE",
"731 922 OFFCURVE",
"717 922 CURVE SMOOTH",
"710 922 OFFCURVE",
"704 919 OFFCURVE",
"699 914 CURVE SMOOTH",
"238 453 LINE SMOOTH",
"233 448 OFFCURVE",
"230 443 OFFCURVE",
"230 436 CURVE SMOOTH",
"230 429 OFFCURVE",
"233 422 OFFCURVE",
"238 417 CURVE SMOOTH",
"699 -44 LINE SMOOTH",
"703 -48 OFFCURVE",
"710 -51 OFFCURVE",
"717 -51 CURVE SMOOTH"
);
}
);
width = 1024;
}
);
unicode = E875;
},
{
glyphname = uniE876;
layers = (
{
layerId = "177FC93B-1B38-4AFC-964F-9D8881365EE5";
name = Regular;
paths = (
{
closed = 1;
nodes = (
"249 -51 OFFCURVE",
"243 -48 OFFCURVE",
"238 -44 CURVE",
"233 -39 OFFCURVE",
"230 -32 OFFCURVE",
"230 -25 CURVE SMOOTH",
"230 -18 OFFCURVE",
"233 -12 OFFCURVE",
"238 -7 CURVE SMOOTH",
"681 435 LINE",
"238 878 LINE SMOOTH",
"233 883 OFFCURVE",
"230 889 OFFCURVE",
"230 896 CURVE SMOOTH",
"230 911 OFFCURVE",
"241 922 OFFCURVE",
"256 922 CURVE SMOOTH",
"263 922 OFFCURVE",
"269 919 OFFCURVE",
"274 914 CURVE SMOOTH",
"735 453 LINE SMOOTH",
"740 448 OFFCURVE",
"742 443 OFFCURVE",
"742 436 CURVE SMOOTH",
"742 429 OFFCURVE",
"740 422 OFFCURVE",
"735 417 CURVE SMOOTH",
"274 -44 LINE",
"269 -48 OFFCURVE",
"263 -51 OFFCURVE",
"256 -51 CURVE SMOOTH"
);
}
);
width = 1024;
}
);
unicode = E876;
},
